<?xml version="1.0" standalone="no"?>
  <!DOCTYPE svg PUBLIC "-//W3C//DTD SVG 1.1//EN" "http://www.w3.org/Graphics/SVG/1.1/DTD/svg11.dtd" >
  <svg>
  <metadata>
  Created by font-carrier
  </metadata>
  <defs>
  <font id="PTSerif-Regular" horiz-adv-x="1198" vert-adv-y="1198" >
    <font-face
      
      font-family="PT Serif"
      
      font-weight="400"
      
      font-stretch="normal"
      
      units-per-em="1000"
      
      ascent="1039"
      
      descent="-286"
      
    />
      <missing-glyph />

      

      
      <glyph glyph-name="uni21" unicode="&#x21;" d="M174 218L142 394L142 690Q164 701 187 701Q210 701 232 690L232 394L200 218L174 218M119 57Q119 87 138 105Q157 123 187 123Q218 123 237 105Q256 87 256 57Q256 28 237 10Q218-8 187-8Q157-8 138 10Q119 28 119 57Z"  horiz-adv-x="327" vert-adv-y="1000"  />

      
      <glyph glyph-name="uni22" unicode="&#x22;" d="M207 670Q212 683 222.50 691.50Q233 700 250 700Q281 700 292 670L260 504L240 504L207 670M87 670Q92 683 102.50 691.50Q113 700 130 700Q161 700 172 670L140 504L120 504L87 670Z"  horiz-adv-x="380" vert-adv-y="1000"  />

      
      <glyph glyph-name="uni23" unicode="&#x23;" d="M308 233L166 233L124 58L71 58L113 233L33 233L47 279L123 279L159 429L83 429L97 475L170 475L210 642L262 642L223 475L365 475L405 642L457 642L417 475L497 475L480 429L406 429L370 279L447 279L430 233L360 233L318 58L266 58L308 233M176 279L318 279L354 429L212 429L176 279Z"  horiz-adv-x="533" vert-adv-y="1000"  />

      
      <glyph glyph-name="uni24" unicode="&#x24;" d="M239-12Q209-12 181-7.50Q153-3 129.50 4.50Q106 12 87.50 21Q69 30 59 39Q60 49 61 65.50Q62 82 64 99Q66 116 68.50 132Q71 148 75 157L100 157L160 60Q173 52 194 46.50Q215 41 239 40L239 325Q235 325 233 327L201 342Q172 355 145 371Q118 387 97.50 409.50Q77 432 64.50 462Q52 492 52 533Q52 569 66 600Q80 631 104.50 655Q129 679 163.50 693.50Q198 708 239 711L239 760L291 760L291 711Q339 708 374.50 698Q410 688 436 676Q435 644 427.50 623Q420 602 412 586L386 586L336 654Q325 656 315 657Q305 658 291 659L291 392L320 379Q351 364 380.50 347.50Q410 331 433 308.50Q456 286 470 254Q484 222 484 175Q484 102 433 52Q382 2 291-9L291-70L239-70L239-12M394 168Q394 220 364 250.50Q334 281 291 301L291 45Q336 57 365 88.50Q394 120 394 168M142 551Q142 524 149.50 503.50Q157 483 170 467Q183 451 200.50 438.50Q218 426 239 415L239 659Q194 654 168 623.50Q142 593 142 551Z"  horiz-adv-x="533" vert-adv-y="1000"  />

      
      <glyph glyph-name="uni25" unicode="&#x25;" d="M675 710L710 679L125-7L91 25L675 710M52 542Q52 581 65 612Q78 643 101.50 665.50Q125 688 156.50 700Q188 712 226 712Q264 712 296 701.50Q328 691 351 670Q374 649 387 617Q400 585 400 542Q400 503 387 471.50Q374 440 351 418Q328 396 296 384Q264 372 226 372Q188 372 156.50 382.50Q125 393 101.50 414Q78 435 65 467Q52 499 52 542M136 542Q136 482 159 445.50Q182 409 226 409Q316 409 316 542Q316 674 226 674Q136 674 136 542M405 159Q405 198 418 229Q431 260 454.50 282.50Q478 305 509.50 317Q541 329 579 329Q617 329 649 318.50Q681 308 704 287Q727 266 740 234Q753 202 753 159Q753 120 740 88.50Q727 57 704 35Q681 13 649 1Q617-11 579-11Q541-11 509.50-0.50Q478 10 454.50 31Q431 52 418 84Q405 116 405 159M489 159Q489 99 512 62.50Q535 26 579 26Q669 26 669 159Q669 291 579 291Q489 291 489 159Z"  horiz-adv-x="807" vert-adv-y="1000"  />

      
      <glyph glyph-name="uni26" unicode="&#x26;" d="M540 123Q510 150 474.50 186.50Q439 223 406 261Q373 299 345 334Q317 369 301 392Q258 350 239 310.50Q220 271 220 218Q220 180 232.50 147.50Q245 115 267 91Q289 67 320 53.50Q351 40 387 40Q432 40 471 60.50Q510 81 540 123M282 583Q282 565 289 544.50Q296 524 307.50 504Q319 484 332.50 465Q346 446 359 431Q395 461 417.50 500.50Q440 540 435 594Q433 626 415 648Q397 670 358 670Q336 670 321.50 662.50Q307 655 298 642.50Q289 630 285.50 614.50Q282 599 282 583M697 0Q676 14 644 34.50Q612 55 574 92Q560 73 539 54.50Q518 36 489.50 21Q461 6 426-3Q391-12 350-12Q297-12 254 4Q211 20 181 47Q151 74 134.50 109Q118 144 118 182Q118 231 136 270.50Q154 310 179 339.50Q204 369 231 389.50Q258 410 276 423Q247 455 227 498Q207 541 207 578Q207 603 217 627.50Q227 652 246.50 670.50Q266 689 294.50 700.50Q323 712 359 712Q425 712 465.50 683.50Q506 655 506 601Q506 568 494.50 539.50Q483 511 465 487Q447 463 424.50 443Q402 423 380 406Q421 355 475 301Q529 247 589 193Q597 204 609 230Q621 256 631.50 291Q642 326 648.50 367.50Q655 409 652 450Q622 456 593 474L593 500L796 500L796 474Q769 457 730 450Q721 391 707 343Q693 295 678 258.50Q663 222 649.50 196.50Q636 171 628 159Q666 128 702.50 101.50Q739 75 784 49L839 25L839 0L697 0Z"  horiz-adv-x="869" vert-adv-y="1000"  />

      
      <glyph glyph-name="uni27" unicode="&#x27;" d="M87 670Q92 683 102.50 691.50Q113 700 130 700Q161 700 172 670L140 504L120 504L87 670Z"  horiz-adv-x="222" vert-adv-y="1000"  />

      
      <glyph glyph-name="uni28" unicode="&#x28;" d="M300-210Q249-173 205-129Q161-85 128.50-30Q96 25 77.50 92Q59 159 59 243Q59 325 78 391Q97 457 130 512Q163 567 207.50 613.50Q252 660 303 702L324 684Q284 641 251 596Q218 551 194.50 498Q171 445 158 382.50Q145 320 145 243Q145 168 159 104.50Q173 41 197.50-12.50Q222-66 254.50-110Q287-154 324-190L300-210Z"  horiz-adv-x="343" vert-adv-y="1000"  />

      
      <glyph glyph-name="uni29" unicode="&#x29;" d="M19-190Q56-154 88.50-108.50Q121-63 145-7.50Q169 48 183 113Q197 178 197 253Q197 330 184 391Q171 452 148 503Q125 554 92 598Q59 642 19 684L40 702Q91 663 135.50 619Q180 575 213 521Q246 467 265 401Q284 335 284 253Q284 170 266 101.50Q248 33 216-23.50Q184-80 139.50-126.50Q95-173 43-210L19-190Z"  horiz-adv-x="343" vert-adv-y="1000"  />

      
      <glyph glyph-name="uni2a" unicode="&#x2a;" d="M62 616Q59 623 61 633.50Q63 644 69 654.50Q75 665 83.50 673Q92 681 101 683L201 596Q201 588 198 581Q195 574 187 570L62 616M100 444Q92 445 84 452.50Q76 460 70 470.50Q64 481 61 492Q58 503 61 511L186 554Q201 546 201 530L100 444M271 389Q266 383 255.50 380Q245 377 233 377Q221 377 210.50 380Q200 383 195 388L218 518Q234 526 250 518L271 389M402 511Q406 504 403.50 493Q401 482 395 471.50Q389 461 381 453Q373 445 364 444L266 528Q266 537 269.50 542.50Q273 548 279 553L402 511M366 683Q374 682 382 674.50Q390 667 395.50 656.50Q401 646 403.50 635Q406 624 403 615L279 568Q265 578 265 594L366 683M194 737Q198 743 208.50 746.50Q219 750 231 750Q243 750 254 746.50Q265 743 270 737L248 607Q233 597 217 607L194 737Z"  horiz-adv-x="465" vert-adv-y="1000"  />

      
      <glyph glyph-name="uni2b" unicode="&#x2b;" d="M42 370L240 370L240 580L293 580L293 370L491 370L491 317L293 317L293 102L240 102L240 317L42 317L42 370Z"  horiz-adv-x="533" vert-adv-y="1000"  />

      
      <glyph glyph-name="uni2c" unicode="&#x2c;" d="M51-149Q70-142 87-127.50Q104-113 116.50-95Q129-77 135.50-55.50Q142-34 140-13Q128-2 108 9Q88 20 73 25Q68 44 72.50 62Q77 80 86 94Q95 108 106.50 116.50Q118 125 129 126Q164 121 190.50 95Q217 69 217 17Q217-11 207-41.50Q197-72 178-99Q159-126 132-147.50Q105-169 71-179L51-149Z"  horiz-adv-x="283" vert-adv-y="1000"  />

      
      <glyph glyph-name="uni2d" unicode="&#x2d;" d="M71 313L353 313L353 250L71 250L71 313Z"  horiz-adv-x="425" vert-adv-y="1000"  />

      
      <glyph glyph-name="uni2e" unicode="&#x2e;" d="M71 57Q71 87 90 105Q109 123 139 123Q170 123 189 105Q208 87 208 57Q208 28 189 10Q170-8 139-8Q109-8 90 10Q71 28 71 57Z"  horiz-adv-x="279" vert-adv-y="1000"  />

      
      <glyph glyph-name="uni2f" unicode="&#x2f;" d="M327 712L369 694L4-130L-37-111L327 712Z"  horiz-adv-x="344" vert-adv-y="1000"  />

      
      <glyph glyph-name="uni30" unicode="&#x30;" d="M35 350Q35 530 95 621Q155 712 267 712Q388 712 444 622.50Q500 533 500 350Q500 170 439.50 79Q379-12 261-12Q200-12 157 12.50Q114 37 87 83.50Q60 130 47.50 197Q35 264 35 350M131 350Q131 278 138 219Q145 160 160.50 117.50Q176 75 200.50 52Q225 29 260 29Q339 29 371.50 107Q404 185 404 350Q404 422 398 481Q392 540 376 582Q360 624 333.50 647Q307 670 267 670Q192 670 161.50 592.50Q131 515 131 350Z"  horiz-adv-x="533" vert-adv-y="1000"  />

      
      <glyph glyph-name="uni31" unicode="&#x31;" d="M425 0L133 0L133 29Q158 40 183.50 48.50Q209 57 235 63L235 554L239 613Q211 602 181 597.50Q151 593 119 594L114 618Q160 633 209 655.50Q258 678 300 712L325 712L325 63Q350 57 375 48.50Q400 40 425 29L425 0Z"  horiz-adv-x="533" vert-adv-y="1000"  />

      
      <glyph glyph-name="uni32" unicode="&#x32;" d="M133 505L108 505Q97 534 85.50 573Q74 612 66 647Q101 677 150 694.50Q199 712 256 712Q306 712 342 698Q378 684 401.50 660Q425 636 436 604.50Q447 573 447 539Q447 483 421 424Q395 365 356.50 309.50Q318 254 273 205Q228 156 190 119L148 80L148 76L204 82L376 82L425 194L450 194Q452 172 454 146Q456 120 457.50 93.50Q459 67 460 42.50Q461 18 461 0L48 0L48 32Q70 55 101.50 88Q133 121 167 161Q201 201 234.50 246Q268 291 294 337.50Q320 384 336.50 430Q353 476 353 518Q353 547 345.50 573Q338 599 323 618.50Q308 638 286.50 649Q265 660 237 660Q216 660 200 657Q184 654 165 648L133 505Z"  horiz-adv-x="533" vert-adv-y="1000"  />

      
      <glyph glyph-name="uni33" unicode="&#x33;" d="M256 35Q284 35 308 47.50Q332 60 350 81.50Q368 103 378.50 131Q389 159 389 190Q389 227 377.50 255Q366 283 346 301.50Q326 320 299.50 329.50Q273 339 242 339L177 339L177 366L345 591L379 626L379 630L325 624L156 624L117 522L92 522Q88 543 84.50 567Q81 591 78 614.50Q75 638 73 660Q71 682 71 700L462 700L462 669L295 446L252 402L252 400L286 407Q333 405 370 389Q407 373 432.50 346.50Q458 320 471.50 284.50Q485 249 485 207Q485 157 465 116.50Q445 76 411.50 47.50Q378 19 334.50 3.50Q291-12 243-12Q220-12 194-8.50Q168-5 143 2Q118 9 96.50 18Q75 27 60 39L88 129L108 129Q114 122 124.50 111Q135 100 146.50 88Q158 76 169 64Q180 52 188 43Q198 41 214 38Q230 35 256 35Z"  horiz-adv-x="533" vert-adv-y="1000"  />

      
      <glyph glyph-name="uni34" unicode="&#x34;" d="M477 0L217 0L217 29Q266 46 309 53L309 193L4 193L4 216L374 712L401 712L401 245L528 245L528 193L401 193L401 53Q440 45 477 29L477 0M309 502L320 574L317 574L278 502L110 271L70 238L141 245L309 245L309 502Z"  horiz-adv-x="533" vert-adv-y="1000"  />

      
      <glyph glyph-name="uni35" unicode="&#x35;" d="M431 755L456 755Q455 740 453.50 721.50Q452 703 449 684.50Q446 666 443 649Q440 632 436 621L190 621L166 428L231 428Q281 428 322.50 414.50Q364 401 393.50 374.50Q423 348 439.50 310Q456 272 456 223Q456 165 436 121Q416 77 383 47.50Q350 18 308 3Q266-12 221-12Q201-12 178-8.50Q155-5 132.50 2Q110 9 90 18.50Q70 28 56 39L85 129L105 129Q111 122 120 111Q129 100 138.50 88Q148 76 157.50 64Q167 52 175 43Q185 41 193.50 38Q202 35 220 35Q253 35 280.50 48Q308 61 328 83.50Q348 106 359 136Q370 166 370 201Q370 241 355 270.50Q340 300 314 318.50Q288 337 253.50 346Q219 355 181 354L110 353L150 700L388 700L431 755Z"  horiz-adv-x="533" vert-adv-y="1000"  />

      
      <glyph glyph-name="uni36" unicode="&#x36;" d="M502 211Q502 165 486 124.50Q470 84 441 53.50Q412 23 371 5.50Q330-12 280-12Q224-12 181 7.50Q138 27 108.50 62Q79 97 64 145Q49 193 49 250Q49 344 80 422.50Q111 501 162.50 561.50Q214 622 280.50 662Q347 702 419 718L430 688Q377 669 329.50 636.50Q282 604 244.50 560Q207 516 182 461.50Q157 407 151 344Q167 371 208 393.50Q249 416 303 416Q346 416 383 402Q420 388 446 362Q472 336 487 298Q502 260 502 211M406 203Q406 274 371.50 319Q337 364 275 364Q228 364 194.50 340.50Q161 317 147 288Q145 274 145 255Q145 236 145 225Q145 193 153.50 159.50Q162 126 179.50 98Q197 70 223.50 52Q250 34 285 34Q317 34 340 48.50Q363 63 377.50 87Q392 111 399 141.50Q406 172 406 203Z"  horiz-adv-x="533" vert-adv-y="1000"  />

      
      <glyph glyph-name="uni37" unicode="&#x37;" d="M111 521L86 521Q82 542 78 566Q74 590 71 614Q68 638 66.50 660Q65 682 65 700L479 700L479 671Q429 582 396 507Q363 432 339.50 355.50Q316 279 299 193.50Q282 108 265 0L165 0Q202 146 257 290Q312 434 384 580L414 628L362 623L150 623L111 521Z"  horiz-adv-x="533" vert-adv-y="1000"  />

      
      <glyph glyph-name="uni38" unicode="&#x38;" d="M49 157Q49 191 61 221.50Q73 252 94.50 276.50Q116 301 145.50 320Q175 339 210 351Q182 366 157.50 384Q133 402 115 425Q97 448 86.50 475.50Q76 503 76 537Q76 576 90 608Q104 640 129.50 663Q155 686 191.50 699Q228 712 273 712Q361 712 410 667.50Q459 623 459 553Q459 495 421 451.50Q383 408 322 380Q357 362 387 340Q417 318 438.50 292Q460 266 472.50 235.50Q485 205 485 170Q485 133 470.50 100Q456 67 427.50 42Q399 17 357.50 2.50Q316-12 262-12Q207-12 167 2Q127 16 100.50 39.50Q74 63 61.50 93.50Q49 124 49 157M397 153Q397 187 383.50 214.50Q370 242 347.50 263.50Q325 285 295.50 303Q266 321 235 336Q206 319 187 298Q168 277 156.50 254.50Q145 232 140 210Q135 188 135 169Q135 145 142.50 120.50Q150 96 166 77Q182 58 207.50 46Q233 34 270 34Q301 34 325 44.50Q349 55 365 72Q381 89 389 110.50Q397 132 397 153M162 550Q162 519 173.50 496Q185 473 204 454.50Q223 436 247.50 421Q272 406 298 393Q340 427 357 461Q374 495 374 536Q374 598 346.50 631.50Q319 665 271 665Q244 665 224 655Q204 645 190 629Q176 613 169 592.50Q162 572 162 550Z"  horiz-adv-x="533" vert-adv-y="1000"  />

      
      <glyph glyph-name="uni39" unicode="&#x39;" d="M47 487Q47 536 61.50 577Q76 618 104.50 648Q133 678 174.50 695Q216 712 270 712Q328 712 370.50 692.50Q413 673 441 638Q469 603 482 552.50Q495 502 495 441Q495 348 468 269Q441 190 394.50 130.50Q348 71 284.50 34Q221-3 148-12L130 17Q189 33 234.50 64Q280 95 312.50 137.50Q345 180 365 231.50Q385 283 393 340Q370 316 338.50 299.50Q307 283 253 283Q208 283 170 296.50Q132 310 105 336Q78 362 62.50 400Q47 438 47 487M143 488Q143 459 152 431.50Q161 404 178 382.50Q195 361 219 348Q243 335 273 335Q321 335 352.50 351.50Q384 368 399 393Q401 406 401 425.50Q401 445 401 456Q401 492 393.50 529.50Q386 567 370 597Q354 627 328 646Q302 665 266 665Q206 665 174.50 617.50Q143 570 143 488Z"  horiz-adv-x="533" vert-adv-y="1000"  />

      
      <glyph glyph-name="uni3a" unicode="&#x3a;" d="M119 442Q119 472 138 490Q157 508 187 508Q218 508 237 490Q256 472 256 442Q256 413 237 395Q218 377 187 377Q157 377 138 395Q119 413 119 442M119 57Q119 87 138 105Q157 123 187 123Q218 123 237 105Q256 87 256 57Q256 28 237 10Q218-8 187-8Q157-8 138 10Q119 28 119 57Z"  horiz-adv-x="327" vert-adv-y="1000"  />

      
      <glyph glyph-name="uni3b" unicode="&#x3b;" d="M124 442Q124 472 143 490Q162 508 192 508Q223 508 242 490Q261 472 261 442Q261 413 242 395Q223 377 192 377Q162 377 143 395Q124 413 124 442M104-149Q123-142 140-127.50Q157-113 169.50-95Q182-77 188.50-55.50Q195-34 193-13Q181-2 161 9Q141 20 126 25Q121 44 125.50 62Q130 80 139 94Q148 108 159.50 116.50Q171 125 182 126Q217 121 243.50 95Q270 69 270 17Q270-11 260-41.50Q250-72 231-99Q212-126 185-147.50Q158-169 124-179L104-149Z"  horiz-adv-x="332" vert-adv-y="1000"  />

      
      <glyph glyph-name="uni3c" unicode="&#x3c;" d="M44 324L44 355L429 590L454 546L204 395L118 355L203 324L468 168L428 103L44 324Z"  horiz-adv-x="533" vert-adv-y="1000"  />

      
      <glyph glyph-name="uni3d" unicode="&#x3d;" d="M42 450L492 450L492 397L42 397L42 450M42 290L492 290L492 237L42 237L42 290Z"  horiz-adv-x="533" vert-adv-y="1000"  />

      
      <glyph glyph-name="uni3e" unicode="&#x3e;" d="M490 369L490 338L105 103L81 147L331 298L417 338L332 369L67 525L106 590L490 369Z"  horiz-adv-x="533" vert-adv-y="1000"  />

      
      <glyph glyph-name="uni3f" unicode="&#x3f;" d="M127 519L102 519Q94 546 84 588.50Q74 631 70 670Q108 693 151.50 702.50Q195 712 258 712Q303 712 336.50 699.50Q370 687 392.50 665.50Q415 644 426.50 614Q438 584 438 549Q438 504 421.50 470.50Q405 437 380.50 410Q356 383 327 359.50Q298 336 273 310Q248 284 231.50 253Q215 222 215 180L195 180Q188 209 188 237Q188 273 199.50 300.50Q211 328 228 351Q245 374 265 394.50Q285 415 302 436.50Q319 458 330.50 482.50Q342 507 342 539Q342 561 335.50 582.50Q329 604 315.50 621.50Q302 639 281 649.50Q260 660 230 660Q198 660 178 655Q158 650 150 642L127 519M143 57Q143 87 162 105Q181 123 211 123Q242 123 261 105Q280 87 280 57Q280 28 261 10Q242-8 211-8Q181-8 162 10Q143 28 143 57Z"  horiz-adv-x="473" vert-adv-y="1000"  />

      
      <glyph glyph-name="uni40" unicode="&#x40;" d="M669 474Q706 491 744 490L693 204Q687 171 684.50 144Q682 117 684.50 97.50Q687 78 695.50 67.50Q704 57 721 57Q754 57 789 75.50Q824 94 853.50 129Q883 164 902 214Q921 264 921 326Q921 402 892 464Q863 526 812.50 569.50Q762 613 694.50 636.50Q627 660 550 660Q458 660 384.50 627.50Q311 595 259 538.50Q207 482 179 405.50Q151 329 151 242Q151 153 180 84.50Q209 16 261.50-31.50Q314-79 386.50-103.50Q459-128 546-128Q575-128 612-121Q649-114 679-100L695-144Q660-164 618-172Q576-180 525-180Q439-180 361-154Q283-128 223.50-76Q164-24 129 54Q94 132 94 236Q94 345 130 433Q166 521 228.50 583Q291 645 375 678.50Q459 712 555 712Q645 712 722.50 685.50Q800 659 857 609.50Q914 560 946 488.50Q978 417 978 326Q978 261 955.50 203Q933 145 894.50 101Q856 57 806 31Q756 5 701 5Q671 5 650 14.50Q629 24 618 45.50Q607 67 606.50 101Q606 135 617 183L613 183Q602 151 582.50 119.50Q563 88 538 62.50Q513 37 484.50 21Q456 5 427 5Q367 5 334.50 46.50Q302 88 302 157Q302 221 323.50 282Q345 343 381.50 391Q418 439 466 468Q514 497 567 497Q603 497 624 491Q645 485 669 474M652 426Q636 436 619.50 441Q603 446 577 446Q539 446 505 419.50Q471 393 446 352Q421 311 406.50 262.50Q392 214 392 169Q392 121 407 94Q422 67 464 67Q483 67 505 85.50Q527 104 548.50 134Q570 164 590.50 201.50Q611 239 627 277L652 426Z"  horiz-adv-x="1064" vert-adv-y="1000"  />

      
      <glyph glyph-name="uni41" unicode="&#x41;" d="M222 0L0 0L0 29Q36 45 72 53L325 712L354 712L607 53Q627 49 646.50 44Q666 39 683 29L683 0L427 0L427 29Q447 37 468 43Q489 49 509 53L441 236L202 236L136 53Q178 47 222 29L222 0M222 288L424 288L345 500L326 586L324 586L299 498L222 288Z"  horiz-adv-x="683" vert-adv-y="1000"  />

      
      <glyph glyph-name="uni42" unicode="&#x42;" d="M29 0L29 29Q69 48 111 53L111 646Q91 650 70 656.50Q49 663 29 671L29 700L135 700Q154 700 171.50 701Q189 702 208 703Q227 704 249 705Q271 706 299 706Q339 706 380.50 699.50Q422 693 455.50 675Q489 657 510 624.50Q531 592 531 540Q531 514 523 488Q515 462 498.50 439.50Q482 417 457 400Q432 383 398 375L398 371Q428 366 457.50 354Q487 342 510 321.50Q533 301 547.50 271Q562 241 562 199Q562 145 538 106Q514 67 475.50 42Q437 17 388 5.50Q339-6 289-6Q254-6 210-3Q166 0 125 0L29 0M296 46Q332 46 363.50 57Q395 68 417.50 87.50Q440 107 453 134.50Q466 162 466 194Q466 234 450.50 260.50Q435 287 408.50 302.50Q382 318 347.50 324Q313 330 276 330L201 330L201 54Q215 50 234.50 48Q254 46 296 46M251 382Q268 382 291.50 383.50Q315 385 330 387Q376 403 405.50 438.50Q435 474 435 522Q435 588 395.50 621Q356 654 290 654Q259 654 237 653Q215 652 201 650L201 382L251 382Z"  horiz-adv-x="615" vert-adv-y="1000"  />

      
      <glyph glyph-name="uni43" unicode="&#x43;" d="M547 182L573 182Q578 154 582 111.50Q586 69 584 29Q569 17 548 9.50Q527 2 503.50-3Q480-8 455.50-10Q431-12 409-12Q325-12 259 9.50Q193 31 147.50 75Q102 119 77.50 187.50Q53 256 53 350Q53 448 80 516.50Q107 585 153 628.50Q199 672 260 692Q321 712 388 712Q454 712 499 703.50Q544 695 578 678Q578 662 577 640.50Q576 619 574 595Q572 571 569 548Q566 525 563 506L537 506L485 650Q474 656 448.50 658Q423 660 398 660Q348 660 303.50 641.50Q259 623 225.50 584.50Q192 546 172 487.50Q152 429 152 350Q152 279 170 221.50Q188 164 222 123.50Q256 83 305 61.50Q354 40 416 40Q449 40 471 45Q493 50 500 58L547 182Z"  horiz-adv-x="644" vert-adv-y="1000"  />

      
      <glyph glyph-name="uni44" unicode="&#x44;" d="M29 0L29 29Q64 45 111 53L111 646Q88 651 67 657.50Q46 664 29 671L29 700L131 700Q148 700 171 701Q194 702 218.50 703.50Q243 705 265.50 706.50Q288 708 303 708Q473 708 564.50 617Q656 526 656 359Q656 280 633.50 212.50Q611 145 565 96Q519 47 448.50 19Q378-9 282-9Q267-9 248-7.50Q229-6 208-4.50Q187-3 165.50-1.50Q144 0 125 0L29 0M289 656Q263 656 239 655.50Q215 655 201 652L201 46Q206 45 219 44.50Q232 44 247 43.50Q262 43 275.50 43Q289 43 295 43Q364 43 412 69Q460 95 490.50 138.50Q521 182 535 239Q549 296 549 359Q549 408 535.50 460.50Q522 513 491.50 556.50Q461 600 411 628Q361 656 289 656Z"  horiz-adv-x="708" vert-adv-y="1000"  />

      
      <glyph glyph-name="uni45" unicode="&#x45;" d="M503 700Q502 660 499.50 619.50Q497 579 492 538L466 538L425 648L207 648L207 383L370 383L409 457L434 457Q440 358 434 255L409 255L370 331L207 331L207 52L437 52L486 172L511 172Q518 130 521 87Q524 44 522 0L29 0L29 29Q64 45 111 53L111 646Q91 650 70 656.50Q49 663 29 671L29 700L503 700Z"  horiz-adv-x="582" vert-adv-y="1000"  />

      
      <glyph glyph-name="uni46" unicode="&#x46;" d="M197 53Q241 47 283 29L283 0L29 0L29 29Q46 37 64 43Q82 49 101 53L101 646Q79 651 61 657.50Q43 664 29 671L29 700L498 700Q497 661 494.50 620Q492 579 487 538L461 538L420 648L197 648L197 363L370 363L411 437L434 437Q436 414 437 388.50Q438 363 438 337Q438 310 437 284Q436 258 434 235L411 235L370 312L197 312L197 53Z"  horiz-adv-x="544" vert-adv-y="1000"  />

      
      <glyph glyph-name="uni47" unicode="&#x47;" d="M609 48Q590 37 564.50 26.50Q539 16 510.50 7.50Q482-1 453.50-6.50Q425-12 400-12Q320-12 256 9.50Q192 31 147 75.50Q102 120 77.50 188Q53 256 53 350Q53 448 81.50 517Q110 586 157.50 629.50Q205 673 265.50 692.50Q326 712 389 712Q455 712 500.50 703.50Q546 695 580 678Q580 663 579 641Q578 619 576 595Q574 571 571 547.50Q568 524 565 506L539 506L487 650Q476 656 450 658Q424 660 399 660Q349 660 304 641.50Q259 623 225.50 584.50Q192 546 172 487.50Q152 429 152 350Q152 279 171.50 222Q191 165 225.50 124.50Q260 84 306.50 62Q353 40 407 40Q427 40 446 44Q465 48 481 53.50Q497 59 507.50 65Q518 71 522 75L522 277Q496 279 472.50 286Q449 293 426 301L426 330L671 330L671 301Q661 294 647 288Q633 282 609 277L609 48Z"  horiz-adv-x="688" vert-adv-y="1000"  />

      
      <glyph glyph-name="uni48" unicode="&#x48;" d="M282 0L29 0L29 29Q69 45 111 53L111 646Q64 653 29 671L29 700L282 700L282 671Q265 662 246 656Q227 650 207 646L207 385L521 385L521 646Q500 651 481.50 657Q463 663 446 671L446 700L699 700L699 671Q681 661 659.50 655.50Q638 650 617 646L617 53Q640 49 661 43Q682 37 699 29L699 0L446 0L446 29Q482 45 521 53L521 333L207 333L207 53Q227 49 246 43Q265 37 282 29L282 0Z"  horiz-adv-x="728" vert-adv-y="1000"  />

      
      <glyph glyph-name="uni49" unicode="&#x49;" d="M304 0L48 0L48 29Q87 47 128 53L128 646Q108 650 88 656.50Q68 663 48 671L48 700L304 700L304 671Q286 663 265 656.50Q244 650 224 646L224 53Q245 49 266 43Q287 37 304 29L304 0Z"  horiz-adv-x="352" vert-adv-y="1000"  />

      
      <glyph glyph-name="uni4a" unicode="&#x4a;" d="M39 700L293 700L293 671Q275 663 256 656.50Q237 650 217 646L217 86Q217 16 201-29Q185-74 161.50-101.50Q138-129 111.50-142Q85-155 63-160L52-145Q67-132 79.50-115.50Q92-99 101.50-74Q111-49 116-13Q121 23 121 75L121 646Q99 651 78 657Q57 663 39 671L39 700Z"  horiz-adv-x="341" vert-adv-y="1000"  />

      
      <glyph glyph-name="uni4b" unicode="&#x4b;" d="M382 700L603 700L603 671Q583 662 564 656Q545 650 527 646L326 380Q351 347 383.50 306Q416 265 451.50 221.50Q487 178 524.50 133.50Q562 89 598 49L646 25L646 0L521 0L487 24Q428 93 369.50 173Q311 253 256 335L207 335L207 53Q253 45 282 29L282 0L29 0L29 29Q69 45 111 53L111 646Q66 652 29 671L29 700L282 700L282 671Q266 664 247 657.50Q228 651 207 646L207 369L267 383L454 646Q434 651 416 657Q398 663 382 671L382 700Z"  horiz-adv-x="646" vert-adv-y="1000"  />

      
      <glyph glyph-name="uni4c" unicode="&#x4c;" d="M29 700L303 700L303 671Q279 662 255 655.50Q231 649 207 646L207 52L437 52L496 213L522 213Q525 192 527.50 164.50Q530 137 531.50 107.50Q533 78 533 50Q533 22 532 0L29 0L29 29Q53 40 73 45Q93 50 111 53L111 646Q88 650 67 656.50Q46 663 29 671L29 700Z"  horiz-adv-x="549" vert-adv-y="1000"  />

      
      <glyph glyph-name="uni4d" unicode="&#x4d;" d="M837 0L589 0L589 29Q609 37 629 42.50Q649 48 670 53L670 503L674 620L666 620L633 513L428 0L402 0L207 513L171 630L162 630L163 503L163 53Q182 49 201 43Q220 37 239 29L239 0L30 0L30 29Q49 37 69.50 43.50Q90 50 111 54L111 646Q90 650 69.50 656.50Q49 663 29 671L29 700L234 700L408 243L442 140L443 140L477 245L657 700L838 700L838 671Q820 663 801 656.50Q782 650 762 646L762 52Q783 48 801.50 42.50Q820 37 837 29L837 0Z"  horiz-adv-x="867" vert-adv-y="1000"  />

      
      <glyph glyph-name="uni4e" unicode="&#x4e;" d="M487 700L703 700L703 671Q661 643 621 631L621-12L564-12L201 539L162 617L159 617L168 539L168 64Q209 53 245 29L245 0L29 0L29 29Q47 40 67.50 48.50Q88 57 111 64L111 637Q91 645 71.50 654Q52 663 35 672L35 700L204 700L519 225L565 139L569 139L564 225L564 631Q543 640 523.50 650Q504 660 487 671L487 700Z"  horiz-adv-x="732" vert-adv-y="1000"  />

      
      <glyph glyph-name="uni4f" unicode="&#x4f;" d="M53 350Q53 428 74.50 494.50Q96 561 136.50 609.50Q177 658 236 685Q295 712 370 712Q445 712 504 685Q563 658 603.50 609.50Q644 561 665.50 494.50Q687 428 687 350Q687 272 665.50 205.50Q644 139 603.50 90.50Q563 42 504 15Q445-12 370-12Q295-12 236 15Q177 42 136.50 90.50Q96 139 74.50 205.50Q53 272 53 350M160 350Q160 286 173.50 229.50Q187 173 214 131Q241 89 282 64.50Q323 40 379 40Q430 40 468 64.50Q506 89 530.50 131Q555 173 567.50 229.50Q580 286 580 350Q580 414 567 470.50Q554 527 527 569Q500 611 459 635.50Q418 660 362 660Q307 660 268.50 635.50Q230 611 206 569Q182 527 171 470.50Q160 414 160 350Z"  horiz-adv-x="740" vert-adv-y="1000"  />

      
      <glyph glyph-name="uni50" unicode="&#x50;" d="M207 53Q234 50 258 43.50Q282 37 303 29L303 0L29 0L29 29Q49 39 70 44Q91 49 111 53L111 646Q88 650 68 656.50Q48 663 29 671L29 700L119 700Q159 700 206 704Q253 708 296 708Q345 708 392 697.50Q439 687 475.50 662Q512 637 534.50 595.50Q557 554 557 492Q557 433 534 391Q511 349 472.50 322Q434 295 385 282.50Q336 270 284 270Q279 270 268.50 270Q258 270 246 270.50Q234 271 223 272Q212 273 207 274L207 53M275 656Q251 656 236 655Q221 654 207 651L207 327Q212 325 221.50 324.50Q231 324 241.50 323Q252 322 262 322Q272 322 278 322Q313 322 344 331.50Q375 341 398.50 362Q422 383 436 415Q450 447 450 492Q450 574 403.50 615Q357 656 275 656Z"  horiz-adv-x="596" vert-adv-y="1000"  />

      
      <glyph glyph-name="uni51" unicode="&#x51;" d="M760-115Q720-151 678-176.50Q636-202 588-201Q547-201 502-186Q457-171 406-150Q355-129 297.50-106Q240-83 173-66L203-46Q225-43 246-43Q296-43 344.50-55Q393-67 442-81Q491-95 541-107Q591-119 643-119Q670-119 698-115Q726-111 755-101L760-115M53 350Q53 428 74.50 494.50Q96 561 136.50 609.50Q177 658 236 685Q295 712 370 712Q445 712 504 685Q563 658 603.50 609.50Q644 561 665.50 494.50Q687 428 687 350Q687 272 665.50 205.50Q644 139 603.50 90.50Q563 42 504 15Q445-12 370-12Q295-12 236 15Q177 42 136.50 90.50Q96 139 74.50 205.50Q53 272 53 350M160 350Q160 286 173.50 229.50Q187 173 214 131Q241 89 282 64.50Q323 40 379 40Q430 40 468 64.50Q506 89 530.50 131Q555 173 567.50 229.50Q580 286 580 350Q580 414 567 470.50Q554 527 527 569Q500 611 459 635.50Q418 660 362 660Q307 660 268.50 635.50Q230 611 206 569Q182 527 171 470.50Q160 414 160 350Z"  horiz-adv-x="740" vert-adv-y="1000"  />

      
      <glyph glyph-name="uni52" unicode="&#x52;" d="M207 53Q230 48 251 42.50Q272 37 292 29L292 0L29 0L29 29Q51 39 71 44Q91 49 111 53L111 646Q85 651 65 657.50Q45 664 29 671L29 700L117 700Q157 700 204.50 704Q252 708 297 708Q346 708 388.50 697Q431 686 462 662Q493 638 510.50 601Q528 564 528 512Q528 439 489.50 391Q451 343 385 322Q428 254 475 187Q522 120 573 54L627 25L627 0L506 0L468 28Q440 63 417 96.50Q394 130 374 164.50Q354 199 336.50 234.50Q319 270 301 310L207 310L207 53M275 656Q251 656 235.50 655Q220 654 207 651L207 352L279 352Q348 352 388.50 396Q429 440 429 512Q429 586 386 621Q343 656 275 656Z"  horiz-adv-x="637" vert-adv-y="1000"  />

      
      <glyph glyph-name="uni53" unicode="&#x53;" d="M150 69Q162 57 181 48.50Q200 40 238 40Q270 40 298 48.50Q326 57 346.50 73.50Q367 90 379 113.50Q391 137 391 167Q391 207 366.50 234Q342 261 305.50 282Q269 303 226 323Q183 343 146.50 370.50Q110 398 85.50 436.50Q61 475 61 533Q61 575 76 608Q91 641 118.50 664Q146 687 184 699.50Q222 712 269 712Q330 712 380.50 702.50Q431 693 460 679Q460 662 457.50 639.50Q455 617 451.50 593Q448 569 444 546.50Q440 524 436 507L410 507L370 644Q352 652 324.50 656Q297 660 266 660Q215 660 184 631.50Q153 603 153 552Q153 511 177.50 483Q202 455 239 433Q276 411 318.50 390.50Q361 370 398 343Q435 316 459.50 279Q484 242 484 187Q484 142 467.50 105Q451 68 420 42Q389 16 344 2Q299-12 242-12Q179-12 129 3Q79 18 58 35Q59 52 61.50 76Q64 100 67.50 125.50Q71 151 75 175Q79 199 83 216L109 216L150 69Z"  horiz-adv-x="536" vert-adv-y="1000"  />

      
      <glyph glyph-name="uni54" unicode="&#x54;" d="M450 0L169 0L169 29Q191 37 213.50 43Q236 49 262 53L262 648L109 648L56 505L31 505Q28 525 26 550.50Q24 576 22.50 602.50Q21 629 20 654.50Q19 680 19 700L600 700Q600 680 599 655Q598 630 596.50 603.50Q595 577 593.50 551.50Q592 526 589 505L563 505L511 648L358 648L358 53Q384 48 406.50 43Q429 38 450 29L450 0Z"  horiz-adv-x="619" vert-adv-y="1000"  />

      
      <glyph glyph-name="uni55" unicode="&#x55;" d="M10 700L264 700L264 671Q245 663 226 657Q207 651 188 646L188 237Q188 184 199.50 148.50Q211 113 233 91.50Q255 70 287.50 60.50Q320 51 361 51Q440 51 484 94.50Q528 138 528 238L528 637Q505 645 485 653.50Q465 662 449 671L449 700L662 700L662 671Q643 660 623.50 651Q604 642 584 637L584 236Q584 172 567 126Q550 80 519.50 50Q489 20 445.50 5.50Q402-9 349-9Q224-9 158 47.50Q92 104 92 221L92 646Q51 652 10 671L10 700Z"  horiz-adv-x="672" vert-adv-y="1000"  />

      
      <glyph glyph-name="uni56" unicode="&#x56;" d="M545 646Q521 651 500 657.50Q479 664 459 671L459 700L684 700L684 671Q655 655 612 646L386 0L331-12L76 646Q56 651 37 657.50Q18 664 0 671L0 700L265 700L265 671Q248 664 227 657.50Q206 651 183 646L354 189L375 109L377 109L397 191L545 646Z"  horiz-adv-x="684" vert-adv-y="1000"  />

      
      <glyph glyph-name="uni57" unicode="&#x57;" d="M796 646Q775 649 754 655.50Q733 662 710 671L710 700L934 700L934 671Q900 656 862 646L695 0L633-12L472 532L314 0L253-12L76 646Q56 651 37 657Q18 663 0 671L0 700L260 700L260 671Q241 664 221 657.50Q201 651 178 646L277 243L299 113L301 113L336 245L471 700L505 700L650 245L679 115L681 115L704 247L796 646Z"  horiz-adv-x="934" vert-adv-y="1000"  />

      
      <glyph glyph-name="uni58" unicode="&#x58;" d="M395 700L625 700L625 671Q608 664 589 657.50Q570 651 550 646L374 375L579 53Q627 45 661 29L661 0L395 0L395 29Q431 47 471 53L313 304L161 52Q182 49 202 44.50Q222 40 241 29L241 0L10 0L10 29Q29 39 47.50 44Q66 49 84 53L280 352L92 646Q72 652 52.50 658Q33 664 13 671L13 700L278 700L278 671Q263 665 244.50 659Q226 653 202 646L342 420L478 646Q437 655 395 671L395 700Z"  horiz-adv-x="670" vert-adv-y="1000"  />

      
      <glyph glyph-name="uni59" unicode="&#x59;" d="M424 700L644 700L644 671Q606 652 568 646L379 298L379 53Q418 48 455 29L455 0L201 0L201 29Q237 47 283 53L283 297L81 646Q58 650 38.50 656.50Q19 663 0 671L0 700L265 700L265 671Q250 665 231 658.50Q212 652 188 646L352 352L506 646Q483 651 462.50 657.50Q442 664 424 671L424 700Z"  horiz-adv-x="644" vert-adv-y="1000"  />

      
      <glyph glyph-name="uni5a" unicode="&#x5a;" d="M533 192L559 192Q562 172 564.50 147Q567 122 568.50 96Q570 70 570.50 45Q571 20 570 0L39 0L39 51L455 648L147 648L86 508L61 508Q58 529 55.50 554Q53 579 51.50 605Q50 631 49.50 655.50Q49 680 49 700L560 700L560 648L146 52L472 52L533 192Z"  horiz-adv-x="610" vert-adv-y="1000"  />

      
      <glyph glyph-name="uni5b" unicode="&#x5b;" d="M83 700L272 700L272 658L168 658L168-189L272-189L272-230L83-230L83 700Z"  horiz-adv-x="307" vert-adv-y="1000"  />

      
      <glyph glyph-name="uni5c" unicode="&#x5c;" d="M409-107L368-130L-47 690L-5 712L409-107Z"  horiz-adv-x="382" vert-adv-y="1000"  />

      
      <glyph glyph-name="uni5d" unicode="&#x5d;" d="M224-230L35-230L35-189L139-189L139 658L35 658L35 700L224 700L224-230Z"  horiz-adv-x="307" vert-adv-y="1000"  />

      
      <glyph glyph-name="uni5e" unicode="&#x5e;" d="M233 711L265 711L435 434L347 434L259 585L235 652L203 584L103 434L47 434L233 711Z"  horiz-adv-x="500" vert-adv-y="1000"  />

      
      <glyph glyph-name="uni5f" unicode="&#x5f;" d="M0-143L410-143L410-196L0-196L0-143Z"  horiz-adv-x="410" vert-adv-y="1000"  />

      
      <glyph glyph-name="uni60" unicode="&#x60;" d="M268 593L246 576L60 725L60 745Q66 750 79.50 754.50Q93 759 109 762Q125 765 139.50 766.50Q154 768 162 767L268 593Z"  horiz-adv-x="328" vert-adv-y="1000"  />

      
      <glyph glyph-name="uni61" unicode="&#x61;" d="M410 131Q410 109 411 93Q412 77 413 59L482 49L482 28Q457 15 426.50 5Q396-5 368-10L343-10Q333 13 331 40.50Q329 68 328 101L323 101Q319 81 307.50 60.50Q296 40 277.50 24Q259 8 234-2Q209-12 177-12Q116-12 77.50 25Q39 62 39 122Q39 168 57.50 197.50Q76 227 112 244Q148 261 201 268.50Q254 276 324 280Q328 323 326.50 357.50Q325 392 315.50 416.50Q306 441 287.50 454.50Q269 468 239 468Q225 468 207.50 466.50Q190 465 173 458L126 338L100 338Q90 368 82.50 400Q75 432 73 463Q111 486 157.50 499Q204 512 261 512Q312 512 342.50 497.50Q373 483 389 460Q405 437 410 409Q415 381 415 353Q415 293 412.50 237.50Q410 182 410 131M217 50Q242 50 261 60Q280 70 293 84Q306 98 314 112.50Q322 127 325 137L325 242Q267 242 230 236Q193 230 172 217Q151 204 143 184.50Q135 165 135 140Q135 97 157 73.50Q179 50 217 50Z"  horiz-adv-x="505" vert-adv-y="1000"  />

      
      <glyph glyph-name="uni62" unicode="&#x62;" d="M77 682L1 690L1 716Q32 729 70.50 737Q109 745 142 752L167 752L167 401L169 401Q186 452 226.50 482Q267 512 316 512Q407 512 455.50 450Q504 388 504 259Q504 127 437.50 59Q371-9 246-9Q221-9 196-5.50Q171-2 148 3Q125 8 106.50 15Q88 22 77 29L77 682M289 450Q241 450 211 417.50Q181 385 167 335L167 56Q185 46 211 40.50Q237 35 266 35Q332 35 370 92.50Q408 150 408 259Q408 298 401.50 333Q395 368 380.50 394Q366 420 343.50 435Q321 450 289 450Z"  horiz-adv-x="545" vert-adv-y="1000"  />

      
      <glyph glyph-name="uni63" unicode="&#x63;" d="M427 70Q409 35 368.50 11.50Q328-12 274-12Q215-12 171.50 6.50Q128 25 99 59.50Q70 94 55.50 142.50Q41 191 41 250Q41 377 103 444.50Q165 512 272 512Q321 512 359.50 503.50Q398 495 425 481Q422 448 414 407Q406 366 394 339L367 339L325 458Q318 463 309 465.50Q300 468 279 468Q211 468 174 418.50Q137 369 137 251Q137 213 147.50 177Q158 141 179.50 112.50Q201 84 233.50 67Q266 50 309 50Q344 50 370 60Q396 70 414 84L427 70Z"  horiz-adv-x="466" vert-adv-y="1000"  />

      
      <glyph glyph-name="uni64" unicode="&#x64;" d="M373 99Q368 77 356 57Q344 37 326.50 21.50Q309 6 286.50-3Q264-12 238-12Q139-12 90 51Q41 114 41 247Q41 375 103.50 442Q166 509 272 509Q309 509 330 505.50Q351 502 376 493L376 682L300 690L300 716Q329 728 367.50 737Q406 746 441 752L466 752L466 57L532 49L532 28Q503 14 472 4Q441-6 411-10L386-10L377 99L373 99M258 50Q307 50 336 81Q365 112 376 165L376 447Q359 457 336 461Q313 465 277 465Q209 465 173 405.50Q137 346 137 247Q137 206 144 170.50Q151 135 166 108Q181 81 203.50 65.50Q226 50 258 50Z"  horiz-adv-x="555" vert-adv-y="1000"  />

      
      <glyph glyph-name="uni65" unicode="&#x65;" d="M446 70Q438 53 421 38Q404 23 382 12Q360 1 334-5.50Q308-12 281-12Q222-12 177 6.50Q132 25 102 59.50Q72 94 56.50 142Q41 190 41 250Q41 378 100 445Q159 512 267 512Q302 512 336 502.50Q370 493 396.50 471Q423 449 439.50 412.50Q456 376 456 322Q456 305 454.50 287.50Q453 270 449 250L137 250Q137 208 147.50 171.50Q158 135 179 108Q200 81 232 65.50Q264 50 307 50Q342 50 378 60Q414 70 432 86L446 70M263 468Q206 468 176 429.50Q146 391 140 294L360 294Q361 303 361.50 311.50Q362 320 362 328Q362 392 338 430Q314 468 263 468Z"  horiz-adv-x="503" vert-adv-y="1000"  />

      
      <glyph glyph-name="uni66" unicode="&#x66;" d="M306 752Q315 752 327 751Q339 750 352 748.50Q365 747 377 744.50Q389 742 398 739Q395 706 389.50 677.50Q384 649 376 626L351 626L307 712Q278 712 257.50 706Q237 700 223.50 683Q210 666 203.50 634Q197 602 197 550L197 500L312 500L312 450L197 450L197 49Q249 43 293 25L293 0L41 0L41 25Q72 43 107 49L107 450L31 450L31 476Q66 498 107 509L107 544Q107 606 122 646.50Q137 687 164 710.50Q191 734 227.50 743Q264 752 306 752Z"  horiz-adv-x="342" vert-adv-y="1000"  />

      
      <glyph glyph-name="uni67" unicode="&#x67;" d="M247 512Q301 512 338 501.50Q375 491 400 469Q459 509 523 527Q531 516 534.50 500Q538 484 538 470L525 446L420 446Q445 410 445 351Q445 279 394.50 234Q344 189 247 189Q228 189 216 190Q204 191 189 193Q184 184 177.50 173Q171 162 171 150Q171 130 194 118.50Q217 107 251.50 98Q286 89 326.50 79.50Q367 70 402 53.50Q437 37 460.50 10.50Q484-16 485-58Q486-94 468.50-123Q451-152 420-171.50Q389-191 345.50-201.50Q302-212 250-212Q141-212 85.50-175Q30-138 30-82Q30-55 38.50-35Q47-15 63 0Q79 15 103 26.50Q127 38 158 48Q136 58 121.50 75.50Q107 93 107 118Q107 141 126.50 163.50Q146 186 166 199Q109 214 78.50 256Q48 298 48 351Q48 385 61 414.50Q74 444 99 466Q124 488 161 500Q198 512 247 512M395-81Q395-49 373.50-30Q352-11 320 1Q288 13 251 21Q214 29 182 39Q144 16 132-9.50Q120-35 120-62Q120-115 158-141.50Q196-168 268-168Q305-168 329.50-161Q354-154 368.50-142.50Q383-131 389-115Q395-99 395-81M138 351Q138 327 143.50 305.50Q149 284 161.50 268Q174 252 195 242.50Q216 233 247 233Q305 233 330 267Q355 301 355 351Q355 405 330.50 436.50Q306 468 247 468Q186 468 162 437.50Q138 407 138 351Z"  horiz-adv-x="526" vert-adv-y="1000"  />

      
      <glyph glyph-name="uni68" unicode="&#x68;" d="M570 0L354 0L354 25Q378 38 414 49L414 283Q414 361 392 405.50Q370 450 312 450Q286 450 265 440.50Q244 431 227 416Q210 401 198 381.50Q186 362 180 341L180 49Q196 45 210.50 40Q225 35 239 25L239 0L24 0L24 25Q55 41 90 49L90 682L14 690L14 716Q43 728 81.50 737Q120 746 155 752L180 752L180 399L181 399Q202 446 241.50 479Q281 512 337 512Q377 512 408.50 502.50Q440 493 461 469Q482 445 493 404.50Q504 364 504 302L504 49Q521 45 538 40Q555 35 570 25L570 0Z"  horiz-adv-x="587" vert-adv-y="1000"  />

      
      <glyph glyph-name="uni69" unicode="&#x69;" d="M263 0L41 0L41 25Q56 33 72 38.50Q88 44 107 49L107 442L41 450L41 476Q70 488 104 497Q138 506 172 512L197 512L197 49Q217 44 233 38.50Q249 33 263 25L263 0M88 670Q88 697 105.50 713Q123 729 152 729Q181 729 198 713Q215 697 215 670Q215 643 198 627.50Q181 612 152 612Q123 612 105.50 627.50Q88 643 88 670Z"  horiz-adv-x="301" vert-adv-y="1000"  />

      
      <glyph glyph-name="uni6a" unicode="&#x6a;" d="M106 442L40 450L40 476Q69 490 103.50 498.50Q138 507 171 512L196 512L196 43Q196-28 178-75Q160-122 136-151Q112-180 87-194Q62-208 47-212L35-193Q47-187 59.50-172Q72-157 82.50-130.50Q93-104 99.50-66Q106-28 106 24L106 442M87 670Q87 697 104.50 713Q122 729 151 729Q180 729 197 713Q214 697 214 670Q214 643 197 627.50Q180 612 151 612Q122 612 104.50 627.50Q87 643 87 670Z"  horiz-adv-x="288" vert-adv-y="1000"  />

      
      <glyph glyph-name="uni6b" unicode="&#x6b;" d="M300 500L493 500L493 474Q474 466 455.50 460Q437 454 417 450Q402 430 382.50 407Q363 384 343 361Q323 338 304.50 318Q286 298 273 285Q288 265 309.50 236.50Q331 208 356 176Q381 144 407.50 111Q434 78 460 49L516 25L516 0L392 0L365 24Q312 90 277 141.50Q242 193 213 238L180 248L180 49Q213 43 245 25L245 0L24 0L24 25Q57 41 90 49L90 682L14 690L14 716Q42 729 81 737Q120 745 155 752L180 752L180 274L206 274Q222 292 241 314Q260 336 279 359.50Q298 383 316 406Q334 429 349 450Q324 457 300 474L300 500Z"  horiz-adv-x="516" vert-adv-y="1000"  />

      
      <glyph glyph-name="uni6c" unicode="&#x6c;" d="M263 0L41 0L41 25Q74 41 107 49L107 682L31 690L31 716Q57 728 96 737Q135 746 172 752L197 752L197 49Q230 41 263 25L263 0Z"  horiz-adv-x="301" vert-adv-y="1000"  />

      
      <glyph glyph-name="uni6d" unicode="&#x6d;" d="M548 0L334 0L334 25Q344 31 358.50 37.50Q373 44 393 49L393 280Q393 320 389.50 352Q386 384 376.50 405.50Q367 427 349 438.50Q331 450 302 450Q280 450 261.50 441Q243 432 228.50 417Q214 402 203.50 383Q193 364 187 343L187 49Q203 44 217.50 38.50Q232 33 246 25L246 0L31 0L31 25Q45 32 62 38Q79 44 97 49L97 442L31 450L31 476Q63 490 96.50 498.50Q130 507 162 512L187 512L187 399L188 399Q204 446 242.50 479Q281 512 338 512Q362 512 384 507Q406 502 425 488.50Q444 475 457 451Q470 427 476 389Q494 444 534 478Q574 512 634 512Q671 512 698.50 502.50Q726 493 744 469Q762 445 770.50 404Q779 363 779 300L779 49Q813 43 845 25L845 0L630 0L630 25Q660 41 689 49L689 298Q689 334 685.50 362Q682 390 672 409.50Q662 429 644 439.50Q626 450 596 450Q548 450 521.50 417Q495 384 483 333L483 49Q518 39 548 25L548 0Z"  horiz-adv-x="863" vert-adv-y="1000"  />

      
      <glyph glyph-name="uni6e" unicode="&#x6e;" d="M577 0L362 0L362 25Q389 39 421 49L421 286Q421 362 399 406Q377 450 319 450Q294 450 272.50 441Q251 432 234.50 416.50Q218 401 206 381.50Q194 362 187 341L187 49Q218 43 247 25L247 0L31 0L31 25Q56 38 97 49L97 442L31 450L31 476Q57 487 91 496Q125 505 162 512L187 512L187 400L188 400Q209 446 248.50 479Q288 512 344 512Q384 512 415.50 502.50Q447 493 468 469Q489 445 500 404.50Q511 364 511 302L511 49Q551 42 577 25L577 0Z"  horiz-adv-x="594" vert-adv-y="1000"  />

      
      <glyph glyph-name="uni6f" unicode="&#x6f;" d="M41 250Q41 313 57.50 361.50Q74 410 105 443.50Q136 477 179.50 494.50Q223 512 276 512Q338 512 383 493Q428 474 456.50 439.50Q485 405 498.50 357Q512 309 512 250Q512 124 448 56Q384-12 276-12Q216-12 172 6.50Q128 25 99 59.50Q70 94 55.50 142.50Q41 191 41 250M137 250Q137 205 145.50 165Q154 125 172.50 95.50Q191 66 221 49Q251 32 293 32Q347 32 381.50 85Q416 138 416 250Q416 296 407.50 335.50Q399 375 381 404.50Q363 434 335 451Q307 468 268 468Q209 468 173 415Q137 362 137 250Z"  horiz-adv-x="553" vert-adv-y="1000"  />

      
      <glyph glyph-name="uni70" unicode="&#x70;" d="M253-200L31-200L31-175Q65-159 97-151L97 442L31 450L31 476Q63 490 96.50 498.50Q130 507 162 512L187 512L187 400L188 400Q208 451 244 481.50Q280 512 338 512Q427 512 476 453Q525 394 525 261Q525 198 508.50 147Q492 96 461.50 61Q431 26 387.50 7Q344-12 291-12Q254-12 233-7.50Q212-3 187 8L187-151Q203-153 219-158.50Q235-164 253-175L253-200M306 450Q257 450 228 419Q199 388 187 334L187 54Q205 43 227.50 37.50Q250 32 286 32Q319 32 345.50 49Q372 66 390.50 97Q409 128 419 169.50Q429 211 429 261Q429 302 422.50 336.50Q416 371 401.50 396.50Q387 422 363.50 436Q340 450 306 450Z"  horiz-adv-x="566" vert-adv-y="1000"  />

      
      <glyph glyph-name="uni71" unicode="&#x71;" d="M372 89Q358 49 323 18.50Q288-12 234-12Q138-12 89.50 51.50Q41 115 41 247Q41 377 105.50 443Q170 509 291 509Q345 509 394 499Q443 489 466 478L466-151Q483-154 499-159.50Q515-165 532-175L532-200L310-200L310-175Q341-159 376-151L376 89L372 89M258 50Q307 50 335.50 81Q364 112 376 164L376 451Q358 457 333.50 461Q309 465 277 465Q210 465 173.50 413Q137 361 137 249Q137 207 143 171Q149 135 163.50 108Q178 81 201 65.50Q224 50 258 50Z"  horiz-adv-x="548" vert-adv-y="1000"  />

      
      <glyph glyph-name="uni72" unicode="&#x72;" d="M244 425Q233 419 216.50 400.50Q200 382 187 346L187 49Q207 47 227 41.50Q247 36 267 25L267 0L31 0L31 25Q49 35 65 40Q81 45 97 49L97 442L31 450L31 476Q63 490 97 498.50Q131 507 162 512L187 512L187 406L191 406Q200 426 216.50 446Q233 466 254.50 482Q276 498 301.50 506.50Q327 515 354 512Q361 499 366.50 483.50Q372 468 377 451L377 425L244 425Z"  horiz-adv-x="384" vert-adv-y="1000"  />

      
      <glyph glyph-name="uni73" unicode="&#x73;" d="M295 114Q295 142 277.50 161.50Q260 181 233 198Q206 215 175.50 231Q145 247 118 268.50Q91 290 73.50 318Q56 346 56 387Q56 414 68.50 437Q81 460 102 476.50Q123 493 151 502.50Q179 512 211 512Q265 512 299.50 506Q334 500 366 489Q362 457 356.50 424.50Q351 392 341 358L316 358L278 460Q266 465 251 466.50Q236 468 220 468Q202 468 188.50 461.50Q175 455 165.50 445Q156 435 151 422Q146 409 146 396Q146 369 163.50 349.50Q181 330 208 313.50Q235 297 265.50 281Q296 265 323 245Q350 225 367.50 198.50Q385 172 385 135Q385 101 370.50 74Q356 47 330.50 28Q305 9 271.50-1.50Q238-12 200-12Q157-12 121-4.50Q85 3 46 17Q48 53 55 86.50Q62 120 73 151L98 151L142 42Q153 34 168.50 33Q184 32 197 32Q241 32 268 56Q295 80 295 114Z"  horiz-adv-x="433" vert-adv-y="1000"  />

      
      <glyph glyph-name="uni74" unicode="&#x74;" d="M15 476Q53 500 95 510L95 595Q108 606 125.50 614.50Q143 623 160 631L185 631L185 500L335 500L335 450L185 450L185 160Q185 100 204 75Q223 50 261 50Q279 50 306 52.50Q333 55 352 62L359 47Q351 38 336.50 28Q322 18 303.50 9Q285 0 263-6Q241-12 218-12Q158-12 126.50 22Q95 56 95 132L95 450L15 450L15 476Z"  horiz-adv-x="371" vert-adv-y="1000"  />

      
      <glyph glyph-name="uni75" unicode="&#x75;" d="M77 198Q77 261 80 321.50Q83 382 83 442L17 450L17 476Q49 488 82.50 497Q116 506 148 512L173 512Q173 437 170 363Q167 289 167 216Q167 177 171.50 146Q176 115 187.50 94Q199 73 219 61.50Q239 50 270 50Q315 50 345.50 82.50Q376 115 393 167L393 442L328 450L328 476Q359 488 392.50 497Q426 506 458 512L483 512L483 57L549 49L549 28Q520 15 490.50 5Q461-5 429-10L404-10L397 109L393 109Q388 88 375.50 66.50Q363 45 343 27.50Q323 10 297.50-1Q272-12 242-12Q202-12 171.50-2.50Q141 7 120 31Q99 55 88 95.50Q77 136 77 198Z"  horiz-adv-x="574" vert-adv-y="1000"  />

      
      <glyph glyph-name="uni76" unicode="&#x76;" d="M238-12L43 450Q14 460-10 474L-10 500L199 500L199 475Q186 468 172.50 461.50Q159 455 142 450L258 149L278 87L280 87L295 150L402 450Q386 454 372.50 460Q359 466 347 474L347 500L517 500L517 474Q507 467 492.50 461Q478 455 460 450L283 0L238-12Z"  horiz-adv-x="507" vert-adv-y="1000"  />

      
      <glyph glyph-name="uni77" unicode="&#x77;" d="M200-12L43 450Q29 455 15.50 460.50Q2 466-10 474L-10 500L198 500L198 475Q184 467 170 460.50Q156 454 141 450L228 158L241 86L243 86L258 160L366 490L396 500L511 159L529 86L531 86L546 159L623 450Q612 452 597.50 458Q583 464 568 474L568 500L738 500L738 474Q717 460 681 450L539 0L486-12L387 271L368 354L365 354L342 271L252 0L200-12Z"  horiz-adv-x="728" vert-adv-y="1000"  />

      
      <glyph glyph-name="uni78" unicode="&#x78;" d="M298 268L456 49Q470 44 483.50 38.50Q497 33 509 25L509 0L304 0L304 24Q318 32 330 38.50Q342 45 354 49L243 213L131 49Q145 44 157 38Q169 32 181 25L181 0L10 0L10 25Q38 42 66 49L215 248L65 450Q51 455 39.50 460.50Q28 466 16 474L16 500L217 500L217 475Q205 467 193.50 460.50Q182 454 168 450L272 300L374 450Q340 461 324 474L324 500L491 500L491 474Q472 461 435 450L298 268Z"  horiz-adv-x="519" vert-adv-y="1000"  />

      
      <glyph glyph-name="uni79" unicode="&#x79;" d="M42 450Q27 454 14.50 460Q2 466-11 474L-11 500L198 500L198 475Q177 461 141 450L269 154L288 92L290 92L305 155L400 450Q370 456 345 474L345 500L516 500L516 474Q495 460 459 450L303 0Q279-64 257.50-103.50Q236-143 214.50-166Q193-189 170.50-199.50Q148-210 122-215Q111-196 102.50-173Q94-150 88-129L101-105L205-105Q211-97 215.50-89.50Q220-82 225-71Q230-60 236-43Q242-26 250 0L42 450Z"  horiz-adv-x="505" vert-adv-y="1000"  />

      
      <glyph glyph-name="uni7a" unicode="&#x7a;" d="M423 171Q430 129 433.50 86.50Q437 44 435 0L43 0L43 25L328 456L139 456L95 338L70 338Q62 381 60.50 422.50Q59 464 59 500L435 500L435 474L149 44L344 44L398 171L423 171Z"  horiz-adv-x="488" vert-adv-y="1000"  />

      
      <glyph glyph-name="uni7b" unicode="&#x7b;" d="M135 111Q135 162 114 191Q93 220 55 220L55 250Q93 250 114 280.50Q135 311 135 355L135 594Q135 642 159 671Q183 700 231 700L321 700L321 658L273 658Q246 658 233.50 644Q221 630 221 598L221 365Q221 332 210.50 309Q200 286 183.50 271.50Q167 257 148 249.50Q129 242 111 240L111 234Q128 232 147.50 224Q167 216 183.50 200Q200 184 210.50 160.50Q221 137 221 105L221-129Q221-160 233-174.50Q245-189 274-189L321-189L321-230L231-230Q186-230 160.50-203.50Q135-177 135-125L135 111Z"  horiz-adv-x="348" vert-adv-y="1000"  />

      
      <glyph glyph-name="uni7c" unicode="&#x7c;" d="M93 700L145 700L145-130L93-130L93 700Z"  horiz-adv-x="237" vert-adv-y="1000"  />

      
      <glyph glyph-name="uni7d" unicode="&#x7d;" d="M238 360Q238 309 259 280Q280 251 318 251L318 221Q280 221 259 190.50Q238 160 238 116L238-124Q238-172 214-201Q190-230 142-230L52-230L52-189L101-189Q128-189 140.50-175Q153-161 153-129L153 106Q153 139 162 162Q171 185 185.50 199.50Q200 214 217.50 221.50Q235 229 253 231L253 237Q236 239 218 247Q200 255 185.50 271Q171 287 162 310.50Q153 334 153 366L153 598Q153 629 141 643.50Q129 658 100 658L52 658L52 700L143 700Q188 700 213 673.50Q238 647 238 595L238 360Z"  horiz-adv-x="348" vert-adv-y="1000"  />

      
      <glyph glyph-name="uni7e" unicode="&#x7e;" d="M58 322Q94 376 127 396.50Q160 417 190 417Q215 417 239 406.50Q263 396 286 383Q309 370 332.50 359.50Q356 349 381 349Q399 349 418.50 356.50Q438 364 458 383L471 362Q442 320 413.50 302.50Q385 285 358 285Q332 285 307.50 295.50Q283 306 259 319Q235 332 211 342.50Q187 353 163 353Q141 353 118.50 341Q96 329 73 298L58 322Z"  horiz-adv-x="530" vert-adv-y="1000"  />

      
      <glyph glyph-name="unia1" unicode="&#xa1;" d="M153 286L185 110L185-186Q164-197 140-197Q116-197 95-186L95 110L127 286L153 286M208 446Q208 417 189 399Q170 381 140 381Q109 381 90 399Q71 417 71 446Q71 476 90 494Q109 512 140 512Q170 512 189 494Q208 476 208 446Z"  horiz-adv-x="327" vert-adv-y="1000"  />

      
      <glyph glyph-name="unia2" unicode="&#xa2;" d="M480 70Q460 34 420 11.50Q380-11 326-12L326-170L273-170L273-8Q168 7 115 75.50Q62 144 62 250Q62 305 77.50 349.50Q93 394 121 427Q149 460 187.50 480Q226 500 273 508L273 660L326 660L326 512Q374 512 412.50 503.50Q451 495 478 481Q475 448 466.50 407Q458 366 446 339L421 339L380 458Q373 463 364 465.50Q355 468 335 468L325 468L325 53Q343 50 361 50Q396 50 422 60Q448 70 466 84L480 70M158 251Q158 194 187.50 143Q217 92 274 67L274 460Q221 444 189.50 394Q158 344 158 251Z"  horiz-adv-x="533" vert-adv-y="1000"  />

      
      <glyph glyph-name="unia3" unicode="&#xa3;" d="M30 381L115 381Q100 413 89 448Q78 483 78 534Q78 575 93 608Q108 641 135 664Q162 687 200 699.50Q238 712 285 712Q346 712 397 702Q448 692 477 678Q476 662 473.50 639.50Q471 617 467.50 593.50Q464 570 460 547Q456 524 452 507L427 507L387 644Q368 652 341 656Q314 660 283 660Q244 660 216.50 643Q189 626 178 595Q170 573 170 549Q171 498 183 458Q195 418 209 381L365 381L365 330L227 330Q234 305 238 280.50Q242 256 240 227Q239 193 226.50 162Q214 131 186 108L153 80L153 76L209 82L408 82L457 194L482 194Q484 172 486 146Q488 120 489.50 93.50Q491 67 492 42.50Q493 18 493 0L33 0L33 31Q97 59 128.50 98Q160 137 161 198Q161 209 160.50 218.50Q160 228 159 238Q153 292 138 330L30 330L30 381Z"  horiz-adv-x="533" vert-adv-y="1000"  />

      
      <glyph glyph-name="unia4" unicode="&#xa4;" d="M36 170L119 252L154 263Q140 280 134 301Q128 322 128 346Q128 369 134 390.50Q140 412 154 429L119 440L37 523L91 577L173 494L185 460Q202 473 222.50 480Q243 487 267 487Q291 486 312 479.50Q333 473 349 460L362 494L444 576L497 522L414 440L382 429Q405 395 405 346Q406 299 382 262L414 252L496 169L443 115L361 197L349 231Q333 220 312 213.50Q291 207 267 207Q243 207 222.50 213.50Q202 220 183 231L173 198L90 116L36 170M267 264Q303 264 327.50 287Q352 310 352 346Q352 382 327.50 405.50Q303 429 267 429Q231 430 206.50 406Q182 382 182 346Q182 310 206.50 287Q231 264 267 264Z"  horiz-adv-x="533" vert-adv-y="1000"  />

      
      <glyph glyph-name="unia5" unicode="&#xa5;" d="M359 700L579 700L579 671Q539 652 503 646L343 335L487 335L487 283L324 283L324 220L487 220L487 168L324 168L324 53Q363 48 400 29L400 0L146 0L146 29Q182 47 228 53L228 168L65 168L65 220L228 220L228 283L65 283L65 335L207 335L36 646Q13 650-6.50 656.50Q-26 663-45 671L-45 700L220 700L220 671Q205 665 186 658.50Q167 652 143 646L297 351L441 646Q418 651 397.50 657.50Q377 664 359 671L359 700Z"  horiz-adv-x="533" vert-adv-y="1000"  />

      
      <glyph glyph-name="unia6" unicode="&#xa6;" d="M93 190L145 190L145-130L93-130L93 190M145 380L93 380L93 700L145 700L145 380Z"  horiz-adv-x="237" vert-adv-y="1000"  />

      
      <glyph glyph-name="unia7" unicode="&#xa7;" d="M347 44Q347 74 325.50 92Q304 110 272 123.50Q240 137 203 149.50Q166 162 134 180.50Q102 199 80.50 228Q59 257 59 304Q59 354 97 390Q135 426 190 449Q169 459 151 471Q133 483 119.50 499.50Q106 516 98 537.50Q90 559 90 587Q90 614 102 637Q114 660 135.50 676.50Q157 693 187 702.50Q217 712 254 712Q308 712 347 706.50Q386 701 418 689Q416 673 414 661.50Q412 650 409 639Q406 628 402 616Q398 604 393 588L368 588L312 660Q300 665 289.50 666.50Q279 668 263 668Q220 668 200 645Q180 622 180 596Q180 566 201.50 546.50Q223 527 255 512Q287 497 324 483.50Q361 470 393 451Q425 432 446.50 405Q468 378 468 337Q468 308 456 284.50Q444 261 425 242Q406 223 383 208.50Q360 194 339 184Q359 175 377 164.50Q395 154 408.50 140Q422 126 429.50 108.50Q437 91 437 68Q437-2 384-42Q331-82 242-82Q159-82 80-53Q81-35 83.50-22.50Q86-10 89 1.50Q92 13 96 24.50Q100 36 105 52L130 52L194-27Q205-36 215.50-37Q226-38 240-38Q288-38 317.50-14Q347 10 347 44M378 313Q378 337 366 354.50Q354 372 334 384.50Q314 397 288.50 407.50Q263 418 236 429Q202 413 175.50 385.50Q149 358 149 326Q149 300 161.50 281Q174 262 194 248Q214 234 240.50 223Q267 212 294 202Q311 212 326 226Q341 240 352.50 254.50Q364 269 371 284Q378 299 378 313Z"  horiz-adv-x="527" vert-adv-y="1000"  />

      
      <glyph glyph-name="unia8" unicode="&#xa8;" d="M60 663Q60 687 75 701.50Q90 716 114 716Q138 716 153 701.50Q168 687 168 663Q168 640 153 626Q138 612 114 612Q90 612 75 626Q60 640 60 663M282 663Q282 687 297 701.50Q312 716 336 716Q360 716 375 701.50Q390 687 390 663Q390 640 375 626Q360 612 336 612Q312 612 297 626Q282 640 282 663Z"  horiz-adv-x="450" vert-adv-y="1000"  />

      
      <glyph glyph-name="unia9" unicode="&#xa9;" d="M51 290Q51 373 80.50 438.50Q110 504 159 549Q208 594 271.50 618Q335 642 404 642Q473 642 536.50 618Q600 594 648.50 549Q697 504 726.50 438.50Q756 373 756 290Q756 207 726.50 141.50Q697 76 648.50 31Q600-14 536.50-38Q473-62 404-62Q332-62 267.50-38Q203-14 155 31Q107 76 79 141.50Q51 207 51 290M103 290Q103 221 126.50 164.50Q150 108 191 68.50Q232 29 287 7Q342-15 404-15Q466-15 521 7Q576 29 616.50 68.50Q657 108 680.50 164.50Q704 221 704 290Q704 359 679 415.50Q654 472 612.50 511.50Q571 551 516.50 573Q462 595 404 595Q338 595 282.50 573Q227 551 187.50 511Q148 471 125.50 415Q103 359 103 290M510 206L535 206Q539 191 541 160.50Q543 130 540 106Q531 99 517.50 94.50Q504 90 489 87Q474 84 458 83Q442 82 429 82Q380 82 339.50 95.50Q299 109 269.50 135.50Q240 162 223.50 201Q207 240 207 291Q207 343 225.50 382Q244 421 273.50 447Q303 473 340.50 486.50Q378 500 416 500Q455 500 486 494.50Q517 489 537 479Q538 470 538 455.50Q538 441 537 425Q536 409 534 394Q532 379 529 369L504 369L474 452Q467 457 452 457.50Q437 458 423 458Q366 458 334.50 413.50Q303 369 303 291Q303 258 310 227.50Q317 197 332.50 173.50Q348 150 373 136.50Q398 123 433 123Q453 123 465.50 127Q478 131 482 135L510 206Z"  horiz-adv-x="807" vert-adv-y="1000"  />

      
      <glyph glyph-name="uniaa" unicode="&#xaa;" d="M99 605Q89 616 82 635.50Q75 655 74 676Q99 689 135.50 698.50Q172 708 234 708Q298 708 321.50 682Q345 656 345 607Q345 588 344.50 565.50Q344 543 343.50 521Q343 499 342.50 478.50Q342 458 342 442L392 432L392 406Q373 395 351.50 387.50Q330 380 307 378L290 378Q283 395 280.50 411.50Q278 428 277 445L273 445Q268 436 259 424Q250 412 235.50 401.50Q221 391 201 383.50Q181 376 154 376Q108 376 78.50 401.50Q49 427 49 471Q49 502 64.50 521.50Q80 541 107 552Q134 563 169.50 567.50Q205 572 245 572Q252 572 258.50 571.50Q265 571 272 571Q273 577 273 587.50Q273 598 273 603Q273 616 270 628Q267 640 259 649.50Q251 659 237.50 664.50Q224 670 202 670Q190 670 176 668Q162 666 148 661L126 605L99 605M182 422Q203 422 218 429Q233 436 243.50 445.50Q254 455 261 466Q268 477 272 486L272 538Q261 539 251 539Q241 539 231 539Q211 539 192.50 535.50Q174 532 160 524.50Q146 517 137.50 505Q129 493 129 476Q129 456 142.50 439Q156 422 182 422Z"  horiz-adv-x="430" vert-adv-y="1000"  />

      
      <glyph glyph-name="uniab" unicode="&#xab;" d="M218 259L387 464L412 445L306 266L418 77L394 57L218 259M24 259L237 466L263 446L123 265L269 76L243 55L24 259Z"  horiz-adv-x="471" vert-adv-y="1000"  />

      
      <glyph glyph-name="uniac" unicode="&#xac;" d="M43 387L468 387L468 198L406 198L406 324L43 324L43 387Z"  horiz-adv-x="510" vert-adv-y="1000"  />

      
      <glyph glyph-name="uniad" unicode="&#xad;" d="M71 313L353 313L353 250L71 250L71 313Z"  horiz-adv-x="425" vert-adv-y="1000"  />

      
      <glyph glyph-name="uniae" unicode="&#xae;" d="M83 451Q83 515 104.50 564.50Q126 614 162.50 648Q199 682 247.50 699.50Q296 717 350 717Q406 717 454.50 699.50Q503 682 539 648Q575 614 596 564.50Q617 515 617 451Q617 386 595.50 336.50Q574 287 537.50 253Q501 219 452.50 201.50Q404 184 350 184Q294 184 245.50 201.50Q197 219 161 253Q125 287 104 336.50Q83 386 83 451M130 451Q130 399 147.50 357.50Q165 316 195 286.50Q225 257 265 241.50Q305 226 350 226Q397 226 437.50 241.50Q478 257 507.50 286Q537 315 553.50 356.50Q570 398 570 451Q570 503 552.50 544.50Q535 586 505 615Q475 644 435 660Q395 676 350 675Q302 676 262 660Q222 644 192.50 615Q163 586 146.50 544.50Q130 503 130 451M316 342Q329 341 337.50 338.50Q346 336 353 333L353 309L229 309L229 333Q246 339 264 342L264 575Q253 576 245 578.50Q237 581 229 586L229 608L267 608Q285 608 310 610Q335 612 351 612Q373 612 393.50 607.50Q414 603 430 592.50Q446 582 455 566Q464 550 464 528Q464 497 442.50 479Q421 461 393 452Q411 423 427.50 395.50Q444 368 473 342L496 330L496 309L446 309L418 320Q393 350 378 382Q363 414 352 443L316 443L316 342M346 580Q335 580 328.50 579.50Q322 579 316 577L316 472L348 472Q408 472 406 528Q405 554 388.50 567Q372 580 346 580Z"  horiz-adv-x="700" vert-adv-y="1000"  />

      
      <glyph glyph-name="uniaf" unicode="&#xaf;" d="M60 637L60 689L313 689L313 637L60 637Z"  horiz-adv-x="373" vert-adv-y="1000"  />

      
      <glyph glyph-name="unib0" unicode="&#xb0;" d="M83 571Q83 602 94 628Q105 654 124.50 672.50Q144 691 170 701.50Q196 712 225 712Q254 712 280 703Q306 694 325 676.50Q344 659 355 632.50Q366 606 366 571Q366 538 355 512Q344 486 325 467.50Q306 449 280 439.50Q254 430 225 430Q196 430 170 439.50Q144 449 124.50 467.50Q105 486 94 512Q83 538 83 571M139 571Q139 530 164.50 504.50Q190 479 225 479Q263 479 287 503Q311 527 311 571Q311 613 287 638Q263 663 225 663Q187 663 163 638Q139 613 139 571Z"  horiz-adv-x="424" vert-adv-y="1000"  />

      
      <glyph glyph-name="unib1" unicode="&#xb1;" d="M42 490L240 490L240 700L293 700L293 490L491 490L491 437L293 437L293 283L240 283L240 437L42 437L42 490M42 230L491 230L491 177L42 177L42 230Z"  horiz-adv-x="533" vert-adv-y="1000"  />

      
      <glyph glyph-name="unib2" unicode="&#xb2;" d="M109 639L86 639Q79 649 71.50 666Q64 683 57 702Q50 721 45.50 738Q41 755 40 765Q72 783 115.50 798Q159 813 209 813Q253 813 282 803.50Q311 794 328.50 778.50Q346 763 353 742Q360 721 360 697Q360 664 343.50 630.50Q327 597 297.50 565Q268 533 227.50 503Q187 473 139 448L139 442L170 449L307 449L351 516L373 516Q375 502 376.50 484.50Q378 467 379.50 448.50Q381 430 381.50 413.50Q382 397 382 386L43 386L43 419Q84 442 125.50 473.50Q167 505 200.50 541Q234 577 255 614Q276 651 276 684Q276 722 259 743.50Q242 765 192 765Q154 765 129 750L109 639Z"  horiz-adv-x="431" vert-adv-y="1000"  />

      
      <glyph glyph-name="unib3" unicode="&#xb3;" d="M207 423Q232 423 249 430Q266 437 277 448Q288 459 293 472.50Q298 486 298 499Q298 542 274 560Q250 578 194 578L161 578L161 604L247 713L291 755L291 757L229 753L140 753L104 661L82 661Q76 674 71 693.50Q66 713 62.50 734Q59 755 56.50 774Q54 793 54 804L361 804L361 768L270 662L231 622L231 621L262 625Q286 625 307.50 617.50Q329 610 345.50 595.50Q362 581 372 559Q382 537 382 508Q382 443 330.50 410Q279 377 195 377Q154 377 111.50 390.50Q69 404 43 423L77 515L95 515Q100 510 106 500Q112 490 119 478.50Q126 467 132.50 455Q139 443 144 433Q153 430 168 426.50Q183 423 207 423Z"  horiz-adv-x="431" vert-adv-y="1000"  />

      
      <glyph glyph-name="unib4" unicode="&#xb4;" d="M177 767Q185 768 198 766.50Q211 765 225 762Q239 759 251 754.50Q263 750 269 745L269 726L82 575L60 593L177 767Z"  horiz-adv-x="329" vert-adv-y="1000"  />

      
      <glyph glyph-name="unib5" unicode="&#xb5;" d="M134 15L169-175L169-200Q121-214 77-200L77 442L17 450L17 476Q49 488 82.50 497Q116 506 148 512L173 512Q173 437 170 363Q167 289 167 216Q167 177 171.50 146Q176 115 187.50 94Q199 73 219 61.50Q239 50 270 50Q315 50 346 82.50Q377 115 394 167L394 442L328 450L328 476Q359 488 393 497Q427 506 459 512L484 512L484 57L550 49L550 28Q521 15 491 5Q461-5 429-10L404-10L397 109L393 109Q388 88 375.50 66.50Q363 45 343.50 27.50Q324 10 298.50-1Q273-12 243-12Q211-12 185.50-6Q160 0 140 15L134 15Z"  horiz-adv-x="574" vert-adv-y="1000"  />

      
      <glyph glyph-name="uni03BC" unicode="&#x03BC;" d="M134 15L169-175L169-200Q121-214 77-200L77 442L17 450L17 476Q49 488 82.50 497Q116 506 148 512L173 512Q173 437 170 363Q167 289 167 216Q167 177 171.50 146Q176 115 187.50 94Q199 73 219 61.50Q239 50 270 50Q315 50 346 82.50Q377 115 394 167L394 442L328 450L328 476Q359 488 393 497Q427 506 459 512L484 512L484 57L550 49L550 28Q521 15 491 5Q461-5 429-10L404-10L397 109L393 109Q388 88 375.50 66.50Q363 45 343.50 27.50Q324 10 298.50-1Q273-12 243-12Q211-12 185.50-6Q160 0 140 15L134 15Z"  horiz-adv-x="574" vert-adv-y="1000"  />

      
      <glyph glyph-name="unib6" unicode="&#xb6;" d="M376 94Q375 27 366-15.50Q357-58 340-83.50Q323-109 299.50-121Q276-133 247-139Q227-171 200.50-187.50Q174-204 148-212L136-192Q158-183 177-167.50Q196-152 209.50-127Q223-102 230.50-65Q238-28 238 24L238 310Q206 310 174.50 320Q143 330 117.50 352.50Q92 375 76 411.50Q60 448 60 500Q60 542 72.50 578.50Q85 615 109.50 642Q134 669 172 684.50Q210 700 261 700L451 700L451 670Q434 662 416.50 656Q399 650 376 646L376 94M259-116Q301-99 315-47Q329 5 329 94L329 651L285 651L285 24Q285-16 279-53Q273-90 259-116Z"  horiz-adv-x="511" vert-adv-y="1000"  />

      
      <glyph glyph-name="unib7" unicode="&#xb7;" d="M53 307Q53 337 72 355Q91 373 121 373Q152 373 171 355Q190 337 190 307Q190 278 171 260Q152 242 121 242Q91 242 72 260Q53 278 53 307Z"  horiz-adv-x="240" vert-adv-y="1000"  />

      
      <glyph glyph-name="unib8" unicode="&#xb8;" d="M117-68Q172-70 197-88.50Q222-107 223-139Q224-168 208.50-189.50Q193-211 169-225Q145-239 116-245.50Q87-252 60-251L60-221Q98-216 121-201Q144-186 143-155Q143-130 123-119Q103-108 61-105L98 1L143 1L117-68Z"  horiz-adv-x="284" vert-adv-y="1000"  />

      
      <glyph glyph-name="unib9" unicode="&#xb9;" d="M365 386L85 386L85 407Q112 418 136.50 427Q161 436 186 441L186 688L190 733Q166 726 136.50 723.50Q107 721 78 722L78 751Q120 760 159 776.50Q198 793 234 813L265 813L265 441Q291 435 316.50 427Q342 419 365 407L365 386Z"  horiz-adv-x="431" vert-adv-y="1000"  />

      
      <glyph glyph-name="uniba" unicode="&#xba;" d="M43 542Q43 581 56 612Q69 643 92.50 665.50Q116 688 147.50 700Q179 712 217 712Q255 712 287 701.50Q319 691 342 670Q365 649 378 617Q391 585 391 542Q391 503 378 471.50Q365 440 342 418Q319 396 287 384Q255 372 217 372Q179 372 147.50 382.50Q116 393 92.50 414Q69 435 56 467Q43 499 43 542M127 542Q127 482 150 445.50Q173 409 217 409Q307 409 307 542Q307 674 217 674Q127 674 127 542Z"  horiz-adv-x="435" vert-adv-y="1000"  />

      
      <glyph glyph-name="unibb" unicode="&#xbb;" d="M77 57L53 77L165 261L58 445L83 464L253 259L77 57M228 55L202 76L347 260L207 446L233 466L446 259L228 55Z"  horiz-adv-x="471" vert-adv-y="1000"  />

      
      <glyph glyph-name="unibc" unicode="&#xbc;" d="M347 282L67 282L67 303Q94 314 118.50 323Q143 332 168 337L168 584L172 629Q148 622 118.50 619.50Q89 617 60 618L60 647Q102 656 141 672.50Q180 689 216 709L247 709L247 337Q273 331 298.50 323Q324 315 347 303L347 282M753 710L788 679L203-7L169 25L753 710M836 0L625 0L625 21Q642 29 660 35Q678 41 698 45L698 117L454 117L454 141L741 427L777 427L777 164L871 164L871 117L777 117L777 45Q791 42 805 37Q819 32 836 21L836 0M698 294L708 337L705 337L670 294L559 180L523 157L586 164L698 164L698 294Z"  horiz-adv-x="938" vert-adv-y="1000"  />

      
      <glyph glyph-name="unibd" unicode="&#xbd;" d="M347 282L67 282L67 303Q94 314 118.50 323Q143 332 168 337L168 584L172 629Q148 622 118.50 619.50Q89 617 60 618L60 647Q102 656 141 672.50Q180 689 216 709L247 709L247 337Q273 331 298.50 323Q324 315 347 303L347 282M753 710L788 679L203-7L169 25L753 710M662 253L639 253Q632 263 624.50 280Q617 297 610 316Q603 335 598.50 352Q594 369 593 379Q625 397 668.50 412Q712 427 762 427Q806 427 835 417.50Q864 408 881.50 392.50Q899 377 906 356Q913 335 913 311Q913 278 896.50 244.50Q880 211 850.50 179Q821 147 780.50 117Q740 87 692 62L692 56L723 63L860 63L904 130L926 130Q928 116 929.50 98.50Q931 81 932.50 62.50Q934 44 934.50 27.50Q935 11 935 0L596 0L596 33Q637 56 678.50 87.50Q720 119 753.50 155Q787 191 808 228Q829 265 829 298Q829 336 812 357.50Q795 379 745 379Q707 379 682 364L662 253Z"  horiz-adv-x="1004" vert-adv-y="1000"  />

      
      <glyph glyph-name="unibe" unicode="&#xbe;" d="M805 710L840 679L255-7L221 25L805 710M888 0L677 0L677 21Q694 29 712 35Q730 41 750 45L750 117L506 117L506 141L793 427L829 427L829 164L923 164L923 117L829 117L829 45Q843 42 857 37Q871 32 888 21L888 0M750 294L760 337L757 337L722 294L611 180L575 157L638 164L750 164L750 294M232 319Q257 319 274 326Q291 333 302 344Q313 355 318 368.50Q323 382 323 395Q323 438 299 456Q275 474 219 474L186 474L186 500L272 609L316 651L316 653L254 649L165 649L129 557L107 557Q101 570 96 589.50Q91 609 87.50 630Q84 651 81.50 670Q79 689 79 700L386 700L386 664L295 558L256 518L256 517L287 521Q311 521 332.50 513.50Q354 506 370.50 491.50Q387 477 397 455Q407 433 407 404Q407 339 355.50 306Q304 273 220 273Q179 273 136.50 286.50Q94 300 68 319L102 411L120 411Q125 406 131 396Q137 386 144 374.50Q151 363 157.50 351Q164 339 169 329Q178 326 193 322.50Q208 319 232 319Z"  horiz-adv-x="991" vert-adv-y="1000"  />

      
      <glyph glyph-name="unibf" unicode="&#xbf;" d="M346-15L371-15Q379-42 389-84.50Q399-127 403-166Q365-189 321.50-198.50Q278-208 215-208Q170-208 136.50-195.50Q103-183 80.50-161.50Q58-140 46.50-110Q35-80 35-45Q35 0 51.50 33.50Q68 67 92.50 94Q117 121 146 144.50Q175 168 200 193.50Q225 219 241.50 250Q258 281 258 323L278 323Q290 275 284 239.50Q278 204 261.50 176Q245 148 222.50 125Q200 102 179.50 78Q159 54 145 27Q131 0 131-35Q131-57 137-78.50Q143-100 156.50-117.50Q170-135 191.50-145.50Q213-156 243-156Q275-156 295-151Q315-146 323-138L346-15M330 446Q330 417 311.50 399Q293 381 263 381Q232 381 213 399Q194 417 194 446Q194 476 213 494Q232 512 263 512Q293 512 311.50 494Q330 476 330 446Z"  horiz-adv-x="473" vert-adv-y="1000"  />

      
      <glyph glyph-name="unic0" unicode="&#xc0;" d="M222 0L0 0L0 29Q36 45 72 53L325 712L354 712L607 53Q627 49 646.50 44Q666 39 683 29L683 0L427 0L427 29Q447 37 468 43Q489 49 509 53L441 236L202 236L136 53Q178 47 222 29L222 0M222 288L424 288L345 500L326 586L324 586L299 498L222 288M370 769L352 750L127 841L127 861Q133 868 146 874.50Q159 881 174 885.50Q189 890 203 892Q217 894 225 893L370 769Z"  horiz-adv-x="683" vert-adv-y="1000"  />

      
      <glyph glyph-name="unic1" unicode="&#xc1;" d="M222 0L0 0L0 29Q36 45 72 53L325 712L354 712L607 53Q627 49 646.50 44Q666 39 683 29L683 0L427 0L427 29Q447 37 468 43Q489 49 509 53L441 236L202 236L136 53Q178 47 222 29L222 0M222 288L424 288L345 500L326 586L324 586L299 498L222 288M451 893Q460 894 474 892Q488 890 502.50 885.50Q517 881 529.50 874.50Q542 868 548 861L548 841L322 750L305 769L451 893Z"  horiz-adv-x="683" vert-adv-y="1000"  />

      
      <glyph glyph-name="unic2" unicode="&#xc2;" d="M222 0L0 0L0 29Q36 45 72 53L325 712L354 712L607 53Q627 49 646.50 44Q666 39 683 29L683 0L427 0L427 29Q447 37 468 43Q489 49 509 53L441 236L202 236L136 53Q178 47 222 29L222 0M222 288L424 288L345 500L326 586L324 586L299 498L222 288M216 752L202 771L329 883Q334 886 341.50 886.50Q349 887 355 883L480 774L465 753L338 809L216 752Z"  horiz-adv-x="683" vert-adv-y="1000"  />

      
      <glyph glyph-name="unic3" unicode="&#xc3;" d="M222 0L0 0L0 29Q36 45 72 53L325 712L354 712L607 53Q627 49 646.50 44Q666 39 683 29L683 0L427 0L427 29Q447 37 468 43Q489 49 509 53L441 236L202 236L136 53Q178 47 222 29L222 0M222 288L424 288L345 500L326 586L324 586L299 498L222 288M501 821Q469 789 442.50 777Q416 765 391 765Q372 765 355.50 770.50Q339 776 323 782Q307 788 292 793.50Q277 799 261 799Q247 799 232.50 793.50Q218 788 202 774L183 803Q221 837 250.50 849.50Q280 862 305 862Q323 862 339.50 857Q356 852 371 846Q386 840 401 835Q416 830 432 830Q445 830 458.50 834.50Q472 839 488 850L501 821Z"  horiz-adv-x="683" vert-adv-y="1000"  />

      
      <glyph glyph-name="unic4" unicode="&#xc4;" d="M222 0L0 0L0 29Q36 45 72 53L325 712L354 712L607 53Q627 49 646.50 44Q666 39 683 29L683 0L427 0L427 29Q447 37 468 43Q489 49 509 53L441 236L202 236L136 53Q178 47 222 29L222 0M222 288L424 288L345 500L326 586L324 586L299 498L222 288M174 789Q174 813 190 825Q206 837 231 837Q255 837 271 825Q287 813 287 789Q287 766 271 754Q255 742 231 742Q206 742 190 754Q174 766 174 789M397 789Q397 813 413 825Q429 837 453 837Q478 837 494 825Q510 813 510 789Q510 766 494 754Q478 742 453 742Q429 742 413 754Q397 766 397 789Z"  horiz-adv-x="683" vert-adv-y="1000"  />

      
      <glyph glyph-name="unic5" unicode="&#xc5;" d="M230 788Q230 808 239 824Q248 840 264 851Q280 862 300.50 868Q321 874 345 874Q364 874 383.50 869Q403 864 419 854Q435 844 444.50 828.50Q454 813 454 791Q454 754 424.50 733Q395 712 355 709L607 53Q627 49 646.50 44Q666 39 683 29L683 0L427 0L427 29Q447 37 468 43Q489 49 509 53L441 236L202 236L136 53Q178 47 222 29L222 0L0 0L0 29Q36 45 72 53L324 710Q282 714 256 734Q230 754 230 788M222 288L424 288L345 500L326 586L324 586L299 498L222 288M286 788Q286 768 303.50 759Q321 750 340 750Q366 750 382 759Q398 768 398 787Q398 813 380 823Q362 833 343 833Q318 833 302 823.50Q286 814 286 788Z"  horiz-adv-x="683" vert-adv-y="1000"  />

      
      <glyph glyph-name="unic6" unicode="&#xc6;" d="M842 700Q841 660 839 619.50Q837 579 831 538L806 538L764 648L547 648L547 383L709 383L749 457L773 457Q781 358 773 255L749 255L709 331L547 331L547 52L777 52L825 172L851 172Q857 130 860.50 87Q864 44 862 0L369 0L369 29Q404 45 451 53L451 256L255 256L139 53Q180 47 224 29L224 0L0 0L0 29Q36 45 72 53L426 652Q412 656 397 660.50Q382 665 368 671L368 700L842 700M285 308L451 308L451 611L449 611L408 518L285 308Z"  horiz-adv-x="921" vert-adv-y="1000"  />

      
      <glyph glyph-name="unic7" unicode="&#xc7;" d="M547 182L573 182Q578 154 582 111.50Q586 69 584 29Q567 16 543.50 8Q520 0 494-4.50Q468-9 441.50-10.50Q415-12 392-12L368-75Q428-76 456.50-97.50Q485-119 485-154Q485-184 467.50-206Q450-228 423.50-243Q397-258 365-265Q333-272 304-272L304-239Q344-233 371-217Q398-201 397-172Q396-144 374-131.50Q352-119 307-116L343-8Q205 7 129 93.50Q53 180 53 350Q53 448 80 516.50Q107 585 153 628.50Q199 672 260 692Q321 712 388 712Q454 712 499 703.50Q544 695 578 678Q578 662 577 640.50Q576 619 574 595Q572 571 569 548Q566 525 563 506L537 506L485 650Q474 656 448.50 658Q423 660 398 660Q348 660 303.50 641.50Q259 623 225.50 584.50Q192 546 172 487.50Q152 429 152 350Q152 279 170 221.50Q188 164 222 123.50Q256 83 305 61.50Q354 40 416 40Q449 40 471 45Q493 50 500 58L547 182Z"  horiz-adv-x="644" vert-adv-y="1000"  />

      
      <glyph glyph-name="unic8" unicode="&#xc8;" d="M503 700Q502 660 499.50 619.50Q497 579 492 538L466 538L425 648L207 648L207 383L370 383L409 457L434 457Q440 358 434 255L409 255L370 331L207 331L207 52L437 52L486 172L511 172Q518 130 521 87Q524 44 522 0L29 0L29 29Q64 45 111 53L111 646Q91 650 70 656.50Q49 663 29 671L29 700L503 700M356 769L338 750L113 841L113 861Q119 868 132 874.50Q145 881 160 885.50Q175 890 189 892Q203 894 211 893L356 769Z"  horiz-adv-x="582" vert-adv-y="1000"  />

      
      <glyph glyph-name="unic9" unicode="&#xc9;" d="M503 700Q502 660 499.50 619.50Q497 579 492 538L466 538L425 648L207 648L207 383L370 383L409 457L434 457Q440 358 434 255L409 255L370 331L207 331L207 52L437 52L486 172L511 172Q518 130 521 87Q524 44 522 0L29 0L29 29Q64 45 111 53L111 646Q91 650 70 656.50Q49 663 29 671L29 700L503 700M361 893Q370 894 384 892Q398 890 412.50 885.50Q427 881 439.50 874.50Q452 868 458 861L458 841L232 750L215 769L361 893Z"  horiz-adv-x="582" vert-adv-y="1000"  />

      
      <glyph glyph-name="unica" unicode="&#xca;" d="M503 700Q502 660 499.50 619.50Q497 579 492 538L466 538L425 648L207 648L207 383L370 383L409 457L434 457Q440 358 434 255L409 255L370 331L207 331L207 52L437 52L486 172L511 172Q518 130 521 87Q524 44 522 0L29 0L29 29Q64 45 111 53L111 646Q91 650 70 656.50Q49 663 29 671L29 700L503 700M175 752L161 771L288 883Q293 886 300.50 886.50Q308 887 314 883L439 774L424 753L297 809L175 752Z"  horiz-adv-x="582" vert-adv-y="1000"  />

      
      <glyph glyph-name="unicb" unicode="&#xcb;" d="M503 700Q502 660 499.50 619.50Q497 579 492 538L466 538L425 648L207 648L207 383L370 383L409 457L434 457Q440 358 434 255L409 255L370 331L207 331L207 52L437 52L486 172L511 172Q518 130 521 87Q524 44 522 0L29 0L29 29Q64 45 111 53L111 646Q91 650 70 656.50Q49 663 29 671L29 700L503 700M119 789Q119 813 135 825Q151 837 176 837Q200 837 216 825Q232 813 232 789Q232 766 216 754Q200 742 176 742Q151 742 135 754Q119 766 119 789M342 789Q342 813 358 825Q374 837 398 837Q423 837 439 825Q455 813 455 789Q455 766 439 754Q423 742 398 742Q374 742 358 754Q342 766 342 789Z"  horiz-adv-x="582" vert-adv-y="1000"  />

      
      <glyph glyph-name="unicc" unicode="&#xcc;" d="M304 0L48 0L48 29Q87 47 128 53L128 646Q108 650 88 656.50Q68 663 48 671L48 700L304 700L304 671Q286 663 265 656.50Q244 650 224 646L224 53Q245 49 266 43Q287 37 304 29L304 0M279 769L261 750L36 841L36 861Q42 868 55 874.50Q68 881 83 885.50Q98 890 112 892Q126 894 134 893L279 769Z"  horiz-adv-x="352" vert-adv-y="1000"  />

      
      <glyph glyph-name="unicd" unicode="&#xcd;" d="M304 0L48 0L48 29Q87 47 128 53L128 646Q108 650 88 656.50Q68 663 48 671L48 700L304 700L304 671Q286 663 265 656.50Q244 650 224 646L224 53Q245 49 266 43Q287 37 304 29L304 0M240 893Q249 894 263 892Q277 890 291.50 885.50Q306 881 318.50 874.50Q331 868 337 861L337 841L111 750L94 769L240 893Z"  horiz-adv-x="352" vert-adv-y="1000"  />

      
      <glyph glyph-name="unice" unicode="&#xce;" d="M304 0L48 0L48 29Q87 47 128 53L128 646Q108 650 88 656.50Q68 663 48 671L48 700L304 700L304 671Q286 663 265 656.50Q244 650 224 646L224 53Q245 49 266 43Q287 37 304 29L304 0M52 752L38 771L165 883Q170 886 177.50 886.50Q185 887 191 883L316 774L301 753L174 809L52 752Z"  horiz-adv-x="352" vert-adv-y="1000"  />

      
      <glyph glyph-name="unicf" unicode="&#xcf;" d="M304 0L48 0L48 29Q87 47 128 53L128 646Q108 650 88 656.50Q68 663 48 671L48 700L304 700L304 671Q286 663 265 656.50Q244 650 224 646L224 53Q245 49 266 43Q287 37 304 29L304 0M9 789Q9 813 25 825Q41 837 66 837Q90 837 106 825Q122 813 122 789Q122 766 106 754Q90 742 66 742Q41 742 25 754Q9 766 9 789M232 789Q232 813 248 825Q264 837 288 837Q313 837 329 825Q345 813 345 789Q345 766 329 754Q313 742 288 742Q264 742 248 754Q232 766 232 789Z"  horiz-adv-x="352" vert-adv-y="1000"  />

      
      <glyph glyph-name="unid0" unicode="&#xd0;" d="M22 384L111 384L111 646Q88 651 67 657.50Q46 664 29 671L29 700L131 700Q148 700 171 701Q194 702 218.50 703.50Q243 705 265.50 706.50Q288 708 303 708Q388 708 453.50 684.50Q519 661 564 616.50Q609 572 632.50 507Q656 442 656 359Q656 280 633.50 212.50Q611 145 565 96Q519 47 448.50 19Q378-9 282-9Q268-9 248.50-7.50Q229-6 208-4.50Q187-3 165.50-1.50Q144 0 125 0L29 0L29 29Q64 45 111 53L111 332L22 332L22 384M289 656Q263 656 239 655.50Q215 655 201 652L201 384L368 384L368 332L201 332L201 46Q206 45 219.50 44.50Q233 44 248 43.50Q263 43 276.50 43Q290 43 296 43Q365 43 413 69Q461 95 491 138.50Q521 182 535 239Q549 296 549 359Q549 408 535.50 460.50Q522 513 491.50 556.50Q461 600 411.50 628Q362 656 289 656Z"  horiz-adv-x="709" vert-adv-y="1000"  />

      
      <glyph glyph-name="unid1" unicode="&#xd1;" d="M487 700L703 700L703 671Q661 643 621 631L621-12L564-12L201 539L162 617L159 617L168 539L168 64Q209 53 245 29L245 0L29 0L29 29Q47 40 67.50 48.50Q88 57 111 64L111 637Q91 645 71.50 654Q52 663 35 672L35 700L204 700L519 225L565 139L569 139L564 225L564 631Q543 640 523.50 650Q504 660 487 671L487 700M525 821Q493 789 466.50 777Q440 765 415 765Q396 765 379.50 770.50Q363 776 347 782Q331 788 316 793.50Q301 799 285 799Q271 799 256.50 793.50Q242 788 226 774L207 803Q245 837 274.50 849.50Q304 862 329 862Q347 862 363.50 857Q380 852 395 846Q410 840 425 835Q440 830 456 830Q469 830 482.50 834.50Q496 839 512 850L525 821Z"  horiz-adv-x="732" vert-adv-y="1000"  />

      
      <glyph glyph-name="unid2" unicode="&#xd2;" d="M53 350Q53 428 74.50 494.50Q96 561 136.50 609.50Q177 658 236 685Q295 712 370 712Q445 712 504 685Q563 658 603.50 609.50Q644 561 665.50 494.50Q687 428 687 350Q687 272 665.50 205.50Q644 139 603.50 90.50Q563 42 504 15Q445-12 370-12Q295-12 236 15Q177 42 136.50 90.50Q96 139 74.50 205.50Q53 272 53 350M160 350Q160 286 173.50 229.50Q187 173 214 131Q241 89 282 64.50Q323 40 379 40Q430 40 468 64.50Q506 89 530.50 131Q555 173 567.50 229.50Q580 286 580 350Q580 414 567 470.50Q554 527 527 569Q500 611 459 635.50Q418 660 362 660Q307 660 268.50 635.50Q230 611 206 569Q182 527 171 470.50Q160 414 160 350M438 769L420 750L195 841L195 861Q201 868 214 874.50Q227 881 242 885.50Q257 890 271 892Q285 894 293 893L438 769Z"  horiz-adv-x="740" vert-adv-y="1000"  />

      
      <glyph glyph-name="unid3" unicode="&#xd3;" d="M53 350Q53 428 74.50 494.50Q96 561 136.50 609.50Q177 658 236 685Q295 712 370 712Q445 712 504 685Q563 658 603.50 609.50Q644 561 665.50 494.50Q687 428 687 350Q687 272 665.50 205.50Q644 139 603.50 90.50Q563 42 504 15Q445-12 370-12Q295-12 236 15Q177 42 136.50 90.50Q96 139 74.50 205.50Q53 272 53 350M160 350Q160 286 173.50 229.50Q187 173 214 131Q241 89 282 64.50Q323 40 379 40Q430 40 468 64.50Q506 89 530.50 131Q555 173 567.50 229.50Q580 286 580 350Q580 414 567 470.50Q554 527 527 569Q500 611 459 635.50Q418 660 362 660Q307 660 268.50 635.50Q230 611 206 569Q182 527 171 470.50Q160 414 160 350M422 893Q431 894 445 892Q459 890 473.50 885.50Q488 881 500.50 874.50Q513 868 519 861L519 841L293 750L276 769L422 893Z"  horiz-adv-x="740" vert-adv-y="1000"  />

      
      <glyph glyph-name="unid4" unicode="&#xd4;" d="M53 350Q53 428 74.50 494.50Q96 561 136.50 609.50Q177 658 236 685Q295 712 370 712Q445 712 504 685Q563 658 603.50 609.50Q644 561 665.50 494.50Q687 428 687 350Q687 272 665.50 205.50Q644 139 603.50 90.50Q563 42 504 15Q445-12 370-12Q295-12 236 15Q177 42 136.50 90.50Q96 139 74.50 205.50Q53 272 53 350M160 350Q160 286 173.50 229.50Q187 173 214 131Q241 89 282 64.50Q323 40 379 40Q430 40 468 64.50Q506 89 530.50 131Q555 173 567.50 229.50Q580 286 580 350Q580 414 567 470.50Q554 527 527 569Q500 611 459 635.50Q418 660 362 660Q307 660 268.50 635.50Q230 611 206 569Q182 527 171 470.50Q160 414 160 350M245 752L231 771L358 883Q363 886 370.50 886.50Q378 887 384 883L509 774L494 753L367 809L245 752Z"  horiz-adv-x="740" vert-adv-y="1000"  />

      
      <glyph glyph-name="unid5" unicode="&#xd5;" d="M53 350Q53 428 74.50 494.50Q96 561 136.50 609.50Q177 658 236 685Q295 712 370 712Q445 712 504 685Q563 658 603.50 609.50Q644 561 665.50 494.50Q687 428 687 350Q687 272 665.50 205.50Q644 139 603.50 90.50Q563 42 504 15Q445-12 370-12Q295-12 236 15Q177 42 136.50 90.50Q96 139 74.50 205.50Q53 272 53 350M160 350Q160 286 173.50 229.50Q187 173 214 131Q241 89 282 64.50Q323 40 379 40Q430 40 468 64.50Q506 89 530.50 131Q555 173 567.50 229.50Q580 286 580 350Q580 414 567 470.50Q554 527 527 569Q500 611 459 635.50Q418 660 362 660Q307 660 268.50 635.50Q230 611 206 569Q182 527 171 470.50Q160 414 160 350M529 821Q497 789 470.50 777Q444 765 419 765Q400 765 383.50 770.50Q367 776 351 782Q335 788 320 793.50Q305 799 289 799Q275 799 260.50 793.50Q246 788 230 774L211 803Q249 837 278.50 849.50Q308 862 333 862Q351 862 367.50 857Q384 852 399 846Q414 840 429 835Q444 830 460 830Q473 830 486.50 834.50Q500 839 516 850L529 821Z"  horiz-adv-x="740" vert-adv-y="1000"  />

      
      <glyph glyph-name="unid6" unicode="&#xd6;" d="M53 350Q53 428 74.50 494.50Q96 561 136.50 609.50Q177 658 236 685Q295 712 370 712Q445 712 504 685Q563 658 603.50 609.50Q644 561 665.50 494.50Q687 428 687 350Q687 272 665.50 205.50Q644 139 603.50 90.50Q563 42 504 15Q445-12 370-12Q295-12 236 15Q177 42 136.50 90.50Q96 139 74.50 205.50Q53 272 53 350M160 350Q160 286 173.50 229.50Q187 173 214 131Q241 89 282 64.50Q323 40 379 40Q430 40 468 64.50Q506 89 530.50 131Q555 173 567.50 229.50Q580 286 580 350Q580 414 567 470.50Q554 527 527 569Q500 611 459 635.50Q418 660 362 660Q307 660 268.50 635.50Q230 611 206 569Q182 527 171 470.50Q160 414 160 350M202 789Q202 813 218 825Q234 837 259 837Q283 837 299 825Q315 813 315 789Q315 766 299 754Q283 742 259 742Q234 742 218 754Q202 766 202 789M425 789Q425 813 441 825Q457 837 481 837Q506 837 522 825Q538 813 538 789Q538 766 522 754Q506 742 481 742Q457 742 441 754Q425 766 425 789Z"  horiz-adv-x="740" vert-adv-y="1000"  />

      
      <glyph glyph-name="unid7" unicode="&#xd7;" d="M88 204L228 344L90 483L127 520L266 382L406 522L443 485L303 345L446 202L408 164L265 307L125 167L88 204Z"  horiz-adv-x="533" vert-adv-y="1000"  />

      
      <glyph glyph-name="unid8" unicode="&#xd8;" d="M53 350Q53 428 74.50 494.50Q96 561 136.50 609.50Q177 658 236 685Q295 712 370 712Q419 712 460.50 700Q502 688 537 667L565 713L616 684L582 631Q633 582 660 510Q687 438 687 350Q687 272 665.50 205.50Q644 139 603.50 90.50Q563 42 504 15Q445-12 370-12Q322-12 280.50-0.50Q239 11 204 31L176-13L129 16L159 65Q107 114 80 187Q53 260 53 350M160 350Q160 290 172 237Q184 184 208 143L498 606Q472 632 438 646Q404 660 362 660Q307 660 268.50 635.50Q230 611 206 569Q182 527 171 470.50Q160 414 160 350M580 350Q580 410 568.50 461.50Q557 513 533 554L244 93Q270 67 303 53.50Q336 40 379 40Q430 40 468 64.50Q506 89 530.50 131Q555 173 567.50 229.50Q580 286 580 350Z"  horiz-adv-x="740" vert-adv-y="1000"  />

      
      <glyph glyph-name="unid9" unicode="&#xd9;" d="M10 700L264 700L264 671Q245 663 226 657Q207 651 188 646L188 237Q188 184 199.50 148.50Q211 113 233 91.50Q255 70 287.50 60.50Q320 51 361 51Q440 51 484 94.50Q528 138 528 238L528 637Q505 645 485 653.50Q465 662 449 671L449 700L662 700L662 671Q643 660 623.50 651Q604 642 584 637L584 236Q584 172 567 126Q550 80 519.50 50Q489 20 445.50 5.50Q402-9 349-9Q224-9 158 47.50Q92 104 92 221L92 646Q51 652 10 671L10 700M401 769L383 750L158 841L158 861Q164 868 177 874.50Q190 881 205 885.50Q220 890 234 892Q248 894 256 893L401 769Z"  horiz-adv-x="672" vert-adv-y="1000"  />

      
      <glyph glyph-name="unida" unicode="&#xda;" d="M10 700L264 700L264 671Q245 663 226 657Q207 651 188 646L188 237Q188 184 199.50 148.50Q211 113 233 91.50Q255 70 287.50 60.50Q320 51 361 51Q440 51 484 94.50Q528 138 528 238L528 637Q505 645 485 653.50Q465 662 449 671L449 700L662 700L662 671Q643 660 623.50 651Q604 642 584 637L584 236Q584 172 567 126Q550 80 519.50 50Q489 20 445.50 5.50Q402-9 349-9Q224-9 158 47.50Q92 104 92 221L92 646Q51 652 10 671L10 700M465 893Q474 894 488 892Q502 890 516.50 885.50Q531 881 543.50 874.50Q556 868 562 861L562 841L336 750L319 769L465 893Z"  horiz-adv-x="672" vert-adv-y="1000"  />

      
      <glyph glyph-name="unidb" unicode="&#xdb;" d="M10 700L264 700L264 671Q245 663 226 657Q207 651 188 646L188 237Q188 184 199.50 148.50Q211 113 233 91.50Q255 70 287.50 60.50Q320 51 361 51Q440 51 484 94.50Q528 138 528 238L528 637Q505 645 485 653.50Q465 662 449 671L449 700L662 700L662 671Q643 660 623.50 651Q604 642 584 637L584 236Q584 172 567 126Q550 80 519.50 50Q489 20 445.50 5.50Q402-9 349-9Q224-9 158 47.50Q92 104 92 221L92 646Q51 652 10 671L10 700M232 752L218 771L345 883Q350 886 357.50 886.50Q365 887 371 883L496 774L481 753L354 809L232 752Z"  horiz-adv-x="672" vert-adv-y="1000"  />

      
      <glyph glyph-name="unidc" unicode="&#xdc;" d="M10 700L264 700L264 671Q245 663 226 657Q207 651 188 646L188 237Q188 184 199.50 148.50Q211 113 233 91.50Q255 70 287.50 60.50Q320 51 361 51Q440 51 484 94.50Q528 138 528 238L528 637Q505 645 485 653.50Q465 662 449 671L449 700L662 700L662 671Q643 660 623.50 651Q604 642 584 637L584 236Q584 172 567 126Q550 80 519.50 50Q489 20 445.50 5.50Q402-9 349-9Q224-9 158 47.50Q92 104 92 221L92 646Q51 652 10 671L10 700M189 789Q189 813 205 825Q221 837 246 837Q270 837 286 825Q302 813 302 789Q302 766 286 754Q270 742 246 742Q221 742 205 754Q189 766 189 789M412 789Q412 813 428 825Q444 837 468 837Q493 837 509 825Q525 813 525 789Q525 766 509 754Q493 742 468 742Q444 742 428 754Q412 766 412 789Z"  horiz-adv-x="672" vert-adv-y="1000"  />

      
      <glyph glyph-name="unidd" unicode="&#xdd;" d="M424 700L644 700L644 671Q606 652 568 646L379 298L379 53Q418 48 455 29L455 0L201 0L201 29Q237 47 283 53L283 297L81 646Q58 650 38.50 656.50Q19 663 0 671L0 700L265 700L265 671Q250 665 231 658.50Q212 652 188 646L352 352L506 646Q483 651 462.50 657.50Q442 664 424 671L424 700M465 893Q474 894 488 892Q502 890 516.50 885.50Q531 881 543.50 874.50Q556 868 562 861L562 841L336 750L319 769L465 893Z"  horiz-adv-x="644" vert-adv-y="1000"  />

      
      <glyph glyph-name="unide" unicode="&#xde;" d="M207 53Q263 45 303 28L303 0L29 0L29 28Q49 39 70 44Q91 49 111 53L111 647Q70 655 31 672L31 700L287 700L287 672Q269 663 248 657Q227 651 207 647L207 598Q230 600 252.50 601Q275 602 297 602Q346 602 393 591.50Q440 581 476.50 556.50Q513 532 535 491.50Q557 451 557 391Q557 334 534 293.50Q511 253 472.50 226.50Q434 200 385 187.50Q336 175 284 175Q279 175 268.50 175Q258 175 246 175.50Q234 176 223 177Q212 178 207 179L207 53M275 550Q251 550 236 549Q221 548 207 544L207 231Q212 229 221.50 228.50Q231 228 241.50 227.50Q252 227 262 227Q272 227 278 227Q313 227 344 236.50Q375 246 398.50 266Q422 286 436 317Q450 348 450 391Q450 469 403.50 509.50Q357 550 275 550Z"  horiz-adv-x="595" vert-adv-y="1000"  />

      
      <glyph glyph-name="unidf" unicode="&#xdf;" d="M433 590Q433 612 424.50 633Q416 654 402 670.50Q388 687 370 697.50Q352 708 331 708Q304 708 280 702.50Q256 697 237.50 678Q219 659 208 623Q197 587 197 526L197 0L41 0L41 25Q72 43 107 49L107 450L31 450L31 476Q66 498 107 509L107 544Q107 606 129 646.50Q151 687 183.50 710.50Q216 734 254 743Q292 752 325 752Q379 752 416.50 737Q454 722 477.50 697Q501 672 511.50 640Q522 608 523 574Q485 569 455 559.50Q425 550 404 534Q383 518 372 494.50Q361 471 361 438Q361 407 378.50 384.50Q396 362 422.50 342.50Q449 323 480 304.50Q511 286 537.50 262.50Q564 239 581.50 209Q599 179 599 138Q599 68 551 28Q503-12 414-12Q331-12 252 17Q254 42 260.50 63.50Q267 85 276 102L301 102L366 40Q377 35 387.50 33.50Q398 32 412 32Q460 32 484.50 56Q509 80 509 114Q509 147 491.50 170Q474 193 447.50 212.50Q421 232 390 250.50Q359 269 332.50 293Q306 317 288.50 349Q271 381 271 427Q271 482 307.50 523Q344 564 433 590Z"  horiz-adv-x="638" vert-adv-y="1000"  />

      
      <glyph glyph-name="unie0" unicode="&#xe0;" d="M410 131Q410 109 411 93Q412 77 413 59L482 49L482 28Q457 15 426.50 5Q396-5 368-10L343-10Q333 13 331 40.50Q329 68 328 101L323 101Q319 81 307.50 60.50Q296 40 277.50 24Q259 8 234-2Q209-12 177-12Q116-12 77.50 25Q39 62 39 122Q39 168 57.50 197.50Q76 227 112 244Q148 261 201 268.50Q254 276 324 280Q328 323 326.50 357.50Q325 392 315.50 416.50Q306 441 287.50 454.50Q269 468 239 468Q225 468 207.50 466.50Q190 465 173 458L126 338L100 338Q90 368 82.50 400Q75 432 73 463Q111 486 157.50 499Q204 512 261 512Q312 512 342.50 497.50Q373 483 389 460Q405 437 410 409Q415 381 415 353Q415 293 412.50 237.50Q410 182 410 131M217 50Q242 50 261 60Q280 70 293 84Q306 98 314 112.50Q322 127 325 137L325 242Q267 242 230 236Q193 230 172 217Q151 204 143 184.50Q135 165 135 140Q135 97 157 73.50Q179 50 217 50M316 593L294 576L108 725L108 745Q114 750 127.50 754.50Q141 759 157 762Q173 765 187.50 766.50Q202 768 210 767L316 593Z"  horiz-adv-x="505" vert-adv-y="1000"  />

      
      <glyph glyph-name="unie1" unicode="&#xe1;" d="M410 131Q410 109 411 93Q412 77 413 59L482 49L482 28Q457 15 426.50 5Q396-5 368-10L343-10Q333 13 331 40.50Q329 68 328 101L323 101Q319 81 307.50 60.50Q296 40 277.50 24Q259 8 234-2Q209-12 177-12Q116-12 77.50 25Q39 62 39 122Q39 168 57.50 197.50Q76 227 112 244Q148 261 201 268.50Q254 276 324 280Q328 323 326.50 357.50Q325 392 315.50 416.50Q306 441 287.50 454.50Q269 468 239 468Q225 468 207.50 466.50Q190 465 173 458L126 338L100 338Q90 368 82.50 400Q75 432 73 463Q111 486 157.50 499Q204 512 261 512Q312 512 342.50 497.50Q373 483 389 460Q405 437 410 409Q415 381 415 353Q415 293 412.50 237.50Q410 182 410 131M217 50Q242 50 261 60Q280 70 293 84Q306 98 314 112.50Q322 127 325 137L325 242Q267 242 230 236Q193 230 172 217Q151 204 143 184.50Q135 165 135 140Q135 97 157 73.50Q179 50 217 50M305 767Q313 768 326 766.50Q339 765 353 762Q367 759 379 754.50Q391 750 397 745L397 726L210 575L188 593L305 767Z"  horiz-adv-x="505" vert-adv-y="1000"  />

      
      <glyph glyph-name="unie2" unicode="&#xe2;" d="M410 131Q410 109 411 93Q412 77 413 59L482 49L482 28Q457 15 426.50 5Q396-5 368-10L343-10Q333 13 331 40.50Q329 68 328 101L323 101Q319 81 307.50 60.50Q296 40 277.50 24Q259 8 234-2Q209-12 177-12Q116-12 77.50 25Q39 62 39 122Q39 168 57.50 197.50Q76 227 112 244Q148 261 201 268.50Q254 276 324 280Q328 323 326.50 357.50Q325 392 315.50 416.50Q306 441 287.50 454.50Q269 468 239 468Q225 468 207.50 466.50Q190 465 173 458L126 338L100 338Q90 368 82.50 400Q75 432 73 463Q111 486 157.50 499Q204 512 261 512Q312 512 342.50 497.50Q373 483 389 460Q405 437 410 409Q415 381 415 353Q415 293 412.50 237.50Q410 182 410 131M217 50Q242 50 261 60Q280 70 293 84Q306 98 314 112.50Q322 127 325 137L325 242Q267 242 230 236Q193 230 172 217Q151 204 143 184.50Q135 165 135 140Q135 97 157 73.50Q179 50 217 50M157 590L128 606L238 792Q243 795 250.50 795.50Q258 796 263 792L377 607L350 590L247 697L157 590Z"  horiz-adv-x="505" vert-adv-y="1000"  />

      
      <glyph glyph-name="unie3" unicode="&#xe3;" d="M410 131Q410 109 411 93Q412 77 413 59L482 49L482 28Q457 15 426.50 5Q396-5 368-10L343-10Q333 13 331 40.50Q329 68 328 101L323 101Q319 81 307.50 60.50Q296 40 277.50 24Q259 8 234-2Q209-12 177-12Q116-12 77.50 25Q39 62 39 122Q39 168 57.50 197.50Q76 227 112 244Q148 261 201 268.50Q254 276 324 280Q328 323 326.50 357.50Q325 392 315.50 416.50Q306 441 287.50 454.50Q269 468 239 468Q225 468 207.50 466.50Q190 465 173 458L126 338L100 338Q90 368 82.50 400Q75 432 73 463Q111 486 157.50 499Q204 512 261 512Q312 512 342.50 497.50Q373 483 389 460Q405 437 410 409Q415 381 415 353Q415 293 412.50 237.50Q410 182 410 131M217 50Q242 50 261 60Q280 70 293 84Q306 98 314 112.50Q322 127 325 137L325 242Q267 242 230 236Q193 230 172 217Q151 204 143 184.50Q135 165 135 140Q135 97 157 73.50Q179 50 217 50M396 672Q364 640 337.50 627.50Q311 615 288 615Q270 615 254 620.50Q238 626 223 632Q208 638 193.50 643.50Q179 649 164 649Q151 649 137.50 644Q124 639 108 625L89 653Q126 688 155 700Q184 712 207 712Q225 712 240.50 707Q256 702 270 696Q284 690 298.50 685Q313 680 328 680Q341 680 354 684.50Q367 689 383 700L396 672Z"  horiz-adv-x="505" vert-adv-y="1000"  />

      
      <glyph glyph-name="unie4" unicode="&#xe4;" d="M410 131Q410 109 411 93Q412 77 413 59L482 49L482 28Q457 15 426.50 5Q396-5 368-10L343-10Q333 13 331 40.50Q329 68 328 101L323 101Q319 81 307.50 60.50Q296 40 277.50 24Q259 8 234-2Q209-12 177-12Q116-12 77.50 25Q39 62 39 122Q39 168 57.50 197.50Q76 227 112 244Q148 261 201 268.50Q254 276 324 280Q328 323 326.50 357.50Q325 392 315.50 416.50Q306 441 287.50 454.50Q269 468 239 468Q225 468 207.50 466.50Q190 465 173 458L126 338L100 338Q90 368 82.50 400Q75 432 73 463Q111 486 157.50 499Q204 512 261 512Q312 512 342.50 497.50Q373 483 389 460Q405 437 410 409Q415 381 415 353Q415 293 412.50 237.50Q410 182 410 131M217 50Q242 50 261 60Q280 70 293 84Q306 98 314 112.50Q322 127 325 137L325 242Q267 242 230 236Q193 230 172 217Q151 204 143 184.50Q135 165 135 140Q135 97 157 73.50Q179 50 217 50M77 663Q77 687 92 701.50Q107 716 131 716Q155 716 170 701.50Q185 687 185 663Q185 640 170 626Q155 612 131 612Q107 612 92 626Q77 640 77 663M299 663Q299 687 314 701.50Q329 716 353 716Q377 716 392 701.50Q407 687 407 663Q407 640 392 626Q377 612 353 612Q329 612 314 626Q299 640 299 663Z"  horiz-adv-x="505" vert-adv-y="1000"  />

      
      <glyph glyph-name="unie5" unicode="&#xe5;" d="M410 131Q410 109 411 93Q412 77 413 59L482 49L482 28Q457 15 426.50 5Q396-5 368-10L343-10Q333 13 331 40.50Q329 68 328 101L323 101Q319 81 307.50 60.50Q296 40 277.50 24Q259 8 234-2Q209-12 177-12Q116-12 77.50 25Q39 62 39 122Q39 168 57.50 197.50Q76 227 112 244Q148 261 201 268.50Q254 276 324 280Q328 323 326.50 357.50Q325 392 315.50 416.50Q306 441 287.50 454.50Q269 468 239 468Q225 468 207.50 466.50Q190 465 173 458L126 338L100 338Q90 368 82.50 400Q75 432 73 463Q111 486 157.50 499Q204 512 261 512Q312 512 342.50 497.50Q373 483 389 460Q405 437 410 409Q415 381 415 353Q415 293 412.50 237.50Q410 182 410 131M217 50Q242 50 261 60Q280 70 293 84Q306 98 314 112.50Q322 127 325 137L325 242Q267 242 230 236Q193 230 172 217Q151 204 143 184.50Q135 165 135 140Q135 97 157 73.50Q179 50 217 50M143 683Q143 724 171.50 752Q200 780 243 780Q282 780 309.50 755Q337 730 337 686Q337 665 329 648Q321 631 308 619Q295 607 277.50 600Q260 593 242 593Q197 593 170 617Q143 641 143 683M195 685Q195 659 208.50 646.50Q222 634 239 634Q259 634 271.50 645.50Q284 657 284 682Q284 709 272 724Q260 739 240 739Q216 739 205.50 724Q195 709 195 685Z"  horiz-adv-x="505" vert-adv-y="1000"  />

      
      <glyph glyph-name="unie6" unicode="&#xe6;" d="M390 453Q401 465 414 476Q427 487 444.50 495Q462 503 485.50 507.50Q509 512 542 512Q577 512 611 502.50Q645 493 671.50 471Q698 449 714.50 412.50Q731 376 731 322Q731 305 729.50 287.50Q728 270 724 250L414 250Q414 208 424.50 171.50Q435 135 455.50 108Q476 81 507.50 65.50Q539 50 582 50Q599 50 617.50 52.50Q636 55 653 60Q670 65 684 71.50Q698 78 707 86L722 70Q714 53 697 38Q680 23 657.50 12Q635 1 609-5.50Q583-12 556-12Q529-12 499.50-7Q470-2 441.50 10.50Q413 23 389 44.50Q365 66 350 98Q342 75 326 55Q310 35 287.50 20Q265 5 237-3.50Q209-12 177-12Q116-12 77.50 25Q39 62 39 122Q39 168 57.50 197.50Q76 227 112 244Q148 261 201 268.50Q254 276 324 280Q327 311 327 338Q327 399 308 433.50Q289 468 239 468Q225 468 207.50 466.50Q190 465 173 458L126 338L100 338Q90 368 82.50 400Q75 432 73 463Q111 486 157.50 499Q204 512 261 512Q318 512 348 495.50Q378 479 390 453M217 50Q242 50 260.50 59.50Q279 69 292 82.50Q305 96 313 110Q321 124 324 134L324 242Q266 242 229 236Q192 230 171 217Q150 204 142.50 184.50Q135 165 135 140Q135 97 157 73.50Q179 50 217 50M538 468Q482 468 452 429.50Q422 391 416 294L635 294Q636 303 636.50 311.50Q637 320 637 328Q637 392 613 430Q589 468 538 468Z"  horiz-adv-x="778" vert-adv-y="1000"  />

      
      <glyph glyph-name="unie7" unicode="&#xe7;" d="M427 70Q408 34 367 11Q326-12 269-12L248-68Q303-70 327.50-88.50Q352-107 354-139Q355-168 339.50-189.50Q324-211 300-225Q276-239 247-245.50Q218-252 191-251L191-221Q229-216 252-201Q275-186 274-155Q273-130 253.50-119Q234-108 192-105L226-8Q133 6 87 75Q41 144 41 250Q41 377 103 444.50Q165 512 272 512Q321 512 359.50 503.50Q398 495 425 481Q422 448 414 407Q406 366 394 339L367 339L325 458Q318 463 309 465.50Q300 468 279 468Q211 468 174 418.50Q137 369 137 251Q137 213 147.50 177Q158 141 179.50 112.50Q201 84 233.50 67Q266 50 309 50Q344 50 370 60Q396 70 414 84L427 70Z"  horiz-adv-x="466" vert-adv-y="1000"  />

      
      <glyph glyph-name="unie8" unicode="&#xe8;" d="M446 70Q438 53 421 38Q404 23 382 12Q360 1 334-5.50Q308-12 281-12Q222-12 177 6.50Q132 25 102 59.50Q72 94 56.50 142Q41 190 41 250Q41 378 100 445Q159 512 267 512Q302 512 336 502.50Q370 493 396.50 471Q423 449 439.50 412.50Q456 376 456 322Q456 305 454.50 287.50Q453 270 449 250L137 250Q137 208 147.50 171.50Q158 135 179 108Q200 81 232 65.50Q264 50 307 50Q342 50 378 60Q414 70 432 86L446 70M263 468Q206 468 176 429.50Q146 391 140 294L360 294Q361 303 361.50 311.50Q362 320 362 328Q362 392 338 430Q314 468 263 468M325 593L303 576L117 725L117 745Q123 750 136.50 754.50Q150 759 166 762Q182 765 196.50 766.50Q211 768 219 767L325 593Z"  horiz-adv-x="503" vert-adv-y="1000"  />

      
      <glyph glyph-name="unie9" unicode="&#xe9;" d="M446 70Q438 53 421 38Q404 23 382 12Q360 1 334-5.50Q308-12 281-12Q222-12 177 6.50Q132 25 102 59.50Q72 94 56.50 142Q41 190 41 250Q41 378 100 445Q159 512 267 512Q302 512 336 502.50Q370 493 396.50 471Q423 449 439.50 412.50Q456 376 456 322Q456 305 454.50 287.50Q453 270 449 250L137 250Q137 208 147.50 171.50Q158 135 179 108Q200 81 232 65.50Q264 50 307 50Q342 50 378 60Q414 70 432 86L446 70M263 468Q206 468 176 429.50Q146 391 140 294L360 294Q361 303 361.50 311.50Q362 320 362 328Q362 392 338 430Q314 468 263 468M322 767Q330 768 343 766.50Q356 765 370 762Q384 759 396 754.50Q408 750 414 745L414 726L227 575L205 593L322 767Z"  horiz-adv-x="503" vert-adv-y="1000"  />

      
      <glyph glyph-name="uniea" unicode="&#xea;" d="M446 70Q438 53 421 38Q404 23 382 12Q360 1 334-5.50Q308-12 281-12Q222-12 177 6.50Q132 25 102 59.50Q72 94 56.50 142Q41 190 41 250Q41 378 100 445Q159 512 267 512Q302 512 336 502.50Q370 493 396.50 471Q423 449 439.50 412.50Q456 376 456 322Q456 305 454.50 287.50Q453 270 449 250L137 250Q137 208 147.50 171.50Q158 135 179 108Q200 81 232 65.50Q264 50 307 50Q342 50 378 60Q414 70 432 86L446 70M263 468Q206 468 176 429.50Q146 391 140 294L360 294Q361 303 361.50 311.50Q362 320 362 328Q362 392 338 430Q314 468 263 468M166 590L137 606L247 792Q252 795 259.50 795.50Q267 796 272 792L386 607L359 590L256 697L166 590Z"  horiz-adv-x="503" vert-adv-y="1000"  />

      
      <glyph glyph-name="unieb" unicode="&#xeb;" d="M446 70Q438 53 421 38Q404 23 382 12Q360 1 334-5.50Q308-12 281-12Q222-12 177 6.50Q132 25 102 59.50Q72 94 56.50 142Q41 190 41 250Q41 378 100 445Q159 512 267 512Q302 512 336 502.50Q370 493 396.50 471Q423 449 439.50 412.50Q456 376 456 322Q456 305 454.50 287.50Q453 270 449 250L137 250Q137 208 147.50 171.50Q158 135 179 108Q200 81 232 65.50Q264 50 307 50Q342 50 378 60Q414 70 432 86L446 70M263 468Q206 468 176 429.50Q146 391 140 294L360 294Q361 303 361.50 311.50Q362 320 362 328Q362 392 338 430Q314 468 263 468M93 663Q93 687 108 701.50Q123 716 147 716Q171 716 186 701.50Q201 687 201 663Q201 640 186 626Q171 612 147 612Q123 612 108 626Q93 640 93 663M315 663Q315 687 330 701.50Q345 716 369 716Q393 716 408 701.50Q423 687 423 663Q423 640 408 626Q393 612 369 612Q345 612 330 626Q315 640 315 663Z"  horiz-adv-x="503" vert-adv-y="1000"  />

      
      <glyph glyph-name="uniec" unicode="&#xec;" d="M263 0L41 0L41 25Q56 33 72 38.50Q88 44 107 49L107 442L41 450L41 476Q70 488 104 497Q138 506 172 512L197 512L197 49Q217 44 233 38.50Q249 33 263 25L263 0M202 593L180 576L-6 725L-6 745Q0 750 13.50 754.50Q27 759 43 762Q59 765 73.50 766.50Q88 768 96 767L202 593Z"  horiz-adv-x="301" vert-adv-y="1000"  />

      
      <glyph glyph-name="unied" unicode="&#xed;" d="M263 0L41 0L41 25Q56 33 72 38.50Q88 44 107 49L107 442L41 450L41 476Q70 488 104 497Q138 506 172 512L197 512L197 49Q217 44 233 38.50Q249 33 263 25L263 0M199 767Q207 768 220 766.50Q233 765 247 762Q261 759 273 754.50Q285 750 291 745L291 726L104 575L82 593L199 767Z"  horiz-adv-x="301" vert-adv-y="1000"  />

      
      <glyph glyph-name="uniee" unicode="&#xee;" d="M263 0L41 0L41 25Q56 33 72 38.50Q88 44 107 49L107 442L41 450L41 476Q70 488 104 497Q138 506 172 512L197 512L197 49Q217 44 233 38.50Q249 33 263 25L263 0M55 590L26 606L136 792Q141 795 148.50 795.50Q156 796 161 792L275 607L248 590L145 697L55 590Z"  horiz-adv-x="301" vert-adv-y="1000"  />

      
      <glyph glyph-name="unief" unicode="&#xef;" d="M263 0L41 0L41 25Q56 33 72 38.50Q88 44 107 49L107 442L41 450L41 476Q70 488 104 497Q138 506 172 512L197 512L197 49Q217 44 233 38.50Q249 33 263 25L263 0M-14 663Q-14 687 1 701.50Q16 716 40 716Q64 716 79 701.50Q94 687 94 663Q94 640 79 626Q64 612 40 612Q16 612 1 626Q-14 640-14 663M208 663Q208 687 223 701.50Q238 716 262 716Q286 716 301 701.50Q316 687 316 663Q316 640 301 626Q286 612 262 612Q238 612 223 626Q208 640 208 663Z"  horiz-adv-x="301" vert-adv-y="1000"  />

      
      <glyph glyph-name="unif0" unicode="&#xf0;" d="M158 604L272 650Q246 677 215.50 698.50Q185 720 151 733L151 750L212 750Q243 741 274.50 722.50Q306 704 335 676L445 722L464 679L371 641Q425 578 461 489Q497 400 497 289Q497 224 482.50 168.50Q468 113 438.50 73Q409 33 365 10.50Q321-12 262-12Q208-12 164.50 6.50Q121 25 90.50 59Q60 93 44 139.50Q28 186 28 242Q28 309 47 360Q66 411 96.50 444.50Q127 478 166 495Q205 512 245 512Q298 512 330.50 495.50Q363 479 386 455Q374 493 353.50 534Q333 575 304 613L178 561L158 604M124 242Q124 201 133.50 163.50Q143 126 162 97Q181 68 207.50 51Q234 34 269 34Q301 34 326 51Q351 68 367.50 99.50Q384 131 392.50 175Q401 219 401 274Q401 327 397.50 358Q394 389 391 402Q376 427 343.50 443.50Q311 460 264 460Q203 460 163.50 405.50Q124 351 124 242Z"  horiz-adv-x="535" vert-adv-y="1000"  />

      
      </font>
</defs>
</svg>
