<?xml version="1.0" standalone="no"?>
  <!DOCTYPE svg PUBLIC "-//W3C//DTD SVG 1.1//EN" "http://www.w3.org/Graphics/SVG/1.1/DTD/svg11.dtd" >
  <svg>
  <metadata>
  Created by font-carrier
  </metadata>
  <defs>
  <font id="RobotoCondensed-Regular" horiz-adv-x="2101" vert-adv-y="2101" >
    <font-face
      
      font-family="Roboto Condensed"
      
      font-weight="400"
      
      font-stretch="normal"
      
      units-per-em="2048"
      
      ascent="1900"
      
      descent="-500"
      
    />
      <missing-glyph />

      

      
      <glyph glyph-name="uni21" unicode="&#x21;" d="M332 411L173 411L160 1456L346 1456L332 411M257 199Q307 199 332.50 168.50Q358 138 358 93Q358 48 332.50 18.50Q307-11 257-11Q206-11 181 18.50Q156 48 156 93Q156 138 181 168.50Q206 199 257 199Z"  horiz-adv-x="503" vert-adv-y="2048"  />

      
      <glyph glyph-name="uni22" unicode="&#x22;" d="M277 1400L247 1042L136 1042L137 1536L277 1536L277 1400M547 1400L517 1042L406 1042L407 1536L547 1536L547 1400Z"  horiz-adv-x="655" vert-adv-y="2048"  />

      
      <glyph glyph-name="uni23" unicode="&#x23;" d="M666 410L460 410L392 0L258 0L326 410L131 410L131 547L349 547L408 901L195 901L195 1040L431 1040L500 1456L634 1456L565 1040L771 1040L840 1456L975 1456L906 1040L1068 1040L1068 901L883 901L824 547L1005 547L1005 410L801 410L733 0L598 0L666 410M483 547L689 547L748 901L542 901L483 547Z"  horiz-adv-x="1122" vert-adv-y="2048"  />

      
      <glyph glyph-name="uni24" unicode="&#x24;" d="M724 375Q724 466 674 528.50Q624 591 502 644Q323 709 241 813.50Q159 918 159 1079Q159 1243 238.50 1346.50Q318 1450 455 1472L455 1692L596 1692L596 1471Q736 1446 812.50 1328.50Q889 1211 889 1008L714 1008Q714 1147 663 1231Q612 1315 523 1315Q434 1315 384.50 1254Q335 1193 335 1082Q335 981 388.50 920.50Q442 860 563 809Q744 741 822.50 639.50Q901 538 901 377Q901 213 817 109Q733 5 576-16L576-208L437-208L437-16Q279 7 195 122Q111 237 111 429L287 429Q287 290 343 215Q399 140 501 140Q605 140 664.50 202.50Q724 265 724 375Z"  horiz-adv-x="1011" vert-adv-y="2048"  />

      
      <glyph glyph-name="uni25" unicode="&#x25;" d="M107 1176Q107 1306 177.50 1391.50Q248 1477 361 1477Q473 1477 544.50 1393Q616 1309 616 1172L616 1099Q616 968 545.50 884Q475 800 363 800Q251 800 179 884Q107 968 107 1105L107 1176M236 1099Q236 1019 271 969.50Q306 920 363 920Q418 920 452.50 968.50Q487 1017 487 1103L487 1176Q487 1257 452 1306.50Q417 1356 361 1356Q304 1356 270 1306Q236 1256 236 1173L236 1099M695 357Q695 488 766 572.50Q837 657 949 657Q1061 657 1133 573Q1205 489 1205 350L1205 279Q1205 147 1133 63Q1061-21 951-21Q839-21 767 63Q695 147 695 284L695 357M824 279Q824 198 859 148.50Q894 99 951 99Q1007 99 1041 149Q1075 199 1075 282L1075 357Q1075 438 1040 487Q1005 536 949 536Q894 536 859 487.50Q824 439 824 354L824 279M399 110L302 176L899 1314L997 1248L399 110Z"  horiz-adv-x="1296" vert-adv-y="2048"  />

      
      <glyph glyph-name="uni26" unicode="&#x26;" d="M103 391Q103 494 152.50 581.50Q202 669 342 785Q260 900 229.50 974.50Q199 1049 199 1122Q199 1289 284.50 1382.50Q370 1476 514 1476Q646 1476 731 1388Q816 1300 816 1168Q816 1082 782 1009Q748 936 662 861L559 773L815 404Q862 523 862 672L1020 672Q1020 420 918 256L1096 0L884 0L810 107Q753 48 672 14Q591-20 504-20Q321-20 212 94Q103 208 103 391M504 131Q621 131 719 241L430 662L400 637Q279 522 279 391Q279 275 339 203Q399 131 504 131M375 1128Q375 1074 402 1017Q429 960 472 896L549 962Q610 1011 632 1056.50Q654 1102 654 1168Q654 1234 614 1279Q574 1324 513 1324Q448 1324 411.50 1268Q375 1212 375 1128Z"  horiz-adv-x="1113" vert-adv-y="2048"  />

      
      <glyph glyph-name="uni27" unicode="&#x27;" d="M253 1425L232 1057L103 1057L104 1536L253 1536L253 1425Z"  horiz-adv-x="357" vert-adv-y="2048"  />

      
      <glyph glyph-name="uni28" unicode="&#x28;" d="M129 591Q129 853 200 1084Q271 1315 401 1489Q480 1594 553 1643L588 1521Q468 1406 391 1174.50Q314 943 307 660L306 579Q306 227 405-43Q480-246 588-357L553-470Q461-408 366-266Q129 91 129 591Z"  horiz-adv-x="643" vert-adv-y="2048"  />

      
      <glyph glyph-name="uni29" unicode="&#x29;" d="M513 581Q513 135 313-208Q205-392 89-470L54-357Q180-236 257 12.50Q334 261 336 557L336 593Q336 973 211 1273Q142 1437 54 1530L89 1643Q199 1569 302 1400Q513 1052 513 581Z"  horiz-adv-x="652" vert-adv-y="2048"  />

      
      <glyph glyph-name="uni2a" unicode="&#x2a;" d="M330 983L28 1073L74 1224L376 1112L367 1456L520 1456L510 1107L807 1217L853 1065L546 974L744 703L620 609L434 897L254 616L129 707L330 983Z"  horiz-adv-x="882" vert-adv-y="2048"  />

      
      <glyph glyph-name="uni2b" unicode="&#x2b;" d="M596 781L925 781L925 606L596 606L596 146L418 146L418 606L86 606L86 781L418 781L418 1206L596 1206L596 781Z"  horiz-adv-x="1017" vert-adv-y="2048"  />

      
      <glyph glyph-name="uni2c" unicode="&#x2c;" d="M134-290L29-218Q123-87 127 52L127 219L308 219L308 74Q308-27 258.50-128Q209-229 134-290Z"  horiz-adv-x="402" vert-adv-y="2048"  />

      
      <glyph glyph-name="uni2d" unicode="&#x2d;" d="M460 543L47 543L47 694L460 694L460 543Z"  horiz-adv-x="508" vert-adv-y="2048"  />

      
      <glyph glyph-name="uni2e" unicode="&#x2e;" d="M144 97Q144 145 172.50 177Q201 209 258 209Q315 209 344.50 177Q374 145 374 97Q374 51 344.50 20Q315-11 258-11Q201-11 172.50 20Q144 51 144 97Z"  horiz-adv-x="539" vert-adv-y="2048"  />

      
      <glyph glyph-name="uni2f" unicode="&#x2f;" d="M181-125L31-125L542 1456L691 1456L181-125Z"  horiz-adv-x="759" vert-adv-y="2048"  />

      
      <glyph glyph-name="uni30" unicode="&#x30;" d="M895 621Q895 299 801 139.50Q707-20 506-20Q311-20 215 133Q119 286 115 593L115 843Q115 1162 209.50 1319Q304 1476 504 1476Q701 1476 795.50 1327Q890 1178 895 876L895 621M718 874Q718 1105 667 1214.50Q616 1324 504 1324Q395 1324 344 1216.50Q293 1109 291 892L291 592Q291 362 344 246.50Q397 131 506 131Q614 131 665 240Q716 349 718 573L718 874Z"  horiz-adv-x="1011" vert-adv-y="2048"  />

      
      <glyph glyph-name="uni31" unicode="&#x31;" d="M644 0L466 0L466 1233L160 1096L160 1264L616 1463L644 1463L644 0Z"  horiz-adv-x="1011" vert-adv-y="2048"  />

      
      <glyph glyph-name="uni32" unicode="&#x32;" d="M931 0L117 0L117 133L532 683Q626 810 662.50 891.50Q699 973 699 1064Q699 1180 645 1252Q591 1324 503 1324Q392 1324 331.50 1247.50Q271 1171 271 1027L94 1027Q94 1228 204 1352Q314 1476 503 1476Q677 1476 777 1369.50Q877 1263 877 1086Q877 870 652 575L328 151L931 151L931 0Z"  horiz-adv-x="1011" vert-adv-y="2048"  />

      
      <glyph glyph-name="uni33" unicode="&#x33;" d="M343 818L456 818Q565 818 624 885Q683 952 683 1068Q683 1324 485 1324Q390 1324 336 1255Q282 1186 282 1074L106 1074Q106 1249 212.50 1362.50Q319 1476 485 1476Q657 1476 758 1368.50Q859 1261 859 1064Q859 963 806.50 875.50Q754 788 670 747Q876 671 876 406Q876 211 767.50 95.50Q659-20 484-20Q311-20 204.50 89.50Q98 199 98 384L275 384Q275 268 331 199.50Q387 131 484 131Q583 131 641.50 198Q700 265 700 402Q700 667 449 667L343 667L343 818Z"  horiz-adv-x="1011" vert-adv-y="2048"  />

      
      <glyph glyph-name="uni34" unicode="&#x34;" d="M787 489L949 489L949 338L787 338L787 0L610 0L610 338L60 338L60 447L601 1456L787 1456L787 489M256 489L610 489L610 1181L256 489Z"  horiz-adv-x="1011" vert-adv-y="2048"  />

      
      <glyph glyph-name="uni35" unicode="&#x35;" d="M189 730L252 1456L885 1456L885 1285L401 1285L367 888Q457 951 561 951Q731 951 828 819Q925 687 925 464Q925 238 819.50 109Q714-20 530-20Q366-20 263 87Q160 194 145 383L311 383Q326 258 382.50 194.50Q439 131 530 131Q633 131 691 220.50Q749 310 749 462Q749 605 686.50 695Q624 785 518 785Q430 785 377 739L330 692L189 730Z"  horiz-adv-x="1011" vert-adv-y="2048"  />

      
      <glyph glyph-name="uni36" unicode="&#x36;" d="M733 1457L733 1300L704 1300Q527 1296 427 1180.50Q327 1065 312 833Q409 955 560 955Q721 955 815.50 822.50Q910 690 910 475Q910 246 805.50 113Q701-20 525-20Q348-20 240 137Q132 294 132 554L132 625Q132 925 197 1103Q262 1281 388.50 1367.50Q515 1454 703 1457L733 1457M530 801Q458 801 397 746Q336 691 309 606L309 533Q309 356 371.50 244.50Q434 133 525 133Q624 133 680 224.50Q736 316 736 466Q736 614 680 707.50Q624 801 530 801Z"  horiz-adv-x="1011" vert-adv-y="2048"  />

      
      <glyph glyph-name="uni37" unicode="&#x37;" d="M920 1352L419 0L234 0L734 1304L85 1304L85 1456L920 1456L920 1352Z"  horiz-adv-x="1011" vert-adv-y="2048"  />

      
      <glyph glyph-name="uni38" unicode="&#x38;" d="M866 1076Q866 967 817.50 882Q769 797 687 749Q784 699 839 605.50Q894 512 894 393Q894 205 787.50 92.50Q681-20 505-20Q329-20 222.50 92.50Q116 205 116 393Q116 513 170.50 607.50Q225 702 319 750Q237 798 190 882.50Q143 967 143 1076Q143 1260 242.50 1368Q342 1476 505 1476Q667 1476 766.50 1369Q866 1262 866 1076M717 397Q717 522 658 597.50Q599 673 503 673Q405 673 348.50 597Q292 521 292 397Q292 271 347.50 201Q403 131 505 131Q607 131 662 201Q717 271 717 397M690 1073Q690 1184 638 1254Q586 1324 505 1324Q420 1324 370 1255Q320 1186 320 1073Q320 959 371 892Q422 825 505 825Q590 825 640 893Q690 961 690 1073Z"  horiz-adv-x="1011" vert-adv-y="2048"  />

      
      <glyph glyph-name="uni39" unicode="&#x39;" d="M699 622Q593 487 451 487Q292 487 198 621Q104 755 104 972Q104 1200 206.50 1338Q309 1476 486 1476Q670 1476 773.50 1316.50Q877 1157 877 875L877 820Q877 578 840.50 428Q804 278 733 186Q662 94 552 46.50Q442-1 277-1L277 155L308 155Q496 159 593.50 269.50Q691 380 699 622M481 640Q545 640 606 693.50Q667 747 701 834L701 912Q701 1093 638 1207.50Q575 1322 486 1322Q390 1322 333.50 1227.50Q277 1133 277 982Q277 831 332 735.50Q387 640 481 640Z"  horiz-adv-x="1011" vert-adv-y="2048"  />

      
      <glyph glyph-name="uni3a" unicode="&#x3a;" d="M138 97Q138 145 166.50 177Q195 209 252 209Q309 209 338.50 177Q368 145 368 97Q368 51 338.50 20Q309-11 252-11Q195-11 166.50 20Q138 51 138 97M139 980Q139 1028 167.50 1060Q196 1092 253 1092Q310 1092 339.50 1060Q369 1028 369 980Q369 934 339.50 903Q310 872 253 872Q196 872 167.50 903Q139 934 139 980Z"  horiz-adv-x="478" vert-adv-y="2048"  />

      
      <glyph glyph-name="uni3b" unicode="&#x3b;" d="M115 980Q115 1028 143.50 1060Q172 1092 229 1092Q286 1092 315.50 1060Q345 1028 345 980Q345 934 315.50 903Q286 872 229 872Q172 872 143.50 903Q115 934 115 980M148-290L43-218Q137-87 141 52L141 219L322 219L322 74Q322-27 272.50-128Q223-229 148-290Z"  horiz-adv-x="415" vert-adv-y="2048"  />

      
      <glyph glyph-name="uni3c" unicode="&#x3c;" d="M253 644L763 391L763 195L79 574L79 720L763 1098L763 902L253 644Z"  horiz-adv-x="913" vert-adv-y="2048"  />

      
      <glyph glyph-name="uni3d" unicode="&#x3d;" d="M849 814L148 814L148 975L849 975L849 814M849 399L148 399L148 559L849 559L849 399Z"  horiz-adv-x="981" vert-adv-y="2048"  />

      
      <glyph glyph-name="uni3e" unicode="&#x3e;" d="M678 651L136 909L136 1099L856 721L856 575L136 196L136 388L678 651Z"  horiz-adv-x="942" vert-adv-y="2048"  />

      
      <glyph glyph-name="uni3f" unicode="&#x3f;" d="M314 410Q314 530 339 605Q364 680 461 796L531 886Q601 984 601 1090Q601 1195 557.50 1254.50Q514 1314 433 1314Q357 1314 306.50 1260Q256 1206 256 1115L80 1115Q82 1280 180 1378Q278 1476 433 1476Q594 1476 686 1375Q778 1274 778 1096Q778 926 639 755L547 644Q490 563 490 410L314 410M410 199Q460 199 485.50 168.50Q511 138 511 93Q511 48 485.50 18.50Q460-11 410-11Q359-11 334.50 18.50Q310 48 310 93Q310 138 334.50 168.50Q359 199 410 199Z"  horiz-adv-x="864" vert-adv-y="2048"  />

      
      <glyph glyph-name="uni40" unicode="&#x40;" d="M1474 502Q1466 267 1374.50 123.50Q1283-20 1124-20Q969-20 921 139Q876 59 820.50 19.50Q765-20 708-20Q586-20 525 96.50Q464 213 480 417Q492 580 543.50 710.50Q595 841 675 915Q755 989 842 989Q913 989 968 967Q1023 945 1091 883L1046 329Q1030 98 1145 98Q1234 98 1290.50 206Q1347 314 1354 502Q1369 893 1233.50 1096Q1098 1299 826 1299Q658 1299 532 1199.50Q406 1100 333.50 912.50Q261 725 253 478Q239 99 376.50-114.50Q514-328 772-328Q849-328 925.50-305.50Q1002-283 1051-249L1084-364Q1031-403 944.50-428Q858-453 769-453Q560-453 408.50-341Q257-229 182-17.50Q107 194 116 478Q125 753 218.50 973Q312 1193 471 1312Q630 1431 830 1431Q1036 1431 1186.50 1318.50Q1337 1206 1410 996.50Q1483 787 1474 502M630 417Q619 275 652 199Q685 123 754 123Q798 123 838.50 171Q879 219 906 309L908 329L947 838Q903 861 858 861Q765 861 704 741Q643 621 630 417Z"  horiz-adv-x="1575" vert-adv-y="2048"  />

      
      <glyph glyph-name="uni41" unicode="&#x41;" d="M836 380L344 380L231 0L43 0L512 1456L669 1456L1139 0L951 0L836 380M392 538L789 538L590 1200L392 538Z"  horiz-adv-x="1180" vert-adv-y="2048"  />

      
      <glyph glyph-name="uni42" unicode="&#x42;" d="M157 0L157 1456L572 1456Q771 1456 871.50 1359Q972 1262 972 1068Q972 966 921 888Q870 810 783 767Q883 737 941.50 644Q1000 551 1000 420Q1000 224 892.50 112Q785 0 586 0L157 0M340 681L340 157L590 157Q694 157 755 225.50Q816 294 816 418Q816 681 594 681L340 681M340 835L575 835Q670 835 728.50 899Q787 963 787 1069Q787 1189 734 1243.50Q681 1298 572 1298L340 1298L340 835Z"  horiz-adv-x="1117" vert-adv-y="2048"  />

      
      <glyph glyph-name="uni43" unicode="&#x43;" d="M1070 462Q1058 228 938.50 104Q819-20 601-20Q382-20 253 146.50Q124 313 124 598L124 862Q124 1146 256.50 1311Q389 1476 618 1476Q829 1476 944.50 1349.50Q1060 1223 1070 988L885 988Q873 1166 810 1242Q747 1318 618 1318Q469 1318 389 1201.50Q309 1085 309 860L309 593Q309 372 383.50 254Q458 136 601 136Q744 136 807 207Q870 278 885 462L1070 462Z"  horiz-adv-x="1161" vert-adv-y="2048"  />

      
      <glyph glyph-name="uni44" unicode="&#x44;" d="M157 0L157 1456L504 1456Q759 1456 900 1296.50Q1041 1137 1041 848L1041 604Q1041 315 898 157.50Q755 0 483 0L157 0M340 1298L340 157L487 157Q680 157 769 267.50Q858 378 860 595L860 853Q860 1083 771.50 1190.50Q683 1298 504 1298L340 1298Z"  horiz-adv-x="1169" vert-adv-y="2048"  />

      
      <glyph glyph-name="uni45" unicode="&#x45;" d="M855 673L340 673L340 157L940 157L940 0L157 0L157 1456L930 1456L930 1298L340 1298L340 830L855 830L855 673Z"  horiz-adv-x="1017" vert-adv-y="2048"  />

      
      <glyph glyph-name="uni46" unicode="&#x46;" d="M832 643L340 643L340 0L157 0L157 1456L915 1456L915 1298L340 1298L340 800L832 800L832 643Z"  horiz-adv-x="984" vert-adv-y="2048"  />

      
      <glyph glyph-name="uni47" unicode="&#x47;" d="M1068 181L1036 141Q898-20 632-20Q396-20 261.50 136.50Q127 293 124 579L124 865Q124 1171 246.50 1323.50Q369 1476 613 1476Q821 1476 938.50 1360Q1056 1244 1068 1029L885 1029Q874 1165 809.50 1241.50Q745 1318 614 1318Q457 1318 384 1215.50Q311 1113 308 888L308 591Q308 371 392 253.50Q476 136 633 136Q781 136 858 208L885 233L885 569L619 569L619 725L1068 725L1068 181Z"  horiz-adv-x="1210" vert-adv-y="2048"  />

      
      <glyph glyph-name="uni48" unicode="&#x48;" d="M1110 0L926 0L926 673L340 673L340 0L157 0L157 1456L340 1456L340 830L926 830L926 1456L1110 1456L1110 0Z"  horiz-adv-x="1270" vert-adv-y="2048"  />

      
      <glyph glyph-name="uni49" unicode="&#x49;" d="M348 0L165 0L165 1456L348 1456L348 0Z"  horiz-adv-x="512" vert-adv-y="2048"  />

      
      <glyph glyph-name="uni4a" unicode="&#x4a;" d="M659 1456L843 1456L843 425Q843 216 736.50 98Q630-20 450-20Q265-20 162 92Q59 204 59 402L242 402Q242 277 297 207Q352 137 450 137Q545 137 602 213Q659 289 659 426L659 1456Z"  horiz-adv-x="990" vert-adv-y="2048"  />

      
      <glyph glyph-name="uni4b" unicode="&#x4b;" d="M483 671L340 498L340 0L157 0L157 1456L340 1456L340 753L460 912L852 1456L1072 1456L599 815L1109 0L890 0L483 671Z"  horiz-adv-x="1116" vert-adv-y="2048"  />

      
      <glyph glyph-name="uni4c" unicode="&#x4c;" d="M341 157L912 157L912 0L157 0L157 1456L341 1456L341 157Z"  horiz-adv-x="973" vert-adv-y="2048"  />

      
      <glyph glyph-name="uni4d" unicode="&#x4d;" d="M393 1456L773 268L1153 1456L1389 1456L1389 0L1206 0L1206 567L1223 1135L842 0L702 0L323 1131L340 567L340 0L157 0L157 1456L393 1456Z"  horiz-adv-x="1547" vert-adv-y="2048"  />

      
      <glyph glyph-name="uni4e" unicode="&#x4e;" d="M1108 0L924 0L341 1122L341 0L157 0L157 1456L341 1456L926 329L926 1456L1108 1456L1108 0Z"  horiz-adv-x="1268" vert-adv-y="2048"  />

      
      <glyph glyph-name="uni4f" unicode="&#x4f;" d="M1104 600Q1104 302 977 141Q850-20 616-20Q391-20 260.50 136.50Q130 293 125 579L125 853Q125 1145 254 1310.50Q383 1476 614 1476Q844 1476 972.50 1317.50Q1101 1159 1104 865L1104 600M921 855Q921 1086 845.50 1198.50Q770 1311 614 1311Q463 1311 385.50 1197Q308 1083 307 861L307 600Q307 377 384.50 260Q462 143 616 143Q770 143 844 251Q918 359 921 582L921 855Z"  horiz-adv-x="1230" vert-adv-y="2048"  />

      
      <glyph glyph-name="uni50" unicode="&#x50;" d="M340 570L340 0L157 0L157 1456L621 1456Q824 1456 940 1334.50Q1056 1213 1056 1011Q1056 801 945.50 687.50Q835 574 634 570L340 570M340 727L621 727Q743 727 808 800Q873 873 873 1009Q873 1140 806 1219Q739 1298 622 1298L340 1298L340 727Z"  horiz-adv-x="1135" vert-adv-y="2048"  />

      
      <glyph glyph-name="uni51" unicode="&#x51;" d="M1096 601Q1096 409 1044.50 276.50Q993 144 898 70L1115-125L991-246L729-7Q666-20 607-20Q380-20 249.50 139.50Q119 299 116 588L116 853Q116 1147 245 1311.50Q374 1476 605 1476Q838 1476 966 1315.50Q1094 1155 1096 861L1096 601M913 855Q913 1086 837.50 1198.50Q762 1311 605 1311Q455 1311 377.50 1197Q300 1083 299 861L299 601Q299 377 376.50 260Q454 143 607 143Q759 143 834 249Q909 355 913 576L913 855Z"  horiz-adv-x="1230" vert-adv-y="2048"  />

      
      <glyph glyph-name="uni52" unicode="&#x52;" d="M597 589L341 589L341 0L157 0L157 1456L565 1456Q779 1456 889 1344.50Q999 1233 999 1018Q999 883 939.50 782.50Q880 682 771 631L1053 12L1053 0L856 0L597 589M341 746L563 746Q678 746 746.50 820Q815 894 815 1018Q815 1298 561 1298L341 1298L341 746Z"  horiz-adv-x="1087" vert-adv-y="2048"  />

      
      <glyph glyph-name="uni53" unicode="&#x53;" d="M793 368Q793 477 734 535Q675 593 521 648Q367 703 285.50 763.50Q204 824 163.50 901.50Q123 979 123 1079Q123 1252 238.50 1364Q354 1476 541 1476Q669 1476 769 1418.50Q869 1361 923 1259Q977 1157 977 1035L793 1035Q793 1170 728 1244Q663 1318 541 1318Q430 1318 369 1256Q308 1194 308 1082Q308 990 374 928Q440 866 578 817Q793 746 885.50 642Q978 538 978 370Q978 193 863 86.50Q748-20 550-20Q423-20 315.50 35.50Q208 91 146.50 191.50Q85 292 85 422L269 422Q269 287 344.50 212Q420 137 550 137Q671 137 732 199Q793 261 793 368Z"  horiz-adv-x="1061" vert-adv-y="2048"  />

      
      <glyph glyph-name="uni54" unicode="&#x54;" d="M1008 1298L625 1298L625 0L442 0L442 1298L60 1298L60 1456L1008 1456L1008 1298Z"  horiz-adv-x="1066" vert-adv-y="2048"  />

      
      <glyph glyph-name="uni55" unicode="&#x55;" d="M1025 1456L1025 421Q1023 214 905 97Q787-20 576-20Q360-20 246 94.50Q132 209 130 421L130 1456L312 1456L312 428Q312 281 374.50 208.50Q437 136 576 136Q716 136 778.50 208.50Q841 281 841 428L841 1456L1025 1456Z"  horiz-adv-x="1150" vert-adv-y="2048"  />

      
      <glyph glyph-name="uni56" unicode="&#x56;" d="M573 281L906 1456L1107 1456L654 0L494 0L42 1456L242 1456L573 281Z"  horiz-adv-x="1147" vert-adv-y="2048"  />

      
      <glyph glyph-name="uni57" unicode="&#x57;" d="M435 459L454 296L483 440L716 1456L869 1456L1095 440L1124 292L1145 460L1323 1456L1506 1456L1216 0L1051 0L808 1061L793 1147L778 1061L526 0L360 0L71 1456L254 1456L435 459Z"  horiz-adv-x="1560" vert-adv-y="2048"  />

      
      <glyph glyph-name="uni58" unicode="&#x58;" d="M566 898L840 1456L1055 1456L676 734L1063 0L846 0L566 568L285 0L68 0L457 734L76 1456L290 1456L566 898Z"  horiz-adv-x="1128" vert-adv-y="2048"  />

      
      <glyph glyph-name="uni59" unicode="&#x59;" d="M536 725L834 1456L1041 1456L627 543L627 0L444 0L444 543L30 1456L238 1456L536 725Z"  horiz-adv-x="1074" vert-adv-y="2048"  />

      
      <glyph glyph-name="uni5a" unicode="&#x5a;" d="M294 157L985 157L985 0L91 0L91 144L754 1298L98 1298L98 1456L958 1456L958 1315L294 157Z"  horiz-adv-x="1070" vert-adv-y="2048"  />

      
      <glyph glyph-name="uni5b" unicode="&#x5b;" d="M469 1512L314 1512L314-160L469-160L469-312L137-312L137 1664L469 1664L469 1512Z"  horiz-adv-x="513" vert-adv-y="2048"  />

      
      <glyph glyph-name="uni5c" unicode="&#x5c;" d="M51 1456L218 1456L728-125L562-125L51 1456Z"  horiz-adv-x="756" vert-adv-y="2048"  />

      
      <glyph glyph-name="uni5d" unicode="&#x5d;" d="M30 1664L363 1664L363-312L30-312L30-160L187-160L187 1512L30 1512L30 1664Z"  horiz-adv-x="513" vert-adv-y="2048"  />

      
      <glyph glyph-name="uni5e" unicode="&#x5e;" d="M379 1211L232 729L69 729L321 1456L439 1456L689 729L528 729L379 1211Z"  horiz-adv-x="760" vert-adv-y="2048"  />

      
      <glyph glyph-name="uni5f" unicode="&#x5f;" d="M805-151L24-151L24 0L805 0L805-151Z"  horiz-adv-x="829" vert-adv-y="2048"  />

      
      <glyph glyph-name="uni60" unicode="&#x60;" d="M474 1242L315 1242L57 1536L280 1536L474 1242Z"  horiz-adv-x="633" vert-adv-y="2048"  />

      
      <glyph glyph-name="uni61" unicode="&#x61;" d="M689 0Q673 35 666 118Q572-20 426-20Q279-20 196.50 62.50Q114 145 114 295Q114 460 226 557Q338 654 533 656L663 656L663 771Q663 868 620 909Q577 950 489 950Q409 950 359 902.50Q309 855 309 782L132 782Q132 865 181 940.50Q230 1016 313 1059Q396 1102 498 1102Q664 1102 750.50 1019.50Q837 937 839 779L839 233Q840 108 873 16L873 0L689 0M453 141Q518 141 577 177Q636 213 663 267L663 525L563 525Q437 523 364 468.50Q291 414 291 316Q291 224 328 182.50Q365 141 453 141Z"  horiz-adv-x="981" vert-adv-y="2048"  />

      
      <glyph glyph-name="uni62" unicode="&#x62;" d="M916 489Q916 236 825 108Q734-20 561-20Q389-20 303 128L294 0L133 0L133 1536L309 1536L309 963Q396 1102 559 1102Q737 1102 826 976Q915 850 916 596L916 489M740 590Q740 782 686.50 863.50Q633 945 513 945Q376 945 309 797L309 282Q375 136 515 136Q635 136 687 220Q739 304 740 481L740 590Z"  horiz-adv-x="1010" vert-adv-y="2048"  />

      
      <glyph glyph-name="uni63" unicode="&#x63;" d="M508 131Q596 131 649 185.50Q702 240 707 341L874 341Q868 185 763.50 82.50Q659-20 508-20Q307-20 201.50 106.50Q96 233 96 483L96 602Q96 847 201 974.50Q306 1102 507 1102Q673 1102 770.50 997Q868 892 874 710L707 710Q701 830 649.50 890Q598 950 507 950Q389 950 332 872.50Q275 795 273 618L273 480Q273 289 329.50 210Q386 131 508 131Z"  horiz-adv-x="946" vert-adv-y="2048"  />

      
      <glyph glyph-name="uni64" unicode="&#x64;" d="M95 590Q95 840 188.50 971Q282 1102 457 1102Q612 1102 699 976L699 1536L876 1536L876 0L714 0L705 116Q618-20 456-20Q288-20 192.50 110.50Q97 241 95 479L95 590M272 489Q272 307 326 221.50Q380 136 502 136Q634 136 699 269L699 815Q631 945 503 945Q381 945 327 859.50Q273 774 272 597L272 489Z"  horiz-adv-x="1016" vert-adv-y="2048"  />

      
      <glyph glyph-name="uni65" unicode="&#x65;" d="M519-20Q317-20 209 100.50Q101 221 99 454L99 585Q99 827 204.50 964.50Q310 1102 499 1102Q689 1102 783 981Q877 860 879 604L879 488L275 488L275 463Q275 289 340.50 210Q406 131 529 131Q607 131 666.50 160.50Q726 190 778 254L870 142Q755-20 519-20M499 950Q389 950 336 874.50Q283 799 276 640L702 640L702 664Q695 818 646.50 884Q598 950 499 950Z"  horiz-adv-x="959" vert-adv-y="2048"  />

      
      <glyph glyph-name="uni66" unicode="&#x66;" d="M210 0L210 939L69 939L69 1082L210 1082L210 1207Q213 1372 293.50 1464.50Q374 1557 521 1557Q574 1557 628 1540L619 1390Q581 1399 538 1399Q387 1399 387 1184L387 1082L572 1082L572 939L387 939L387 0L210 0Z"  horiz-adv-x="648" vert-adv-y="2048"  />

      
      <glyph glyph-name="uni67" unicode="&#x67;" d="M97 590Q97 843 189 972.50Q281 1102 458 1102Q623 1102 709 961L718 1082L878 1082L878-10Q878-211 775-318.50Q672-426 488-426Q408-426 308.50-386.50Q209-347 159-289L231-167Q341-275 474-275Q695-275 701-34L701 107Q615-20 457-20Q289-20 195 106.50Q101 233 97 470L97 590M274 489Q274 307 327.50 221.50Q381 136 503 136Q635 136 701 271L701 812Q632 945 505 945Q383 945 329 859.50Q275 774 274 597L274 489Z"  horiz-adv-x="1009" vert-adv-y="2048"  />

      
      <glyph glyph-name="uni68" unicode="&#x68;" d="M309 971Q410 1102 567 1102Q854 1102 858 719L858 0L682 0L682 711Q682 838 639.50 891.50Q597 945 512 945Q446 945 393.50 901Q341 857 309 786L309 0L132 0L132 1536L309 1536L309 971Z"  horiz-adv-x="989" vert-adv-y="2048"  />

      
      <glyph glyph-name="uni69" unicode="&#x69;" d="M323 0L146 0L146 1082L323 1082L323 0M337 1369Q337 1324 312 1294Q287 1264 236 1264Q186 1264 161 1294Q136 1324 136 1369Q136 1414 161 1445Q186 1476 236 1476Q286 1476 311.50 1444.50Q337 1413 337 1369Z"  horiz-adv-x="469" vert-adv-y="2048"  />

      
      <glyph glyph-name="uni6a" unicode="&#x6a;" d="M313 1082L313-136Q310-437 75-437Q21-437-22-419L-23-271Q4-279 46-279Q91-279 113.50-245.50Q136-212 136-129L136 1082L313 1082M321 1369Q321 1324 296 1294Q271 1264 220 1264Q170 1264 145.50 1294Q121 1324 121 1369Q121 1414 145.50 1445Q170 1476 220 1476Q270 1476 295.50 1444.50Q321 1413 321 1369Z"  horiz-adv-x="458" vert-adv-y="2048"  />

      
      <glyph glyph-name="uni6b" unicode="&#x6b;" d="M404 495L310 387L310 0L133 0L133 1536L310 1536L310 617L647 1082L859 1082L515 630L904 0L698 0L404 495Z"  horiz-adv-x="923" vert-adv-y="2048"  />

      
      <glyph glyph-name="uni6c" unicode="&#x6c;" d="M323 0L146 0L146 1536L323 1536L323 0Z"  horiz-adv-x="469" vert-adv-y="2048"  />

      
      <glyph glyph-name="uni6d" unicode="&#x6d;" d="M299 1082L303 982Q402 1102 564 1102Q745 1102 817 945Q919 1102 1101 1102Q1400 1102 1407 729L1407 0L1231 0L1231 712Q1231 830 1189 887.50Q1147 945 1047 945Q967 945 917 883Q867 821 859 725L859 0L681 0L681 720Q678 945 498 945Q364 945 309 811L309 0L133 0L133 1082L299 1082Z"  horiz-adv-x="1541" vert-adv-y="2048"  />

      
      <glyph glyph-name="uni6e" unicode="&#x6e;" d="M299 1082L304 965Q407 1102 567 1102Q854 1102 858 719L858 0L682 0L682 711Q682 838 639.50 891.50Q597 945 512 945Q446 945 393.50 901Q341 857 309 786L309 0L132 0L132 1082L299 1082Z"  horiz-adv-x="991" vert-adv-y="2048"  />

      
      <glyph glyph-name="uni6f" unicode="&#x6f;" d="M95 591Q95 827 209.50 964.50Q324 1102 512 1102Q700 1102 814.50 968Q929 834 932 603L932 489Q932 254 818 117Q704-20 514-20Q326-20 212.50 113Q99 246 95 473L95 591M272 489Q272 322 337.50 226.50Q403 131 514 131Q748 131 755 469L755 591Q755 757 689 853.50Q623 950 512 950Q403 950 337.50 853.50Q272 757 272 592L272 489Z"  horiz-adv-x="1028" vert-adv-y="2048"  />

      
      <glyph glyph-name="uni70" unicode="&#x70;" d="M914 489Q914 232 821.50 106Q729-20 560-20Q397-20 309 103L309-416L133-416L133 1082L293 1082L302 962Q391 1102 557 1102Q735 1102 823 978Q911 854 914 607L914 489M738 590Q738 772 682 858.50Q626 945 502 945Q375 945 309 818L309 255Q374 131 504 131Q624 131 680.50 217.50Q737 304 738 482L738 590Z"  horiz-adv-x="1010" vert-adv-y="2048"  />

      
      <glyph glyph-name="uni71" unicode="&#x71;" d="M95 590Q95 843 187 972.50Q279 1102 461 1102Q618 1102 705 976L713 1082L875 1082L875-416L698-416L698 95Q612-20 460-20Q285-20 191 107.50Q97 235 95 479L95 590M272 489Q272 307 328 219Q384 131 506 131Q630 131 698 250L698 830Q626 950 507 950Q385 950 329 862Q273 774 272 597L272 489Z"  horiz-adv-x="1025" vert-adv-y="2048"  />

      
      <glyph glyph-name="uni72" unicode="&#x72;" d="M579 916Q542 923 499 923Q363 923 309 774L309 0L132 0L132 1082L304 1082L307 972Q378 1102 508 1102Q550 1102 578 1088L579 916Z"  horiz-adv-x="623" vert-adv-y="2048"  />

      
      <glyph glyph-name="uni73" unicode="&#x73;" d="M658 277Q658 334 615 375Q572 416 449 471Q306 530 247.50 572Q189 614 160 667.50Q131 721 131 795Q131 927 227.50 1014.50Q324 1102 474 1102Q632 1102 728 1010Q824 918 824 774L648 774Q648 847 599 898.50Q550 950 474 950Q396 950 351.50 909.50Q307 869 307 801Q307 747 339.50 714Q372 681 496 627Q693 550 764 476.50Q835 403 835 290Q835 149 738 64.50Q641-20 478-20Q309-20 204 77Q99 174 99 323L277 323Q280 233 332 182Q384 131 478 131Q566 131 612 170.50Q658 210 658 277Z"  horiz-adv-x="933" vert-adv-y="2048"  />

      
      <glyph glyph-name="uni74" unicode="&#x74;" d="M364 1344L364 1082L527 1082L527 939L364 939L364 268Q364 204 385 171Q406 138 457 138Q492 138 528 150L526 0Q466-20 403-20Q298-20 243 55Q188 130 188 267L188 939L23 939L23 1082L188 1082L188 1344L364 1344Z"  horiz-adv-x="605" vert-adv-y="2048"  />

      
      <glyph glyph-name="uni75" unicode="&#x75;" d="M684 95Q596-20 427-20Q280-20 205 81.50Q130 183 129 377L129 1082L305 1082L305 390Q305 137 457 137Q618 137 679 281L679 1082L856 1082L856 0L688 0L684 95Z"  horiz-adv-x="990" vert-adv-y="2048"  />

      
      <glyph glyph-name="uni76" unicode="&#x76;" d="M439 269L644 1082L824 1082L503 0L371 0L46 1082L226 1082L439 269Z"  horiz-adv-x="876" vert-adv-y="2048"  />

      
      <glyph glyph-name="uni77" unicode="&#x77;" d="M939 311L1103 1082L1278 1082L1013 0L872 0L661 774L455 0L313 0L50 1082L224 1082L392 330L593 1082L733 1082L939 311Z"  horiz-adv-x="1331" vert-adv-y="2048"  />

      
      <glyph glyph-name="uni78" unicode="&#x78;" d="M445 687L630 1082L835 1082L541 547L842 0L639 0L448 405L256 0L52 0L353 547L60 1082L263 1082L445 687Z"  horiz-adv-x="899" vert-adv-y="2048"  />

      
      <glyph glyph-name="uni79" unicode="&#x79;" d="M428 294L625 1082L813 1082L459-153Q419-292 346-364.50Q273-437 180-437Q144-437 88-421L88-271L127-275Q204-275 247.50-238.50Q291-202 318-112L353 9L35 1082L228 1082L428 294Z"  horiz-adv-x="853" vert-adv-y="2048"  />

      
      <glyph glyph-name="uni7a" unicode="&#x7a;" d="M296 151L818 151L818 0L94 0L94 136L590 929L98 929L98 1082L798 1082L798 951L296 151Z"  horiz-adv-x="899" vert-adv-y="2048"  />

      
      <glyph glyph-name="uni7b" unicode="&#x7b;" d="M549-366Q398-316 321.50-203Q245-90 244 95L244 302Q244 543 72 543L72 688Q244 688 244 929L244 1135Q245 1319 320 1432.50Q395 1546 549 1597L585 1482Q425 1419 421 1147L421 931Q421 705 274 615Q421 525 421 298L421 79Q426-189 584-251L549-366Z"  horiz-adv-x="627" vert-adv-y="2048"  />

      
      <glyph glyph-name="uni7c" unicode="&#x7c;" d="M324-270L175-270L175 1456L324 1456L324-270Z"  horiz-adv-x="499" vert-adv-y="2048"  />

      
      <glyph glyph-name="uni7d" unicode="&#x7d;" d="M39-251Q199-188 204 80L204 301Q204 532 363 615Q204 697 204 933L204 1140Q202 1418 39 1482L75 1597Q225 1548 300.50 1437.50Q376 1327 380 1149L380 913Q385 688 552 688L552 543Q380 543 380 302L380 98Q380-266 75-366L39-251Z"  horiz-adv-x="627" vert-adv-y="2048"  />

      
      <glyph glyph-name="uni7e" unicode="&#x7e;" d="M1084 777Q1084 622 1002.50 512Q921 402 803 402Q739 402 681 432.50Q623 463 552 541Q512 588 478 613.50Q444 639 406 639Q344 639 311 585.50Q278 532 278 438L125 436Q125 594 205.50 698Q286 802 406 802Q478 802 536 765.50Q594 729 656 663Q697 613 730.50 589Q764 565 803 565Q862 565 901 623.50Q940 682 940 776L1084 777Z"  horiz-adv-x="1207" vert-adv-y="2048"  />

      
      <glyph glyph-name="unia1" unicode="&#xa1;" d="M161 684L321 684L334-360L148-360L161 684M237 889Q186 889 161 920Q136 951 136 996Q136 1041 161 1071Q186 1101 237 1101Q287 1101 312.50 1071Q338 1041 338 996Q338 951 312.50 920Q287 889 237 889Z"  horiz-adv-x="474" vert-adv-y="2048"  />

      
      <glyph glyph-name="unia2" unicode="&#xa2;" d="M514 131Q592 131 650 191Q708 251 714 341L881 341Q875 216 793 116.50Q711 17 592-11L592-245L416-245L416-8Q269 27 186.50 167.50Q104 308 104 525L104 562Q104 769 186 911Q268 1053 416 1090L416 1318L592 1318L592 1094Q718 1069 796.50 964.50Q875 860 881 710L714 710Q708 815 653 882.50Q598 950 514 950Q401 950 340.50 850.50Q280 751 280 555L280 520Q280 329 340 230Q400 131 514 131Z"  horiz-adv-x="982" vert-adv-y="2048"  />

      
      <glyph glyph-name="unia3" unicode="&#xa3;" d="M411 622L418 402Q416 249 363 157L978 157L977 0L99 0L99 157L157 157Q191 167 212 234.50Q233 302 233 401L227 622L96 622L96 779L222 779L215 1039Q215 1237 321.50 1356.50Q428 1476 601 1476Q762 1476 857.50 1370.50Q953 1265 953 1087L771 1087Q771 1197 720 1257.50Q669 1318 584 1318Q502 1318 450.50 1240Q399 1162 399 1039L407 779L667 779L667 622L411 622Z"  horiz-adv-x="1046" vert-adv-y="2048"  />

      
      <glyph glyph-name="unia4" unicode="&#xa4;" d="M1103 112Q944-20 735-20Q528-20 369 110L235-26L105 109L244 250Q140 406 140 608Q140 814 252 977L105 1128L235 1264L382 1114Q540 1234 735 1234Q931 1234 1090 1113L1239 1265L1371 1128L1220 974Q1330 811 1330 608Q1330 412 1228 253L1371 109L1239-27L1103 112M311 608Q311 485 368.50 379Q426 273 524 212Q622 151 735 151Q848 151 946 212.50Q1044 274 1100.50 379.50Q1157 485 1157 608Q1157 730 1100.50 835.50Q1044 941 945.50 1001.50Q847 1062 735 1062Q622 1062 524 1002Q426 942 368.50 836Q311 730 311 608Z"  horiz-adv-x="1460" vert-adv-y="2048"  />

      
      <glyph glyph-name="unia5" unicode="&#xa5;" d="M476 832L717 1456L920 1456L615 736L824 736L824 611L563 611L563 446L824 446L824 322L563 322L563 0L379 0L379 322L123 322L123 446L379 446L379 611L123 611L123 736L335 736L30 1456L236 1456L476 832Z"  horiz-adv-x="949" vert-adv-y="2048"  />

      
      <glyph glyph-name="unia6" unicode="&#xa6;" d="M147-270L147 521L333 521L333-270L147-270M333 698L147 698L147 1456L333 1456L333 698Z"  horiz-adv-x="491" vert-adv-y="2048"  />

      
      <glyph glyph-name="unia7" unicode="&#xa7;" d="M990 431Q990 241 832 157Q891 108 921.50 40Q952-28 952-128Q952-297 841-396Q730-495 536-495Q330-495 211-382.50Q92-270 92-64L269-62Q269-193 340.50-268Q412-343 536-343Q644-343 709.50-284Q775-225 775-130Q775-41 716.50 11Q658 63 486 126Q267 195 182 293Q97 391 97 551Q97 644 137.50 713.50Q178 783 251 824Q134 925 134 1110Q134 1276 248 1376Q362 1476 551 1476Q749 1476 859.50 1363Q970 1250 970 1045L794 1045Q794 1169 728 1247Q662 1325 551 1325Q440 1325 376 1268Q312 1211 312 1112Q312 1012 367.50 962.50Q423 913 594 855Q765 797 840.50 743.50Q916 690 953 615Q990 540 990 431M528 691Q443 718 390 741Q274 702 274 553Q274 452 328 401Q382 350 556 289Q644 260 690 239Q750 261 781.50 310.50Q813 360 813 428Q813 517 756.50 571Q700 625 528 691Z"  horiz-adv-x="1100" vert-adv-y="2048"  />

      
      <glyph glyph-name="unia8" unicode="&#xa8;" d="M101 1371Q101 1416 128.50 1446.50Q156 1477 210 1477Q264 1477 292 1446.50Q320 1416 320 1371Q320 1326 292 1296Q264 1266 210 1266Q156 1266 128.50 1296Q101 1326 101 1371M531 1369Q531 1414 558.50 1445Q586 1476 640 1476Q694 1476 722 1445Q750 1414 750 1369Q750 1324 722 1294Q694 1264 640 1264Q586 1264 558.50 1294Q531 1324 531 1369Z"  horiz-adv-x="856" vert-adv-y="2048"  />

      
      <glyph glyph-name="unia9" unicode="&#xa9;" d="M1119 597Q1119 444 1032.50 363.50Q946 283 788 283Q631 283 536.50 388.50Q442 494 442 676L442 786Q442 962 537.50 1067.50Q633 1173 788 1173Q948 1173 1034 1091Q1120 1009 1120 860L974 860Q974 959 926.50 1001.50Q879 1044 788 1044Q694 1044 640 975Q586 906 586 783L586 670Q586 550 640 481Q694 412 788 412Q880 412 926.50 454Q973 496 973 597L1119 597M206 729Q206 557 286 410.50Q366 264 503.50 181Q641 98 801 98Q961 98 1098 181Q1235 264 1315 410.50Q1395 557 1395 729Q1395 899 1316 1044Q1237 1189 1099.50 1272.50Q962 1356 801 1356Q641 1356 503 1273.50Q365 1191 285.50 1045Q206 899 206 729M91 729Q91 931 184.50 1104Q278 1277 443.50 1376.50Q609 1476 801 1476Q993 1476 1158 1376.50Q1323 1277 1416.50 1104Q1510 931 1510 729Q1510 532 1420 360Q1330 188 1164.50 83.50Q999-21 801-21Q604-21 438.50 82.50Q273 186 182 358Q91 530 91 729Z"  horiz-adv-x="1609" vert-adv-y="2048"  />

      
      <glyph glyph-name="uniaa" unicode="&#xaa;" d="M529 705L515 773Q452 691 349 691Q248 691 194 753Q140 815 140 918Q140 1145 419 1149L509 1149L509 1201Q509 1336 417 1336Q365 1336 336 1309Q307 1282 307 1231L154 1243Q154 1347 227.50 1411.50Q301 1476 417 1476Q531 1476 597 1404.50Q663 1333 663 1200L663 886Q663 790 685 705L529 705M388 828Q453 828 509 889L509 1037L439 1037Q294 1037 294 922Q294 828 388 828Z"  horiz-adv-x="811" vert-adv-y="2048"  />

      
      <glyph glyph-name="uniab" unicode="&#xab;" d="M265 548L476 151L347 151L99 539L99 558L347 947L476 947L265 548M549 548L760 151L631 151L383 539L383 558L631 947L760 947L549 548Z"  horiz-adv-x="856" vert-adv-y="2048"  />

      
      <glyph glyph-name="uniac" unicode="&#xac;" d="M832 375L654 375L654 639L127 639L127 800L832 800L832 375Z"  horiz-adv-x="998" vert-adv-y="2048"  />

      
      <glyph glyph-name="uniae" unicode="&#xae;" d="M90 729Q90 931 183.50 1104Q277 1277 442.50 1376.50Q608 1476 800 1476Q992 1476 1157 1376.50Q1322 1277 1415.50 1104Q1509 931 1509 729Q1509 532 1419 360Q1329 188 1163.50 83.50Q998-21 800-21Q603-21 437.50 82.50Q272 186 181 358Q90 530 90 729M205 729Q205 557 285 410.50Q365 264 502.50 181Q640 98 800 98Q961 98 1099 182.50Q1237 267 1315.50 412Q1394 557 1394 729Q1394 900 1315.50 1044.50Q1237 1189 1099 1272.50Q961 1356 800 1356Q640 1356 502 1273.50Q364 1191 284.50 1045Q205 899 205 729M653 654L653 316L512 316L512 1165L788 1165Q941 1165 1025.50 1099.50Q1110 1034 1110 909Q1110 786 982 721Q1104 671 1105 517L1105 456Q1105 370 1122 332L1122 316L977 316Q963 352 963 444.50Q963 537 960 554Q944 650 829 654L653 654M653 782L809 782Q881 784 925 817Q969 850 969 904Q969 977 930 1007.50Q891 1038 791 1038L653 1038L653 782Z"  horiz-adv-x="1610" vert-adv-y="2048"  />

      
      <glyph glyph-name="uniaf" unicode="&#xaf;" d="M722 1302L141 1302L141 1445L722 1445L722 1302Z"  horiz-adv-x="848" vert-adv-y="2048"  />

      
      <glyph glyph-name="unib0" unicode="&#xb0;" d="M130 1216Q130 1320 204.50 1398Q279 1476 385 1476Q489 1476 562.50 1398.50Q636 1321 636 1216Q636 1110 562.50 1035Q489 960 385 960Q280 960 205 1035Q130 1110 130 1216M385 1088Q439 1088 476 1123.50Q513 1159 513 1216Q513 1274 476 1311.50Q439 1349 385 1349Q330 1349 292.50 1309.50Q255 1270 255 1216Q255 1162 292.50 1125Q330 1088 385 1088Z"  horiz-adv-x="765" vert-adv-y="2048"  />

      
      <glyph glyph-name="unib1" unicode="&#xb1;" d="M578 854L875 854L875 703L578 703L578 289L420 289L420 703L105 703L105 854L420 854L420 1267L578 1267L578 854M837 0L135 0L135 152L837 152L837 0Z"  horiz-adv-x="962" vert-adv-y="2048"  />

      
      <glyph glyph-name="unib2" unicode="&#xb2;" d="M599 667L87 667L87 775L343 1063Q425 1160 425 1228Q425 1277 401 1307.50Q377 1338 332 1338Q274 1338 247.50 1300Q221 1262 221 1205L72 1205Q72 1319 143.50 1393Q215 1467 328 1467Q444 1467 509 1403.50Q574 1340 574 1230Q574 1123 477 1011L276 795L599 795L599 667Z"  horiz-adv-x="675" vert-adv-y="2048"  />

      
      <glyph glyph-name="unib3" unicode="&#xb3;" d="M242 1126L308 1126Q425 1126 425 1235Q425 1279 401 1308.50Q377 1338 324 1338Q282 1338 254 1313.50Q226 1289 226 1246L77 1246Q77 1343 146 1405Q215 1467 322 1467Q440 1467 507 1406.50Q574 1346 574 1242Q574 1187 544.50 1141.50Q515 1096 459 1071Q584 1031 584 887Q584 779 510 717.50Q436 656 321 656Q207 656 138 719.50Q69 783 69 889L219 889Q219 844 247.50 814Q276 784 327 784Q381 784 408.50 814Q436 844 436 895Q436 1009 317 1010L242 1010L242 1126Z"  horiz-adv-x="675" vert-adv-y="2048"  />

      
      <glyph glyph-name="unib4" unicode="&#xb4;" d="M316 1536L540 1536L272 1242L123 1242L316 1536Z"  horiz-adv-x="642" vert-adv-y="2048"  />

      
      <glyph glyph-name="unib5" unicode="&#xb5;" d="M323 1082L323 440Q325 281 364 205.50Q403 130 494 130Q641 130 696 264L696 1082L874 1082L874 0L715 0L707 102Q633-20 501-20Q386-20 323 47L323-416L147-416L147 1082L323 1082Z"  horiz-adv-x="1021" vert-adv-y="2048"  />

      
      <glyph glyph-name="unib6" unicode="&#xb6;" d="M551 0L551 520L482 520Q357 520 263.50 578Q170 636 120.50 743Q71 850 71 988Q71 1201 183 1328.50Q295 1456 486 1456L729 1456L729 0L551 0Z"  horiz-adv-x="890" vert-adv-y="2048"  />

      
      <glyph glyph-name="unib7" unicode="&#xb7;" d="M138 729Q138 777 164.50 809Q191 841 244 841Q297 841 324 809Q351 777 351 729Q351 682 324 650.50Q297 619 244 619Q191 619 164.50 650.50Q138 682 138 729Z"  horiz-adv-x="498" vert-adv-y="2048"  />

      
      <glyph glyph-name="unib8" unicode="&#xb8;" d="M272 0L262-52Q322-65 354-110Q386-155 386-225Q386-321 319.50-378Q253-435 129-435L123-328Q251-328 251-229Q251-184 224.50-163.50Q198-143 119-134L147 0L272 0Z"  horiz-adv-x="469" vert-adv-y="2048"  />

      
      <glyph glyph-name="unib9" unicode="&#xb9;" d="M446 667L297 667L297 1268L121 1211L121 1339L429 1456L446 1456L446 667Z"  horiz-adv-x="675" vert-adv-y="2048"  />

      
      <glyph glyph-name="uniba" unicode="&#xba;" d="M118 1123Q118 1277 198 1376.50Q278 1476 412 1476Q546 1476 626 1378Q706 1280 706 1118L706 1043Q706 886 626 788Q546 690 413 690Q278 690 198 789.50Q118 889 118 1047L118 1123M273 1043Q273 942 311 885.50Q349 829 413 829Q477 829 514 886Q551 943 551 1046L551 1123Q551 1222 513.50 1279Q476 1336 412 1336Q349 1336 311.50 1280.50Q274 1225 273 1126L273 1043Z"  horiz-adv-x="825" vert-adv-y="2048"  />

      
      <glyph glyph-name="unibb" unicode="&#xbb;" d="M232 949L480 560L480 541L232 152L101 152L312 550L101 949L232 949M535 949L783 560L783 541L535 152L404 152L615 550L404 949L535 949Z"  horiz-adv-x="856" vert-adv-y="2048"  />

      
      <glyph glyph-name="unibc" unicode="&#xbc;" d="M407 664L258 664L258 1265L82 1208L82 1336L390 1453L407 1453L407 664M401 118L305 184L902 1322L999 1256L401 118M1142 299L1226 299L1226 169L1142 169L1142 0L994 0L994 169L686 169L681 271L991 789L1142 789L1142 299M827 299L994 299L994 578L984 560L827 299Z"  horiz-adv-x="1305" vert-adv-y="2048"  />

      
      <glyph glyph-name="unibd" unicode="&#xbd;" d="M364 118L268 184L865 1322L962 1256L364 118M406 664L257 664L257 1265L81 1208L81 1336L389 1453L406 1453L406 664M1278 0L766 0L766 108L1022 396Q1104 493 1104 561Q1104 610 1080 640.50Q1056 671 1011 671Q953 671 926.50 633Q900 595 900 538L751 538Q751 652 822.50 726Q894 800 1007 800Q1123 800 1188 736.50Q1253 673 1253 563Q1253 456 1156 344L955 128L1278 128L1278 0Z"  horiz-adv-x="1388" vert-adv-y="2048"  />

      
      <glyph glyph-name="unibe" unicode="&#xbe;" d="M502 118L406 184L1003 1322L1100 1256L502 118M1211 299L1295 299L1295 169L1211 169L1211 0L1063 0L1063 169L755 169L750 271L1060 789L1211 789L1211 299M896 299L1063 299L1063 578L1053 560L896 299M284 1126L350 1126Q467 1126 467 1235Q467 1279 443 1308.50Q419 1338 366 1338Q324 1338 296 1313.50Q268 1289 268 1246L119 1246Q119 1343 188 1405Q257 1467 364 1467Q482 1467 549 1406.50Q616 1346 616 1242Q616 1187 586.50 1141.50Q557 1096 501 1071Q626 1031 626 887Q626 779 552 717.50Q478 656 363 656Q249 656 180 719.50Q111 783 111 889L261 889Q261 844 289.50 814Q318 784 369 784Q423 784 450.50 814Q478 844 478 895Q478 1009 359 1010L284 1010L284 1126Z"  horiz-adv-x="1379" vert-adv-y="2048"  />

      
      <glyph glyph-name="unibf" unicode="&#xbf;" d="M526 680Q525 577 506.50 513Q488 449 445 388L377 298L322 223Q247 118 247 0Q247-109 292.50-166.50Q338-224 424-224Q498-224 549.50-168Q601-112 601-20L777-20Q775-184 677-284.50Q579-385 424-385Q257-385 164-285.50Q71-186 71-5Q71 164 205 342L291 452Q349 536 349 680L526 680M530 997Q530 952 505 921Q480 890 430 890Q380 890 354.50 921Q329 952 329 997Q329 1041 354.50 1071Q380 1101 430 1101Q480 1101 505 1071Q530 1041 530 997Z"  horiz-adv-x="863" vert-adv-y="2048"  />

      
      <glyph glyph-name="unic6" unicode="&#xc6;" d="M1616 0L853 0L840 353L382 353L214 0L-2 0L737 1456L1564 1456L1564 1304L984 1304L1001 833L1496 833L1496 682L1006 682L1025 151L1616 151L1616 0M465 527L834 527L809 1250L465 527Z"  horiz-adv-x="1663" vert-adv-y="2048"  />

      
      <glyph glyph-name="unid7" unicode="&#xd7;" d="M93 329L368 663L91 1000L204 1123L476 793L748 1123L860 1000L582 663L858 329L745 206L475 533L206 206L93 329Z"  horiz-adv-x="964" vert-adv-y="2048"  />

      
      <glyph glyph-name="unid8" unicode="&#xd8;" d="M1112 681Q1112 358 978 169Q844-20 616-20Q476-20 366 58L287-93L156-93L278 140Q117 333 117 689L117 773Q117 981 178 1141Q239 1301 352.50 1388.50Q466 1476 614 1476Q793 1476 916 1357L1000 1516L1131 1516L995 1258Q1108 1077 1112 792L1112 681M299 681Q299 453 369 313L832 1195Q750 1311 614 1311Q466 1311 382.50 1166.50Q299 1022 299 773L299 681M930 775Q930 942 893 1063L445 209Q517 143 616 143Q766 143 848 281.50Q930 420 930 681L930 775Z"  horiz-adv-x="1230" vert-adv-y="2048"  />

      
      <glyph glyph-name="unide" unicode="&#xde;" d="M331 1456L331 1163L554 1163Q745 1161 855 1044.50Q965 928 965 738Q965 546 853.50 429.50Q742 313 544 313L331 313L331 0L154 0L154 1456L331 1456M331 1012L331 465L549 465Q661 465 724.50 540.50Q788 616 788 736Q788 859 724.50 934.50Q661 1010 553 1011L332 1011L331 1012Z"  horiz-adv-x="1055" vert-adv-y="2048"  />

      
      <glyph glyph-name="unidf" unicode="&#xdf;" d="M309 0L133 0L133 1111Q133 1320 224 1437Q315 1554 473 1554Q629 1554 714.50 1466Q800 1378 800 1216Q800 1091 745.50 989.50Q691 888 691 819Q691 767 722 720Q753 673 831.50 600Q910 527 945 460Q980 393 980 317Q980 152 894.50 66Q809-20 654-20Q588-20 512.50 1.50Q437 23 404 52L443 207Q476 179 533 155Q590 131 635 131Q804 131 804 307Q804 360 772.50 409Q741 458 664.50 528.50Q588 599 551 669.50Q514 740 514 821Q514 881 533 926.50Q552 972 574.50 1013.50Q597 1055 616 1099.50Q635 1144 635 1201Q635 1301 592 1351.50Q549 1402 482 1402Q312 1402 309 1120L309 0Z"  horiz-adv-x="1069" vert-adv-y="2048"  />

      
      <glyph glyph-name="unie6" unicode="&#xe6;" d="M1079-20Q859-20 744 152Q688 70 592 25Q496-20 381-20Q242-20 162.50 65.50Q83 151 83 304Q83 461 179 548Q275 635 462 635L639 635L639 720Q639 827 595.50 888.50Q552 950 472 950Q391 950 336.50 895.50Q282 841 282 759L107 778Q107 920 209.50 1011Q312 1102 472 1102Q670 1102 757 949Q868 1102 1038 1102Q1218 1102 1316.50 973Q1415 844 1415 611L1415 497L813 497Q818 323 887.50 226.50Q957 130 1079 130Q1205 130 1303 206L1342 237L1401 101Q1350 46 1263.50 13Q1177-20 1079-20M417 130Q511 130 609 218L639 248L639 495L462 495Q371 494 315.50 440Q260 386 260 300Q260 219 301.50 174.50Q343 130 417 130M1038 950Q947 950 887.50 863Q828 776 816 640L1239 640L1239 671Q1239 806 1187 878Q1135 950 1038 950Z"  horiz-adv-x="1491" vert-adv-y="2048"  />

      
      <glyph glyph-name="unif0" unicode="&#xf0;" d="M705 1302Q922 1036 922 627L922 535Q922 376 871.50 249.50Q821 123 728.50 51.50Q636-20 521-20Q408-20 315 43Q222 106 170 219Q118 332 118 467Q118 614 166.50 731Q215 848 303 912.50Q391 977 498 977Q623 977 721 877Q679 1062 569 1194L388 1051L320 1150L484 1280Q374 1371 221 1421L275 1580Q473 1527 622 1390L781 1516L849 1416L705 1302M746 635L744 695Q718 754 663.50 789.50Q609 825 542 825Q428 825 361.50 729Q295 633 295 467Q295 326 360 228.50Q425 131 525 131Q623 131 683.50 241Q744 351 746 525L746 635Z"  horiz-adv-x="1051" vert-adv-y="2048"  />

      
      <glyph glyph-name="unif7" unicode="&#xf7;" d="M918 600L79 600L79 784L918 784L918 600M396 1098Q396 1146 422.50 1178Q449 1210 502 1210Q555 1210 582 1178Q609 1146 609 1098Q609 1051 582 1020Q555 989 502 989Q449 989 422.50 1020Q396 1051 396 1098M396 281Q396 329 422.50 361Q449 393 502 393Q555 393 582 361Q609 329 609 281Q609 235 582 203.50Q555 172 502 172Q449 172 422.50 203.50Q396 235 396 281Z"  horiz-adv-x="1024" vert-adv-y="2048"  />

      
      <glyph glyph-name="unif8" unicode="&#xf8;" d="M97 551Q97 796 212 949Q327 1102 512 1102Q602 1102 680 1063L740 1208L854 1208L768 1002Q931 847 931 529Q931 286 816 133Q701-20 514-20Q433-20 358 12L297-134L183-134L268 71Q97 219 97 551M273 529Q273 349 338 239L619 917Q572 950 512 950Q404 950 338.50 842Q273 734 273 529M753 551Q753 719 696 827L418 156Q462 131 514 131Q625 131 689 239.50Q753 348 753 551Z"  horiz-adv-x="1021" vert-adv-y="2048"  />

      
      <glyph glyph-name="unife" unicode="&#xfe;" d="M923 529Q923 282 828 131Q733-20 569-20Q412-20 318 88L318-416L142-416L142 1536L318 1536L318 989Q410 1102 566 1102Q734 1102 828.50 953.50Q923 805 923 529M747 550Q747 730 685 837.50Q623 945 511 945Q385 945 318 807L318 265Q383 131 513 131Q622 131 684.50 238Q747 345 747 550Z"  horiz-adv-x="1041" vert-adv-y="2048"  />

      
      <glyph glyph-name="uni0111" unicode="&#x0111;" d="M1038 1233L876 1233L876 0L714 0L707 99Q615-20 456-20Q352-20 269.50 50Q187 120 141 246.50Q95 373 95 550Q95 798 195 950Q295 1102 457 1102Q607 1102 699 992L699 1233L495 1233L495 1384L699 1384L699 1536L876 1536L876 1384L1038 1384L1038 1233M272 529Q272 343 333 240Q394 137 502 137Q633 137 699 280L699 804Q631 945 503 945Q394 945 333 840.50Q272 736 272 529Z"  horiz-adv-x="1084" vert-adv-y="2048"  />

      
      <glyph glyph-name="uni0126" unicode="&#x0126;" d="M1110 1166L1220 1166L1220 1024L1110 1024L1110 0L926 0L926 673L342 673L342 0L158 0L158 1024L46 1024L46 1166L158 1166L158 1456L342 1456L342 1166L926 1166L926 1456L1110 1456L1110 1166M342 830L926 830L926 1024L342 1024L342 830Z"  horiz-adv-x="1252" vert-adv-y="2048"  />

      
      <glyph glyph-name="uni0131" unicode="&#x0131;" d="M323 0L146 0L146 1082L323 1082L323 0Z"  horiz-adv-x="481" vert-adv-y="2048"  />

      
      <glyph glyph-name="uni0138" unicode="&#x0138;" d="M400 461L324 461L324 0L147 0L147 1082L324 1082L324 624L386 624L705 1082L917 1082L538 560L943 0L721 0L400 461Z"  horiz-adv-x="1006" vert-adv-y="2048"  />

      
      <glyph glyph-name="uni0141" unicode="&#x0141;" d="M341 849L548 927L548 802L341 724L341 157L912 157L912 0L157 0L157 654L53 615L53 740L157 779L157 1456L341 1456L341 849Z"  horiz-adv-x="973" vert-adv-y="2048"  />

      
      <glyph glyph-name="uni0142" unicode="&#x0142;" d="M338 873L464 930L464 807L338 750L338 0L161 0L161 670L51 620L51 743L161 793L161 1536L338 1536L338 873Z"  horiz-adv-x="512" vert-adv-y="2048"  />

      
      <glyph glyph-name="uni014A" unicode="&#x014A;" d="M1085 1456L1085-84Q1085-256 1010.50-346.50Q936-437 804-437Q752-437 707-419L718-265Q751-279 801-279Q900-279 900-70L900 0L333 1095L333 0L150 0L150 1456L333 1456L900 362L900 1456L1085 1456Z"  horiz-adv-x="1227" vert-adv-y="2048"  />

      
      <glyph glyph-name="uni014B" unicode="&#x014B;" d="M296 1082L308 937Q403 1102 567 1102Q719 1102 796.50 995.50Q874 889 875 688L875-89Q875-259 802-348Q729-437 599-437Q550-437 505-419L517-262Q547-275 599-275Q699-275 699-79L699 678Q699 818 655.50 881.50Q612 945 511 945Q383 945 315 827L315 0L138 0L138 1082L296 1082Z"  horiz-adv-x="1021" vert-adv-y="2048"  />

      
      <glyph glyph-name="uni0152" unicode="&#x0152;" d="M1533 0L819 0Q672-21 580-21Q442-21 333.50 54.50Q225 130 165.50 266.50Q106 403 106 576L106 880Q106 1052 164 1187.50Q222 1323 331 1399.50Q440 1476 578 1476Q679 1476 819 1456L1523 1456L1523 1298L933 1298L933 830L1447 830L1447 673L933 673L933 157L1533 157L1533 0M580 130Q663 130 750 143L750 1311Q668 1325 578 1325Q439 1325 361 1209.50Q283 1094 283 880L283 576Q283 367 360.50 248.50Q438 130 580 130Z"  horiz-adv-x="1693" vert-adv-y="2048"  />

      
      <glyph glyph-name="uni0153" unicode="&#x0153;" d="M102 551Q102 797 213 949.50Q324 1102 509 1102Q619 1102 701.50 1049Q784 996 836 903Q891 997 970.50 1049.50Q1050 1102 1140 1102Q1319 1102 1417 976.50Q1515 851 1515 615L1515 497L927 497Q931 326 995.50 228Q1060 130 1168 130Q1323 130 1421 238L1491 112L1479 99Q1366-20 1168-20Q949-20 834 173Q720-20 510-20Q324-20 213 131.50Q102 283 102 537L102 551M279 529Q279 343 340 236.50Q401 130 510 130Q619 130 679.50 236.50Q740 343 740 551Q740 738 678.50 844Q617 950 509 950Q402 950 340.50 844.50Q279 739 279 529M1140 950Q1062 950 1004 863.50Q946 777 932 649L1338 649L1338 675Q1338 803 1285.50 876.50Q1233 950 1140 950Z"  horiz-adv-x="1592" vert-adv-y="2048"  />

      
      <glyph glyph-name="uni017F" unicode="&#x017F;" d="M152 0L152 1199Q153 1370 230 1463.50Q307 1557 446 1557Q494 1557 569 1536L547 1394Q516 1405 475 1405Q329 1405 329 1184L329 0L152 0Z"  horiz-adv-x="480" vert-adv-y="2048"  />

      
      <glyph glyph-name="uni018F" unicode="&#x018F;" d="M596-20Q353-20 220.50 152.50Q88 325 88 650L88 767L921 767L921 774Q921 1032 822.50 1174Q724 1316 544 1316Q411 1316 301 1259L251 1232L209 1375Q250 1416 344.50 1446Q439 1476 544 1476Q803 1476 954.50 1286.50Q1106 1097 1106 764L1106 680Q1106 484 1040 323.50Q974 163 855.50 71.50Q737-20 596-20M596 138Q731 138 818.50 267Q906 396 919 618L272 618L272 584Q272 361 353.50 249.50Q435 138 596 138Z"  horiz-adv-x="1223" vert-adv-y="2048"  />

      
      <glyph glyph-name="uni0192" unicode="&#x0192;" d="M533 939L376 939L376-89Q376-258 302.50-347.50Q229-437 99-437Q48-437 5-419L17-272Q32-279 83-284L99-285Q199-285 199-73L199 939L58 939L58 1082L199 1082L199 1201Q200 1374 277.50 1465.50Q355 1557 491 1557Q539 1557 614 1536L593 1389Q565 1399 514 1399Q378 1399 376 1203L376 1082L533 1082L533 939Z"  horiz-adv-x="634" vert-adv-y="2048"  />

      
      <glyph glyph-name="uni01A0" unicode="&#x01A0;" d="M1090 681Q1090 358 956 169Q822-20 594-20Q448-20 334.50 65.50Q221 151 158 310.50Q95 470 95 678L95 773Q95 981 157 1141.50Q219 1302 332.50 1389Q446 1476 592 1476Q795 1476 926 1323Q1001 1336 1033 1405.50Q1065 1475 1065 1591L1224 1591Q1224 1433 1169 1333.50Q1114 1234 1005 1201Q1087 1034 1090 789L1090 681M909 775Q909 1031 826.50 1171Q744 1311 592 1311Q444 1311 360.50 1166.50Q277 1022 277 773L277 681Q277 431 362 287Q447 143 594 143Q745 143 827 281.50Q909 420 909 681L909 775Z"  horiz-adv-x="1214" vert-adv-y="2048"  />

      
      <glyph glyph-name="uni01A1" unicode="&#x01A1;" d="M97 551Q97 796 212 949Q327 1102 512 1102Q688 1102 802 965Q857 977 880.50 1026.50Q904 1076 904 1200L1045 1200Q1045 1054 1002 970.50Q959 887 869 859Q930 725 931 556L931 529Q931 286 816 133Q701-20 514-20Q327-20 212 131.50Q97 283 97 537L97 551M273 529Q273 348 338 239.50Q403 131 514 131Q625 131 689 239.50Q753 348 753 551Q753 734 687 842Q621 950 512 950Q404 950 338.50 842Q273 734 273 529Z"  horiz-adv-x="1030" vert-adv-y="2048"  />

      
      <glyph glyph-name="uni01AF" unicode="&#x01AF;" d="M1025 1456L1025 1243Q1118 1254 1159 1321.50Q1200 1389 1200 1538L1350 1538Q1350 1328 1271.50 1223.50Q1193 1119 1025 1107L1025 457Q1021 240 896.50 110Q772-20 576-20Q375-20 254.50 107Q134 234 130 456L130 1456L312 1456L312 465Q313 309 381 223Q449 137 576 137Q704 137 772 223Q840 309 841 466L841 1456L1025 1456Z"  horiz-adv-x="1246" vert-adv-y="2048"  />

      
      <glyph glyph-name="uni01B0" unicode="&#x01B0;" d="M1125 1168Q1125 991 1063 916Q1001 841 856 837L856 0L688 0L684 95Q596-20 427-20Q280-20 205 81.50Q130 183 129 377L129 1082L305 1082L305 390Q305 137 457 137Q618 137 679 281L679 1082L856 1082L856 951Q925 952 955.50 980.50Q986 1009 990 1078L992 1168L1125 1168Z"  horiz-adv-x="1126" vert-adv-y="2048"  />

      
      <glyph glyph-name="uni0237" unicode="&#x0237;" d="M339 1082L339-89Q339-259 266-348Q193-437 62-437Q12-437-31-419L-19-272Q-9-277 20.50-281Q50-285 62-285Q162-285 162-73L162 1082L339 1082Z"  horiz-adv-x="487" vert-adv-y="2048"  />

      
      <glyph glyph-name="uni0259" unicode="&#x0259;" d="M451 1103Q641 1103 755 954.50Q869 806 869 555L869 518Q869 367 815 242Q761 117 669 48Q577-21 479-19Q299-19 201.50 106Q104 231 104 468L104 584L692 584Q688 755 624 853.50Q560 952 451 952Q298 952 197 844L129 969Q241 1103 451 1103M479 132Q555 132 612.50 213Q670 294 687 433L281 433L281 407Q281 279 333.50 205.50Q386 132 479 132Z"  horiz-adv-x="954" vert-adv-y="2048"  />

      
      <glyph glyph-name="uni02C6" unicode="&#x02C6;" d="M689 1262L689 1252L547 1252L427 1422L307 1252L165 1252L165 1264L374 1536L479 1536L689 1262Z"  horiz-adv-x="877" vert-adv-y="2048"  />

      
      <glyph glyph-name="uni02C7" unicode="&#x02C7;" d="M406 1365L525 1535L676 1535L676 1525L457 1251L353 1251L138 1525L138 1535L286 1535L406 1365Z"  horiz-adv-x="827" vert-adv-y="2048"  />

      
      <glyph glyph-name="uni02C9" unicode="&#x02C9;" d="M722 1302L141 1302L141 1445L722 1445L722 1302Z"  horiz-adv-x="849" vert-adv-y="2048"  />

      
      <glyph glyph-name="uni02D8" unicode="&#x02D8;" d="M728 1495Q728 1374 645.50 1300.50Q563 1227 429 1227Q295 1227 212 1301Q129 1375 129 1495L280 1495Q280 1425 318 1385.50Q356 1346 429 1346Q499 1346 538.50 1385Q578 1424 578 1495L728 1495Z"  horiz-adv-x="874" vert-adv-y="2048"  />

      
      <glyph glyph-name="uni02D9" unicode="&#x02D9;" d="M141 1367Q141 1412 168.50 1443Q196 1474 250 1474Q304 1474 332 1443Q360 1412 360 1367Q360 1322 332 1292Q304 1262 250 1262Q196 1262 168.50 1292Q141 1322 141 1367Z"  horiz-adv-x="497" vert-adv-y="2048"  />

      
      <glyph glyph-name="uni02DA" unicode="&#x02DA;" d="M551 1408Q551 1321 489 1262.50Q427 1204 336 1204Q244 1204 182.50 1263Q121 1322 121 1408Q121 1494 182.50 1555Q244 1616 336 1616Q428 1616 489.50 1555Q551 1494 551 1408M220 1408Q220 1361 253.50 1327Q287 1293 336 1293Q384 1293 418 1326Q452 1359 452 1408Q452 1457 418.50 1491.50Q385 1526 336 1526Q286 1526 253 1491Q220 1456 220 1408Z"  horiz-adv-x="685" vert-adv-y="2048"  />

      
      <glyph glyph-name="uni02DB" unicode="&#x02DB;" d="M352 0Q273-70 242-121.50Q211-173 211-222Q211-294 274-294Q312-294 357-268L367-389Q305-433 227-433Q150-433 104.50-381.50Q59-330 59-243Q59-57 284 56L352 0Z"  horiz-adv-x="519" vert-adv-y="2048"  />

      
      <glyph glyph-name="uni02DC" unicode="&#x02DC;" d="M733 1500Q733 1395 681 1326.50Q629 1258 547 1258Q512 1258 487 1268.50Q462 1279 422 1309.50Q382 1340 364 1346.50Q346 1353 323 1353Q289 1353 266.50 1321Q244 1289 244 1241L129 1248Q129 1357 182 1426Q235 1495 314 1495Q344 1495 368 1483.50Q392 1472 428.50 1446Q465 1420 488 1409.50Q511 1399 538 1399Q572 1399 595 1431.50Q618 1464 618 1512L733 1500Z"  horiz-adv-x="875" vert-adv-y="2048"  />

      
      <glyph glyph-name="uni02DD" unicode="&#x02DD;" d="M519 1535L713 1535L490 1232L333 1232L519 1535M224 1535L409 1535L230 1232L91 1232L224 1535Z"  horiz-adv-x="679" vert-adv-y="2048"  />

      
      <glyph glyph-name="uni02F3" unicode="&#x02F3;" d="M116-242Q116-169 161-122Q206-75 268-75Q330-75 373-122Q416-169 416-242Q416-313 374-359Q332-405 268-405Q203-405 159.50-358.50Q116-312 116-242M193-242Q193-277 215.50-301Q238-325 268-325Q297-325 318-301Q339-277 339-242Q339-206 318-181Q297-156 268-156Q238-156 215.50-181Q193-206 193-242Z"  horiz-adv-x="539" vert-adv-y="2048"  />

      
      <glyph glyph-name="uni0300" unicode="&#x0300;" d="M-342 1242L-491 1242L-718 1536L-505 1536L-342 1242Z"   vert-adv-y="2048"  />

      
      <glyph glyph-name="uni0301" unicode="&#x0301;" d="M-382 1536L-169 1536L-406 1242L-545 1242L-382 1536Z"   vert-adv-y="2048"  />

      
      <glyph glyph-name="uni0303" unicode="&#x0303;" d="M-129 1500Q-129 1395-181 1326.50Q-233 1258-315 1258Q-350 1258-375 1268.50Q-400 1279-440 1309.50Q-480 1340-498 1346.50Q-516 1353-539 1353Q-573 1353-595.50 1321Q-618 1289-618 1241L-733 1248Q-733 1357-680 1426Q-627 1495-548 1495Q-518 1495-494 1483.50Q-470 1472-433.50 1446Q-397 1420-374 1409.50Q-351 1399-324 1399Q-290 1399-267 1431.50Q-244 1464-244 1512L-129 1500Z"   vert-adv-y="2048"  />

      
      <glyph glyph-name="uni0309" unicode="&#x0309;" d="M-536 1241L-537 1394Q-478 1398-450.50 1413.50Q-423 1429-423 1468Q-423 1546-551 1546L-545 1652Q-416 1652-352 1600.50Q-288 1549-288 1464Q-288 1400-320.50 1361Q-353 1322-411 1312L-412 1241L-536 1241Z"   vert-adv-y="2048"  />

      
      <glyph glyph-name="uni030F" unicode="&#x030F;" d="M-394 1252L-552 1252L-810 1518L-598 1518L-394 1252M-169 1252L-308 1252L-514 1518L-320 1518L-169 1252Z"   vert-adv-y="2048"  />

      
      <glyph glyph-name="uni0323" unicode="&#x0323;" d="M-712-245Q-712-200-684.50-169Q-657-138-603-138Q-549-138-521-169Q-493-200-493-245Q-493-290-521-320Q-549-350-603-350Q-657-350-684.50-320Q-712-290-712-245Z"   vert-adv-y="2048"  />

      
      <glyph glyph-name="uni0384" unicode="&#x0384;" d="M237 1599L411 1599L295 1262L183 1262L237 1599Z"  horiz-adv-x="525" vert-adv-y="2048"  />

      
      <glyph glyph-name="uni0385" unicode="&#x0385;" d="M426 1672L602 1672L508 1408L382 1408L426 1672M202 1477Q253 1477 278 1446.50Q303 1416 303 1371Q303 1326 278 1296Q253 1266 202 1266Q152 1266 127 1296Q102 1326 102 1371Q102 1416 127 1446.50Q152 1477 202 1477M598 1369Q598 1413 623 1444.50Q648 1476 698 1476Q748 1476 773.50 1445Q799 1414 799 1369Q799 1324 773.50 1294Q748 1264 698 1264Q647 1264 622.50 1294Q598 1324 598 1369Z"  horiz-adv-x="927" vert-adv-y="2048"  />

      
      <glyph glyph-name="uni0387" unicode="&#x0387;" d="M138 729Q138 777 164.50 809Q191 841 244 841Q297 841 324 809Q351 777 351 729Q351 682 324 650.50Q297 619 244 619Q191 619 164.50 650.50Q138 682 138 729Z"  horiz-adv-x="499" vert-adv-y="2048"  />

      
      <glyph glyph-name="uni0393" unicode="&#x0393;" d="M923 1298L350 1298L350 0L166 0L166 1456L923 1456L923 1298Z"  horiz-adv-x="999" vert-adv-y="2048"  />

      
      <glyph glyph-name="uni0394" unicode="&#x0394;" d="M558 1456L718 1456L1198 0L42 0L558 1456M283 157L960 157L635 1185L283 157Z"  horiz-adv-x="1258" vert-adv-y="2048"  />

      
      <glyph glyph-name="uni2206" unicode="&#x2206;" d="M558 1456L718 1456L1198 0L42 0L558 1456M283 157L960 157L635 1185L283 157Z"  horiz-adv-x="1258" vert-adv-y="2048"  />

      
      <glyph glyph-name="uni0398" unicode="&#x0398;" d="M825 659L402 659L402 811L825 811L825 659M1097 681Q1097 467 1035 306.50Q973 146 861 63Q749-20 601-20Q455-20 342.50 64Q230 148 166.50 306.50Q103 465 102 672L102 773Q102 981 163 1141Q224 1301 337.50 1388.50Q451 1476 599 1476Q747 1476 860 1391.50Q973 1307 1034.50 1149Q1096 991 1097 781L1097 681M915 775Q915 1031 832.50 1171Q750 1311 599 1311Q455 1311 370.50 1172.50Q286 1034 284 787L284 681Q284 432 368 287.50Q452 143 601 143Q751 143 833 281.50Q915 420 915 681L915 775Z"  horiz-adv-x="1215" vert-adv-y="2048"  />

      
      <glyph glyph-name="uni039B" unicode="&#x039B;" d="M581 1135L253 0L56 0L501 1456L662 1456L1108 0L910 0L581 1135Z"  horiz-adv-x="1172" vert-adv-y="2048"  />

      
      <glyph glyph-name="uni039E" unicode="&#x039E;" d="M122 157L914 157L914 0L122 0L122 157M192 831L837 831L837 674L192 674L192 831M123 1456L904 1456L904 1298L123 1298L123 1456Z"  horiz-adv-x="1030" vert-adv-y="2048"  />

      
      <glyph glyph-name="uni03A0" unicode="&#x03A0;" d="M1103 0L919 0L919 1298L349 1298L349 0L166 0L166 1456L1103 1456L1103 0Z"  horiz-adv-x="1271" vert-adv-y="2048"  />

      
      <glyph glyph-name="uni03A3" unicode="&#x03A3;" d="M669 718L294 157L944 157L944 0L80 0L80 143L473 729L80 1312L80 1456L905 1456L905 1298L296 1298L669 742L669 718Z"  horiz-adv-x="1030" vert-adv-y="2048"  />

      
      <glyph glyph-name="uni03A6" unicode="&#x03A6;" d="M733 1271Q936 1267 1067 1114.50Q1198 962 1198 724Q1198 569 1139 443.50Q1080 318 973.50 248.50Q867 179 733 175L733 0L548 0L548 175Q341 179 211 330.50Q81 482 81 722Q81 878 140 1003Q199 1128 306 1198Q413 1268 548 1271L548 1456L733 1456L733 1271M263 722Q263 538 336 438Q409 338 548 334L548 1112Q409 1108 336 1006.50Q263 905 263 722M1016 724Q1016 906 942.50 1006.50Q869 1107 733 1111L733 334Q872 340 944 439.50Q1016 539 1016 724Z"  horiz-adv-x="1273" vert-adv-y="2048"  />

      
      <glyph glyph-name="uni03A8" unicode="&#x03A8;" d="M691 525Q810 552 877 657Q944 762 945 926L945 1456L1129 1456L1129 927Q1129 771 1074.50 648Q1020 525 920.50 452Q821 379 691 363L691 0L507 0L507 363Q310 391 197.50 542Q85 693 85 929L85 1456L268 1456L268 930Q268 767 331.50 661.50Q395 556 507 527L507 1456L691 1456L691 525Z"  horiz-adv-x="1229" vert-adv-y="2048"  />

      
      <glyph glyph-name="uni03A9" unicode="&#x03A9;" d="M635 162Q748 189 809.50 326.50Q871 464 873 710L873 841Q873 1070 796.50 1194Q720 1318 584 1318Q450 1318 373.50 1194Q297 1070 297 840L297 726Q297 469 361 328.50Q425 188 541 162L541 0L118 0L118 157L303 157Q216 254 163.50 405.50Q111 557 111 725L111 839Q111 1025 170 1170Q229 1315 337.50 1395.50Q446 1476 584 1476Q721 1476 829.50 1397Q938 1318 998.50 1172Q1059 1026 1059 840L1059 726Q1059 558 1006.50 406Q954 254 867 157L1050 157L1050 0L635 0L635 162Z"  horiz-adv-x="1191" vert-adv-y="2048"  />

      
      <glyph glyph-name="uni2126" unicode="&#x2126;" d="M635 162Q748 189 809.50 326.50Q871 464 873 710L873 841Q873 1070 796.50 1194Q720 1318 584 1318Q450 1318 373.50 1194Q297 1070 297 840L297 726Q297 469 361 328.50Q425 188 541 162L541 0L118 0L118 157L303 157Q216 254 163.50 405.50Q111 557 111 725L111 839Q111 1025 170 1170Q229 1315 337.50 1395.50Q446 1476 584 1476Q721 1476 829.50 1397Q938 1318 998.50 1172Q1059 1026 1059 840L1059 726Q1059 558 1006.50 406Q954 254 867 157L1050 157L1050 0L635 0L635 162Z"  horiz-adv-x="1191" vert-adv-y="2048"  />

      
      <glyph glyph-name="uni03B1" unicode="&#x03B1;" d="M874 1082L874 289Q875 145 934 145Q948 145 958 150L979 13Q936-21 869-21Q749-21 714 128Q623-21 456-21Q293-21 196.50 119.50Q100 260 100 521Q100 788 196.50 945Q293 1102 457 1102Q620 1102 711 959L725 1082L874 1082M277 500Q277 319 336 224.50Q395 130 502 130Q632 130 698 294L698 783Q629 950 503 950Q395 950 336 839Q277 728 277 500Z"  horiz-adv-x="1013" vert-adv-y="2048"  />

      
      <glyph glyph-name="uni03B2" unicode="&#x03B2;" d="M532 1476Q696 1476 796.50 1367Q897 1258 897 1083Q897 992 854.50 916Q812 840 737 793Q838 748 893 650.50Q948 553 948 424Q948 221 843 100.50Q738-20 566-20Q424-20 326 63L326-384L149-384L149 1074Q149 1180 201 1274Q253 1368 342.50 1422Q432 1476 532 1476M721 1087Q721 1190 667.50 1257Q614 1324 532 1324Q446 1324 386 1253.50Q326 1183 326 1069L326 234Q401 131 547 131Q649 131 710.50 209.50Q772 288 772 420Q772 538 719 621.50Q666 705 583 706L461 706L461 858L535 858Q626 860 673.50 919.50Q721 979 721 1087Z"  horiz-adv-x="1059" vert-adv-y="2048"  />

      
      <glyph glyph-name="uni03B3" unicode="&#x03B3;" d="M464 311L682 1082L861 1082L549 65L549-416L372-416L372 77L59 1082L239 1082L464 311Z"  horiz-adv-x="910" vert-adv-y="2048"  />

      
      <glyph glyph-name="uni03B4" unicode="&#x03B4;" d="M207 1269Q207 1407 293 1485.50Q379 1564 528 1564Q640 1564 752 1509L753 1349Q704 1375 638.50 1391.50Q573 1408 524 1408Q458 1408 421.50 1372Q385 1336 385 1274Q385 1161 563.50 1086.50Q742 1012 828 878Q914 744 918 547L918 509Q918 273 807.50 126.50Q697-20 511-20Q323-20 212.50 126.50Q102 273 102 530Q102 699 179 829.50Q256 960 375 994L374 999Q297 1038 252 1108Q207 1178 207 1269M280 509Q280 333 341.50 231.50Q403 130 511 130Q617 130 678.50 229.50Q740 329 740 530Q740 669 675.50 777.50Q611 886 510 910Q405 910 342.50 808Q280 706 280 509Z"  horiz-adv-x="1021" vert-adv-y="2048"  />

      
      <glyph glyph-name="uni03B5" unicode="&#x03B5;" d="M279 304Q279 228 335 178.50Q391 129 483 129Q569 129 628.50 184Q688 239 688 320L864 320Q864 164 756.50 72Q649-20 483-20Q312-20 206 67.50Q100 155 100 304Q100 490 273 556Q199 592 157.50 653Q116 714 116 787Q116 936 214 1018.50Q312 1101 483 1101Q640 1101 744.50 1011.50Q849 922 849 780L673 780Q673 851 619 901Q565 951 483 951Q395 951 344 904.50Q293 858 293 786Q293 626 478 626L649 626L649 478L463 478Q279 475 279 304Z"  horiz-adv-x="964" vert-adv-y="2048"  />

      
      <glyph glyph-name="uni03B6" unicode="&#x03B6;" d="M841 1456L841 1336L562 909Q436 728 396.50 618.50Q357 509 357 386Q357 290 380 243Q403 196 461 171L663 104Q738 79 770 34.50Q802-10 802-88Q800-158 754-242.50Q708-327 649-383L557-299Q633-201 633-116Q633-48 506-9L435 13Q295 56 237.50 137Q180 218 180 381Q180 510 246 674Q312 838 422 988L653 1304L123 1304L123 1456L841 1456Z"  horiz-adv-x="948" vert-adv-y="2048"  />

      
      <glyph glyph-name="uni03B7" unicode="&#x03B7;" d="M296 1082L306 956Q408 1102 567 1102Q727 1102 800 1003.50Q873 905 875 705L875-415L699-415L699 691Q699 827 656.50 888.50Q614 950 511 950Q377 950 315 800L315 0L137 0L137 1082L296 1082Z"  horiz-adv-x="1021" vert-adv-y="2048"  />

      
      <glyph glyph-name="uni03B8" unicode="&#x03B8;" d="M898 640Q898 319 796.50 149.50Q695-20 508-20Q323-20 220.50 148.50Q118 317 117 633L117 825Q117 1140 217.50 1308Q318 1476 507 1476Q694 1476 794 1314Q894 1152 898 848L898 640M294 801L720 801L720 856Q720 1083 665.50 1203.50Q611 1324 507 1324Q404 1324 349 1203.50Q294 1083 294 856L294 801M720 649L294 649L294 610Q294 388 349.50 259.50Q405 131 508 131Q611 131 665.50 256Q720 381 720 611L720 649Z"  horiz-adv-x="1017" vert-adv-y="2048"  />

      
      <glyph glyph-name="uni03B9" unicode="&#x03B9;" d="M364 1082L364 263Q367 146 457 146Q503 146 527 158L526 7Q469-12 401-12Q298-12 243 61Q188 134 188 275L188 1082L364 1082Z"  horiz-adv-x="613" vert-adv-y="2048"  />

      
      <glyph glyph-name="uni03BB" unicode="&#x03BB;" d="M242 1518Q323 1518 374 1477Q425 1436 453 1343L820 234Q835 183 851.50 163.50Q868 144 894 144Q915 144 925 147L929-5Q896-17 860-17Q775-17 732.50 25Q690 67 655 165L459 756L244 0L47 0L371 1020L285 1264Q267 1321 247 1343.50Q227 1366 195 1366L155 1364L156 1506Q187 1518 242 1518Z"  horiz-adv-x="995" vert-adv-y="2048"  />

      
      <glyph glyph-name="uni03BE" unicode="&#x03BE;" d="M754 1288Q646 1324 569 1324Q457 1324 392.50 1272.50Q328 1221 328 1136Q328 917 595 917L710 917L710 765L585 765Q431 764 353.50 686.50Q276 609 276 444Q276 334 331 255Q386 176 488 142L568 120Q685 88 727.50 62Q770 36 790.50-2.50Q811-41 811-101Q811-166 766.50-250Q722-334 660-393L558-309Q612-242 627.50-206Q643-170 643-123Q643-84 613-62Q583-40 482-11.50Q381 17 316 48Q99 151 99 448Q99 599 171 698.50Q243 798 366 842Q265 884 208 960Q151 1036 151 1132Q151 1291 261.50 1383.50Q372 1476 567 1476Q695 1476 780 1437L754 1288Z"  horiz-adv-x="883" vert-adv-y="2048"  />

      
      <glyph glyph-name="uni03C0" unicode="&#x03C0;" d="M976 929L855 929L855 275Q855 209 876 177.50Q897 146 948 146Q993 146 1017 158L1017 7Q960-12 892-12Q787-12 733 62Q679 136 678 270L678 929L365 929L365 0L189 0L189 929L51 929L51 1082L976 1082L976 929Z"  horiz-adv-x="1065" vert-adv-y="2048"  />

      
      <glyph glyph-name="uni03C1" unicode="&#x03C1;" d="M517 1102Q705 1102 810 949Q915 796 915 500Q915 263 822 121.50Q729-20 565-20Q410-20 315 87L315-416L137-416L137 581Q137 737 185.50 855.50Q234 974 321 1038Q408 1102 517 1102M315 265Q380 131 510 131Q618 131 678.50 227.50Q739 324 739 521Q739 729 681 839.50Q623 950 517 950Q427 950 371 841Q315 732 315 565L315 265Z"  horiz-adv-x="1021" vert-adv-y="2048"  />

      
      <glyph glyph-name="uni03C2" unicode="&#x03C2;" d="M501 1102Q663 1102 760.50 996Q858 890 858 709L692 709Q692 823 641 886.50Q590 950 501 950Q398 950 338 841.50Q278 733 278 552L278 520Q278 258 534 161L655 120Q734 92 769.50 44Q805-4 805-82Q803-148 758-232Q713-316 652-374L560-289Q610-224 623-188.50Q636-153 636-105Q636-60 604.50-38.50Q573-17 505 1Q122 100 102 475L101 562Q101 714 151 839Q201 964 292 1033Q383 1102 501 1102Z"  horiz-adv-x="967" vert-adv-y="2048"  />

      
      <glyph glyph-name="uni03C3" unicode="&#x03C3;" d="M988 929L756 929Q918 779 918 509L918 491Q918 351 865.50 231.50Q813 112 720.50 46Q628-20 510-20Q325-20 213.50 131.50Q102 283 102 536L102 551Q102 787 213 934.50Q324 1082 511 1082L988 1082L988 929M279 529Q279 347 340 239Q401 131 510 131Q619 131 680 238Q741 345 741 551Q741 723 680 826Q619 929 508 929Q399 929 339 826Q279 723 279 529Z"  horiz-adv-x="1021" vert-adv-y="2048"  />

      
      <glyph glyph-name="uni03C4" unicode="&#x03C4;" d="M852 932L551 932L551 269Q551 136 627 136Q666 136 701 162L742 32Q674-20 578-20Q380-20 374 259L374 932L89 932L89 1082L852 1082L852 932Z"  horiz-adv-x="944" vert-adv-y="2048"  />

      
      <glyph glyph-name="uni03C5" unicode="&#x03C5;" d="M313 1082L313 439Q313 130 470 130Q572 130 640.50 257.50Q709 385 709 562Q704 791 604 1082L788 1082Q885 848 885 562Q885 297 775 138.50Q665-20 478-20Q310-20 223.50 92Q137 204 136 422L136 1082L313 1082Z"  horiz-adv-x="985" vert-adv-y="2048"  />

      
      <glyph glyph-name="uni03C6" unicode="&#x03C6;" d="M536-16Q321 8 203 159Q85 310 85 564Q85 913 299 1082L396 949Q272 818 262 564Q262 393 336 279.50Q410 166 536 139L536 853Q536 959 596 1020.50Q656 1082 759 1082Q871 1082 968 1011.50Q1065 941 1122 816.50Q1179 692 1179 544Q1179 302 1058 155.50Q937 9 712-16L712-478L536-478L536-16M712 138Q847 163 924.50 271.50Q1002 380 1002 544Q997 716 931 822.50Q865 929 759 929Q712 929 712 851L712 138Z"  horiz-adv-x="1265" vert-adv-y="2048"  />

      
      <glyph glyph-name="uni03C8" unicode="&#x03C8;" d="M703 1082L703 138Q837 165 915 280.50Q993 396 993 567Q988 798 891 1082L1074 1082Q1170 850 1170 567Q1170 309 1049.50 158Q929 7 703-16L703-472L527-472L527-14Q311 14 201 168Q91 322 91 595L91 1082L269 1082L269 599Q269 199 527 139L527 1082L703 1082Z"  horiz-adv-x="1255" vert-adv-y="2048"  />

      
      <glyph glyph-name="uni03C9" unicode="&#x03C9;" d="M415 1082Q301 803 294 560Q294 354 338 242Q382 130 464 130Q545 130 590 212Q635 294 637 457L637 770L815 770L815 463Q816 298 861 214Q906 130 988 130Q1070 130 1114 241.50Q1158 353 1158 560Q1151 803 1037 1082L1222 1082Q1334 843 1334 560Q1334 279 1246.50 129.50Q1159-20 998-20Q797-20 726 213Q655-20 454-20Q293-20 205.50 129.50Q118 279 118 560Q118 848 230 1082L415 1082Z"  horiz-adv-x="1457" vert-adv-y="2048"  />

      
      <glyph glyph-name="uni03D1" unicode="&#x03D1;" d="M983 627Q930 603 870 596L870 424Q867 216 770 98Q673-20 503-20Q331-20 226 100.50Q121 221 118 425L118 769L295 771L295 435Q295 292 350 214.50Q405 137 503 137Q593 137 643.50 209.50Q694 282 694 435L694 603Q509 642 400 783.50Q291 925 291 1131Q291 1291 370.50 1384.50Q450 1478 582 1478Q717 1478 793.50 1380Q870 1282 870 1103L870 753Q930 762 977 776L983 627M469 1114Q469 992 529.50 897.50Q590 803 694 768L694 1124Q690 1320 582 1320Q472 1320 469 1140L469 1114Z"  horiz-adv-x="1039" vert-adv-y="2048"  />

      
      <glyph glyph-name="uni03D2" unicode="&#x03D2;" d="M478 799L671 1302Q706 1392 748 1430Q790 1468 858 1468Q917 1468 966 1441L933 1290Q922 1298 895 1298Q844 1298 823 1219L569 575L569 0L386 0L386 577L134 1219Q112 1298 62 1298Q33 1298 22 1290L-9 1440Q40 1468 98 1468Q172 1468 218 1422Q264 1376 297 1282L478 799Z"  horiz-adv-x="953" vert-adv-y="2048"  />

      
      <glyph glyph-name="uni03D6" unicode="&#x03D6;" d="M1330 929L1218 929Q1271 749 1271 560Q1271 281 1192.50 130.50Q1114-20 970-20Q770-20 699 213Q630-20 429-20Q283-20 205.50 131Q128 282 128 560Q128 749 181 929L88 929L88 1082L1330 1082L1330 929M1093 560Q1089 732 1028 929L370 929Q309 732 305 560Q305 352 340 241Q375 130 438 130Q519 130 564 212Q609 294 611 457L611 722L789 722L789 481Q789 130 962 130Q1025 130 1059 242Q1093 354 1093 560Z"  horiz-adv-x="1390" vert-adv-y="2048"  />

      
      <glyph glyph-name="uni0402" unicode="&#x0402;" d="M1003 1298L579 1298L579 846Q712 891 808 891Q1017 891 1133.50 772Q1250 653 1250 433Q1250 218 1139 103.50Q1028-11 826-11L824 139Q947 139 1006.50 208.50Q1066 278 1066 432Q1062 724 807 724Q692 724 579 682L579 0L394 0L394 1298L51 1298L51 1456L1003 1456L1003 1298Z"  horiz-adv-x="1333" vert-adv-y="2048"  />

      
      <glyph glyph-name="uni0404" unicode="&#x0404;" d="M1074 462Q1051 228 930 104Q809-20 605-20Q388-20 254.50 163Q121 346 120 651L120 799Q120 1000 181 1154.50Q242 1309 356.50 1392.50Q471 1476 622 1476Q817 1476 934.50 1350Q1052 1224 1074 988L890 988Q869 1167 804 1242.50Q739 1318 622 1318Q472 1318 389 1185.50Q306 1053 304 813L771 813L771 656L304 656L304 654Q304 411 382.50 274Q461 137 605 137Q733 137 799 207Q865 277 889 462L1074 462Z"  horiz-adv-x="1208" vert-adv-y="2048"  />

      
      <glyph glyph-name="uni0409" unicode="&#x0409;" d="M1098 891L1391 891Q1517 891 1612 835.50Q1707 780 1757.50 679Q1808 578 1808 445Q1808 243 1695 122Q1582 1 1391 0L914 0L914 1298L501 1298L479 686Q467 418 428 277Q389 136 314 69Q239 2 117 0L60 0L60 157L95 159Q167 165 207 212.50Q247 260 268.50 363.50Q290 467 299 687L325 1456L1098 1456L1098 891M1098 733L1098 157L1389 157Q1499 157 1562 237Q1625 317 1625 447Q1625 574 1563.50 652.50Q1502 731 1396 733L1098 733Z"  horiz-adv-x="1892" vert-adv-y="2048"  />

      
      <glyph glyph-name="uni040A" unicode="&#x040A;" d="M350 825L919 825L919 1456L1103 1456L1103 846L1392 846Q1590 846 1701.50 733Q1813 620 1813 428Q1813 234 1701 117Q1589 0 1391 0L919 0L919 668L350 668L350 0L166 0L166 1456L350 1456L350 825M1103 689L1103 166L1395 166Q1506 166 1568 238Q1630 310 1630 430Q1630 545 1570 616Q1510 687 1402 689L1103 689Z"  horiz-adv-x="1899" vert-adv-y="2048"  />

      
      <glyph glyph-name="uni040B" unicode="&#x040B;" d="M1024 1298L591 1298L591 870Q712 906 860 906Q1069 906 1172 798.50Q1275 691 1279 473L1279 0L1094 0L1094 463Q1093 616 1040 682Q987 748 860 748Q732 748 591 710L591 0L407 0L407 1298L75 1298L75 1456L1024 1456L1024 1298Z"  horiz-adv-x="1445" vert-adv-y="2048"  />

      
      <glyph glyph-name="uni040F" unicode="&#x040F;" d="M165 1456L349 1456L349 157L918 157L918 1456L1102 1456L1102 0L732 0L732-359L547-359L547 0L165 0L165 1456Z"  horiz-adv-x="1272" vert-adv-y="2048"  />

      
      <glyph glyph-name="uni0411" unicode="&#x0411;" d="M908 1298L335 1298L335 862L629 862Q825 861 936 747.50Q1047 634 1047 435Q1047 235 934.50 117.50Q822 0 623 0L151 0L151 1456L908 1456L908 1298M335 704L335 157L627 157Q739 157 801 234Q863 311 863 437Q863 561 801.50 632.50Q740 704 628 704L335 704Z"  horiz-adv-x="1126" vert-adv-y="2048"  />

      
      <glyph glyph-name="uni0414" unicode="&#x0414;" d="M1114 157L1285 157L1283-357L1100-357L1100 0L240 0L240-358L56-358L55 157L162 157Q232 246 276.50 425Q321 604 333 825L361 1456L1114 1456L1114 157M357 157L930 157L930 1298L539 1298L518 828Q506 597 463 429.50Q420 262 357 157Z"  horiz-adv-x="1352" vert-adv-y="2048"  />

      
      <glyph glyph-name="uni0416" unicode="&#x0416;" d="M1040 664L913 664L913 0L729 0L729 664L594 664L272 0L44 0L447 773L76 1456L292 1456L594 824L729 824L729 1456L913 1456L913 824L1041 824L1343 1456L1558 1456L1188 774L1590 0L1363 0L1040 664Z"  horiz-adv-x="1620" vert-adv-y="2048"  />

      
      <glyph glyph-name="uni0417" unicode="&#x0417;" d="M769 1065Q769 1182 702.50 1250Q636 1318 518 1318Q418 1318 351.50 1248Q285 1178 285 1073L102 1073Q102 1252 221 1364Q340 1476 518 1476Q725 1476 839 1366Q953 1256 953 1062Q953 961 900 878Q847 795 754 747Q971 660 971 406Q971 208 846.50 94Q722-20 518-20Q430-20 348.50 8.50Q267 37 206 95Q84 210 84 404L267 404Q267 290 337.50 213Q408 136 518 136Q641 136 714.50 208.50Q788 281 788 402Q788 656 545 663L395 663L395 821L532 821Q648 821 708.50 884Q769 947 769 1065Z"  horiz-adv-x="1060" vert-adv-y="2048"  />

      
      <glyph glyph-name="uni0418" unicode="&#x0418;" d="M916 1456L1099 1456L1099 0L916 0L916 1122L349 0L165 0L165 1456L349 1456L349 334L916 1456Z"  horiz-adv-x="1268" vert-adv-y="2048"  />

      
      <glyph glyph-name="uni041B" unicode="&#x041B;" d="M1093 1456L1093 0L909 0L909 1298L502 1298L480 686Q468 418 429 277Q390 136 315 69Q240 2 118 0L62 0L62 157L96 159Q169 165 210 215.50Q251 266 272 376Q293 486 302 712L326 1456L1093 1456Z"  horiz-adv-x="1261" vert-adv-y="2048"  />

      
      <glyph glyph-name="uni0423" unicode="&#x0423;" d="M578 640L838 1456L1050 1456L631 243Q585 126 548.50 78.50Q512 31 461 5Q410-21 333-21Q264-21 246-12L250 140L329 136Q409 136 444 233L492 376L92 1456L296 1456L578 640Z"  horiz-adv-x="1122" vert-adv-y="2048"  />

      
      <glyph glyph-name="uni0424" unicode="&#x0424;" d="M787 1310L812 1310Q947 1309 1061.50 1233Q1176 1157 1240 1023.50Q1304 890 1304 725Q1304 559 1240 424.50Q1176 290 1062 213.50Q948 137 811 136L787 136L787-60L610-60L610 136L586 136Q448 136 334 212Q220 288 156 423Q92 558 92 723Q92 889 156.50 1024Q221 1159 334.50 1234.50Q448 1310 587 1310L610 1310L610 1516L787 1516L787 1310M586 1159Q438 1159 352.50 1044Q267 929 267 723Q267 518 351 403.50Q435 289 584 288L610 288L610 1159L586 1159M787 1159L787 288L810 288Q959 288 1043.50 405Q1128 522 1128 725Q1128 923 1045.50 1039.50Q963 1156 817 1159L787 1159Z"  horiz-adv-x="1386" vert-adv-y="2048"  />

      
      <glyph glyph-name="uni0426" unicode="&#x0426;" d="M166 1456L350 1456L350 157L919 157L919 1456L1102 1456L1102 161L1234 161L1216-351L1052-351L1052 0L166 0L166 1456Z"  horiz-adv-x="1309" vert-adv-y="2048"  />

      
      <glyph glyph-name="uni0427" unicode="&#x0427;" d="M1063 1456L1063 0L879 0L879 602Q727 550 556 550Q347 550 245 657Q143 764 139 983L139 1456L323 1456L323 993Q324 840 377 774Q430 708 556 708Q713 708 879 761L879 1456L1063 1456Z"  horiz-adv-x="1230" vert-adv-y="2048"  />

      
      <glyph glyph-name="uni0428" unicode="&#x0428;" d="M350 1456L350 157L745 157L745 1456L927 1456L927 157L1319 157L1319 1456L1503 1456L1503 0L166 0L166 1456L350 1456Z"  horiz-adv-x="1668" vert-adv-y="2048"  />

      
      <glyph glyph-name="uni0429" unicode="&#x0429;" d="M350 1456L350 157L745 157L745 1456L927 1456L927 157L1319 157L1319 1456L1503 1456L1503 151L1629 151L1611-351L1455-351L1455 0L166 0L166 1456L350 1456Z"  horiz-adv-x="1724" vert-adv-y="2048"  />

      
      <glyph glyph-name="uni042A" unicode="&#x042A;" d="M42 1456L546 1456L546 862L836 862Q1034 862 1145 748Q1256 634 1256 435Q1256 236 1144.50 118Q1033 0 834 0L361 0L361 1304L42 1304L42 1456M546 704L546 157L838 157Q948 157 1010 232.50Q1072 308 1072 437Q1072 562 1011.50 632.50Q951 703 841 704L546 704Z"  horiz-adv-x="1335" vert-adv-y="2048"  />

      
      <glyph glyph-name="uni042B" unicode="&#x042B;" d="M350 862L644 862Q840 861 951 747.50Q1062 634 1062 435Q1062 235 949.50 117.50Q837 0 638 0L167 0L167 1456L350 1456L350 862M1373 0L1190 0L1190 1456L1373 1456L1373 0M350 704L350 157L642 157Q754 157 816 234Q878 311 878 437Q878 561 816.50 632.50Q755 704 643 704L350 704Z"  horiz-adv-x="1547" vert-adv-y="2048"  />

      
      <glyph glyph-name="uni042C" unicode="&#x042C;" d="M335 862L629 862Q825 861 936 747.50Q1047 634 1047 435Q1047 235 934.50 117.50Q822 0 623 0L152 0L152 1456L335 1456L335 862M335 704L335 157L627 157Q739 157 801 234Q863 311 863 437Q863 561 801.50 632.50Q740 704 628 704L335 704Z"  horiz-adv-x="1129" vert-adv-y="2048"  />

      
      <glyph glyph-name="uni042D" unicode="&#x042D;" d="M330 462Q354 274 420.50 205.50Q487 137 614 137Q754 137 833.50 268.50Q913 400 915 647L444 647L444 805L915 805Q915 1047 831 1182.50Q747 1318 597 1318Q479 1318 415 1242Q351 1166 330 988L145 988Q167 1224 284.50 1350Q402 1476 597 1476Q826 1476 962.50 1292Q1099 1108 1099 791L1099 654Q1099 454 1039.50 301.50Q980 149 869 64.50Q758-20 614-20Q410-20 289 104Q168 228 145 462L330 462Z"  horiz-adv-x="1208" vert-adv-y="2048"  />

      
      <glyph glyph-name="uni042E" unicode="&#x042E;" d="M1492 600Q1492 302 1365 141Q1238-20 1004-20Q779-20 648.50 136.50Q518 293 513 579L513 637L349 637L349 0L166 0L166 1456L349 1456L349 788L513 788L513 862Q514 1053 573 1192Q632 1331 741.50 1403.50Q851 1476 1002 1476Q1232 1476 1360.50 1317.50Q1489 1159 1492 865L1492 600M1309 855Q1309 1086 1233.50 1198.50Q1158 1311 1002 1311Q851 1311 773.50 1197Q696 1083 695 861L695 600Q695 377 772.50 260Q850 143 1004 143Q1158 143 1232 251Q1306 359 1309 582L1309 855Z"  horiz-adv-x="1568" vert-adv-y="2048"  />

      
      <glyph glyph-name="uni042F" unicode="&#x042F;" d="M792 0L792 567L540 567L289 0L94 0L379 623Q141 734 141 1017Q141 1222 255.50 1338.50Q370 1455 576 1456L976 1456L976 0L792 0M325 1017Q325 885 391 805.50Q457 726 576 724L792 724L792 1298L578 1298Q454 1298 389.50 1223Q325 1148 325 1017Z"  horiz-adv-x="1152" vert-adv-y="2048"  />

      
      <glyph glyph-name="uni0431" unicode="&#x0431;" d="M544 1020Q715 1020 816 884.50Q917 749 917 522L917 507Q917 267 805 123.50Q693-20 509-20Q325-20 213 125Q101 270 101 515L101 606Q101 941 206 1142.50Q311 1344 514 1391Q631 1418 672.50 1455Q714 1492 714 1553L857 1553L856 1514Q844 1316 666 1263L544 1229Q412 1193 341.50 1102Q271 1011 250 864Q372 1020 544 1020M508 868Q402 868 340.50 778Q279 688 279 507Q279 331 340 230.50Q401 130 509 130Q617 130 679 231Q741 332 741 530Q741 686 678.50 777Q616 868 508 868Z"  horiz-adv-x="992" vert-adv-y="2048"  />

      
      <glyph glyph-name="uni0432" unicode="&#x0432;" d="M148 0L148 1082L511 1082Q697 1082 795 1006Q893 930 893 785Q893 710 854 650Q815 590 740 558Q823 536 873.50 469Q924 402 924 307Q924 157 830.50 78.50Q737 0 566 0L148 0M324 475L324 149L568 149Q747 149 747 313Q747 475 566 475L324 475M324 623L509 623Q716 623 716 775Q716 928 521 932L324 932L324 623Z"  horiz-adv-x="1031" vert-adv-y="2048"  />

      
      <glyph glyph-name="uni0433" unicode="&#x0433;" d="M727 929L324 929L324 0L146 0L146 1082L727 1082L727 929Z"  horiz-adv-x="760" vert-adv-y="2048"  />

      
      <glyph glyph-name="uni0434" unicode="&#x0434;" d="M130 151L183 227Q269 359 282 616L297 1082L901 1082L901 151L1027 151L1027-318L850-318L850 0L235 0L235-318L57-318L58 151L130 151M327 151L725 151L725 911L469 911L460 647Q446 331 327 151Z"  horiz-adv-x="1098" vert-adv-y="2048"  />

      
      <glyph glyph-name="uni0436" unicode="&#x0436;" d="M867 470L764 470L764 0L588 0L588 470L485 470L259 0L37 0L348 564L64 1082L277 1082L487 634L588 634L588 1082L764 1082L764 634L863 634L1076 1082L1289 1082L1004 563L1315 0L1092 0L867 470Z"  horiz-adv-x="1356" vert-adv-y="2048"  />

      
      <glyph glyph-name="uni0437" unicode="&#x0437;" d="M796 787Q796 714 759 653Q722 592 654 556Q813 491 813 304Q813 153 714.50 67Q616-19 455-19Q296-19 193.50 72.50Q91 164 91 320L266 320Q266 240 320 184Q374 128 455 128Q537 128 586.50 177Q636 226 636 304Q636 395 595.50 434.50Q555 474 468 474L306 474L306 630L480 630Q620 635 620 786Q620 862 576.50 906.50Q533 951 456 951Q381 951 330.50 901Q280 851 280 780L105 780Q105 921 205 1011Q305 1101 456 1101Q617 1101 706.50 1019Q796 937 796 787Z"  horiz-adv-x="914" vert-adv-y="2048"  />

      
      <glyph glyph-name="uni0438" unicode="&#x0438;" d="M717 1082L893 1082L893 0L717 0L717 789L325 0L148 0L148 1082L325 1082L325 292L717 1082Z"  horiz-adv-x="1043" vert-adv-y="2048"  />

      
      <glyph glyph-name="uni043A" unicode="&#x043A;" d="M426 461L326 461L326 0L149 0L149 1082L326 1082L326 624L414 624L709 1082L920 1082L559 567L946 0L724 0L426 461Z"  horiz-adv-x="983" vert-adv-y="2048"  />

      
      <glyph glyph-name="uni043B" unicode="&#x043B;" d="M895 1082L895 0L718 0L718 929L433 929L416 562Q402 257 334 129.50Q266 2 116 0L57 0L57 163L102 167Q176 177 206.50 266.50Q237 356 247 619L264 1082L895 1082Z"  horiz-adv-x="1044" vert-adv-y="2048"  />

      
      <glyph glyph-name="uni043C" unicode="&#x043C;" d="M663 245L953 1082L1173 1082L1173 0L997 0L997 746L724 0L603 0L324 764L324 0L148 0L148 1082L376 1082L663 245Z"  horiz-adv-x="1323" vert-adv-y="2048"  />

      
      <glyph glyph-name="uni043D" unicode="&#x043D;" d="M892 0L716 0L716 462L326 462L326 0L148 0L148 1082L326 1082L326 613L716 613L716 1082L892 1082L892 0Z"  horiz-adv-x="1042" vert-adv-y="2048"  />

      
      <glyph glyph-name="uni043F" unicode="&#x043F;" d="M893 0L717 0L717 929L326 929L326 0L148 0L148 1082L893 1082L893 0Z"  horiz-adv-x="1043" vert-adv-y="2048"  />

      
      <glyph glyph-name="uni0442" unicode="&#x0442;" d="M816 932L521 932L521 0L345 0L345 932L54 932L54 1082L816 1082L816 932Z"  horiz-adv-x="870" vert-adv-y="2048"  />

      
      <glyph glyph-name="uni0444" unicode="&#x0444;" d="M100 521Q100 791 188 946.50Q276 1102 431 1102Q495 1102 547 1080L547 1536L724 1536L724 1074Q780 1102 855 1102Q1011 1102 1099 947Q1187 792 1187 500Q1187 257 1099 118Q1011-21 857-21Q781-21 724 5L724-416L547-416L547 0Q492-21 430-21Q276-21 188 119.50Q100 260 100 521M1011 521Q1011 725 956 837.50Q901 950 801 950Q758 950 724 935L724 142Q755 130 803 130Q902 130 956.50 226Q1011 322 1011 521M277 500Q277 316 327.50 223Q378 130 476 130Q516 130 547 141L547 938Q511 950 478 950Q379 950 328 841.50Q277 733 277 500Z"  horiz-adv-x="1288" vert-adv-y="2048"  />

      
      <glyph glyph-name="uni0446" unicode="&#x0446;" d="M148 1082L326 1082L326 151L717 151L717 1082L893 1082L893 151L1007 151L989-321L832-321L832 0L148 0L148 1082Z"  horiz-adv-x="1074" vert-adv-y="2048"  />

      
      <glyph glyph-name="uni0447" unicode="&#x0447;" d="M834 0L656 0L656 388Q559 360 457 360Q291 360 199 462.50Q107 565 104 755L104 1083L281 1083L281 750Q287 512 457 512Q557 512 656 542L656 1082L834 1082L834 0Z"  horiz-adv-x="982" vert-adv-y="2048"  />

      
      <glyph glyph-name="uni0448" unicode="&#x0448;" d="M326 1082L326 151L631 151L631 1082L807 1082L807 151L1113 151L1113 1082L1290 1082L1290 0L148 0L148 1082L326 1082Z"  horiz-adv-x="1441" vert-adv-y="2048"  />

      
      <glyph glyph-name="uni0449" unicode="&#x0449;" d="M315 1082L315 151L620 151L620 1082L796 1082L796 151L1102 151L1102 1082L1279 1082L1279 151L1414 151L1396-321L1239-321L1239 0L137 0L137 1082L315 1082Z"  horiz-adv-x="1479" vert-adv-y="2048"  />

      
      <glyph glyph-name="uni044A" unicode="&#x044A;" d="M44 1082L482 1082L482 709L705 709Q860 708 952 614Q1044 520 1044 358Q1044 196 951 98.50Q858 1 705 0L306 0L306 930L44 930L44 1082M482 558L482 151L702 151Q781 151 823.50 204.50Q866 258 866 351Q866 441 824.50 498.50Q783 556 708 558L482 558Z"  horiz-adv-x="1102" vert-adv-y="2048"  />

      
      <glyph glyph-name="uni044B" unicode="&#x044B;" d="M324 709L547 709Q702 708 794 614Q886 520 886 358Q886 196 793 98.50Q700 1 547 0L148 0L148 1082L324 1082L324 709M1216 0L1039 0L1039 1082L1216 1082L1216 0M324 558L324 151L544 151Q622 151 665.50 204Q709 257 709 351Q709 443 666 500Q623 557 548 558L324 558Z"  horiz-adv-x="1392" vert-adv-y="2048"  />

      
      <glyph glyph-name="uni044C" unicode="&#x044C;" d="M324 709L547 709Q702 708 794 614Q886 520 886 358Q886 196 793 98.50Q700 1 547 0L148 0L148 1082L324 1082L324 709M324 558L324 151L544 151Q622 151 665.50 204Q709 257 709 351Q709 443 666 500Q623 557 548 558L324 558Z"  horiz-adv-x="979" vert-adv-y="2048"  />

      
      <glyph glyph-name="uni044D" unicode="&#x044D;" d="M458 950Q380 950 324 887.50Q268 825 268 738L100 738Q100 831 149.50 916Q199 1001 283 1051.50Q367 1102 458 1102Q636 1102 746.50 951.50Q857 801 857 550L857 520Q857 368 807 243Q757 118 666 49Q575-20 457-20Q304-20 202 91Q100 202 100 371L268 371Q268 267 323.50 198.50Q379 130 457 130Q551 130 610.50 221.50Q670 313 680 475L365 475L365 627L678 627Q666 777 608.50 863.50Q551 950 458 950Z"  horiz-adv-x="967" vert-adv-y="2048"  />

      
      <glyph glyph-name="uni044E" unicode="&#x044E;" d="M324 623L526 623Q545 843 657.50 972.50Q770 1102 939 1102Q1119 1102 1233 960.50Q1347 819 1357 590L1358 529Q1358 286 1243 133Q1128-20 941-20Q763-20 651 116.50Q539 253 525 471L324 471L324 0L148 0L148 1082L324 1082L324 623M700 529Q700 348 765 239.50Q830 131 941 131Q1050 131 1115 239Q1180 347 1180 551Q1180 734 1114 842Q1048 950 939 950Q831 950 765.50 842Q700 734 700 529Z"  horiz-adv-x="1446" vert-adv-y="2048"  />

      
      <glyph glyph-name="uni044F" unicode="&#x044F;" d="M839 1082L839 0L662 0L662 421L453 421L235 0L45 0L279 452Q191 490 145 569Q99 648 99 752Q99 901 195 991.50Q291 1082 453 1082L839 1082M276 750Q276 670 319 621.50Q362 573 435 573L662 573L662 932L451 932Q372 932 324 881.50Q276 831 276 750Z"  horiz-adv-x="988" vert-adv-y="2048"  />

      
      <glyph glyph-name="uni0452" unicode="&#x0452;" d="M542 1209L309 1209L309 971Q410 1102 567 1102Q854 1102 858 719L858-89Q858-259 785.50-348Q713-437 582-437Q533-437 488-419L501-272Q515-279 567-284L582-285Q629-285 655.50-233Q682-181 682-89L682 711Q682 838 639.50 891.50Q597 945 512 945Q446 945 393.50 901Q341 857 309 786L309 0L132 0L132 1209L0 1209L0 1361L132 1361L132 1536L309 1536L309 1361L542 1361L542 1209Z"  horiz-adv-x="989" vert-adv-y="2048"  />

      
      <glyph glyph-name="uni0454" unicode="&#x0454;" d="M515 131Q593 131 651 191Q709 251 715 341L882 341Q878 247 828 163.50Q778 80 693 30Q608-20 515-20Q325-20 215 126.50Q105 273 105 531L105 562Q105 810 216 956Q327 1102 516 1102Q675 1102 775.50 992Q876 882 882 710L715 710Q709 815 654 882.50Q599 950 516 950Q412 950 351 864Q290 778 282 616L594 616L594 464L282 464Q290 298 350 214.50Q410 131 515 131Z"  horiz-adv-x="967" vert-adv-y="2048"  />

      
      <glyph glyph-name="uni0459" unicode="&#x0459;" d="M859 670L1084 670Q1252 668 1344 564Q1421 476 1421 338Q1421 187 1329.50 94Q1238 1 1081 0L682 0L682 929L429 929L410 517Q393 236 325 118.50Q257 1 110 0L54 0L54 163L88 166Q164 171 197 249.50Q230 328 241 541L261 1082L859 1082L859 670M859 518L859 149L1079 149Q1156 149 1200 201Q1244 253 1244 340Q1244 423 1200 470.50Q1156 518 1080 518L859 518Z"  horiz-adv-x="1495" vert-adv-y="2048"  />

      
      <glyph glyph-name="uni045A" unicode="&#x045A;" d="M326 673L716 673L716 1082L892 1082L892 669L1118 669Q1272 667 1363 578.50Q1454 490 1454 338Q1454 188 1363.50 95Q1273 2 1118 0L716 0L716 522L326 522L326 0L148 0L148 1082L326 1082L326 673M892 518L892 149L1112 149Q1189 149 1233 201Q1277 253 1277 340Q1277 423 1233 470.50Q1189 518 1113 518L892 518Z"  horiz-adv-x="1522" vert-adv-y="2048"  />

      
      <glyph glyph-name="uni045B" unicode="&#x045B;" d="M564 1214L309 1214L309 971Q410 1102 567 1102Q854 1102 858 719L858 0L682 0L682 711Q682 838 639.50 891.50Q597 945 512 945Q446 945 393.50 901Q341 857 309 786L309 0L132 0L132 1214L22 1214L22 1365L132 1365L132 1536L309 1536L309 1365L564 1365L564 1214Z"  horiz-adv-x="1022" vert-adv-y="2048"  />

      
      <glyph glyph-name="uni045F" unicode="&#x045F;" d="M326 1082L326 151L717 151L717 1082L893 1082L893 0L611 0L611-356L435-356L435 0L148 0L148 1082L326 1082Z"  horiz-adv-x="1043" vert-adv-y="2048"  />

      
      <glyph glyph-name="uni0460" unicode="&#x0460;" d="M1410 1456L1410 394Q1409 200 1314 90Q1219-20 1051-20Q860-20 777 146Q688-20 491-20Q330-20 238 90.50Q146 201 146 398L146 1456L331 1456L331 397Q331 265 376.50 200.50Q422 136 491 136Q581 136 632 205.50Q683 275 683 397L683 1456L874 1456L874 397Q874 276 921 206Q968 136 1051 136Q1133 136 1180 206Q1227 276 1227 397L1227 1456L1410 1456Z"  horiz-adv-x="1546" vert-adv-y="2048"  />

      
      <glyph glyph-name="uni0461" unicode="&#x0461;" d="M1223 1082L1223 345Q1221 172 1135.50 75.50Q1050-21 904-21Q745-21 670 117Q591-21 422-21Q282-21 201 76Q120 173 119 349L119 1082L296 1082L296 353Q296 240 331 185Q366 130 422 130Q498 130 540.50 190.50Q583 251 583 353L583 1082L760 1082L760 353Q760 240 800.50 185Q841 130 904 130Q971 130 1008.50 189Q1046 248 1047 349L1047 1082L1223 1082Z"  horiz-adv-x="1332" vert-adv-y="2048"  />

      
      <glyph glyph-name="uni0463" unicode="&#x0463;" d="M592 1082L323 1082L323 746L541 746Q701 746 793 646.50Q885 547 885 377Q885 209 794.50 106Q704 3 550 0L146 0L146 1082L-12 1082L-12 1233L146 1233L146 1558L323 1558L323 1233L592 1233L592 1082M323 594L323 151L542 151Q621 151 664 209.50Q707 268 707 370Q707 469 664 531Q621 593 546 594L323 594Z"  horiz-adv-x="977" vert-adv-y="2048"  />

      
      <glyph glyph-name="uni0464" unicode="&#x0464;" d="M349 832L497 832Q502 1025 565 1172.50Q628 1320 740 1398.50Q852 1477 999 1477Q1196 1477 1314 1349Q1432 1221 1451 989L1268 989Q1244 1172 1180 1245.50Q1116 1319 999 1319Q853 1319 771 1194Q689 1069 682 832L1140 832L1140 681L682 681L682 655Q682 412 760 275Q838 138 982 138Q1071 138 1127.50 169.50Q1184 201 1216.50 266Q1249 331 1268 463L1451 463Q1428 229 1307 105Q1186-19 982-19Q773-19 640.50 152Q508 323 498 610L497 681L349 681L349 0L165 0L165 1456L349 1456L349 832Z"  horiz-adv-x="1583" vert-adv-y="2048"  />

      
      <glyph glyph-name="uni0465" unicode="&#x0465;" d="M322 615L464 615Q478 841 586 971.50Q694 1102 873 1102Q1031 1102 1132.50 992.50Q1234 883 1240 710L1073 710Q1067 815 1012 882.50Q957 950 873 950Q767 950 707.50 863Q648 776 640 615L997 615L997 464L640 464Q648 298 708 214.50Q768 131 873 131Q951 131 1009 191Q1067 251 1073 341L1240 341Q1236 247 1184.50 162.50Q1133 78 1049.50 29Q966-20 873-20Q753-20 664.50 38.50Q576 97 524.50 206.50Q473 316 464 464L322 464L322 0L144 0L144 1082L322 1082L322 615Z"  horiz-adv-x="1325" vert-adv-y="2048"  />

      
      <glyph glyph-name="uni0466" unicode="&#x0466;" d="M770 438L654 438L654 0L475 0L475 438L368 438L242 0L55 0L493 1456L653 1456L1082 0L894 0L770 438M415 602L724 602L571 1145L415 602Z"  horiz-adv-x="1078" vert-adv-y="2048"  />

      
      <glyph glyph-name="uni0467" unicode="&#x0467;" d="M641 297L563 297L563 0L387 0L387 297L305 297L209 0L29 0L397 1082L548 1082L919 0L739 0L641 297M354 449L591 449L487 764L471 831L456 764L354 449Z"  horiz-adv-x="963" vert-adv-y="2048"  />

      
      <glyph glyph-name="uni0468" unicode="&#x0468;" d="M365 601L680 601L937 1456L1097 1456L1526 0L1339 0L1215 438L1098 438L1098 0L919 0L919 438L812 438L686 0L499 0L631 440L365 440L365 0L180 0L180 1456L365 1456L365 601M859 602L1169 602L1016 1147L859 602Z"  horiz-adv-x="1556" vert-adv-y="2048"  />

      
      <glyph glyph-name="uni0469" unicode="&#x0469;" d="M351 449L557 449L773 1082L924 1082L1295 0L1114 0L1016 297L939 297L939 0L762 0L762 297L680 297L584 0L405 0L505 296L351 296L351 0L174 0L174 1082L351 1082L351 449M730 449L966 449L862 764L847 830L832 764L730 449Z"  horiz-adv-x="1341" vert-adv-y="2048"  />

      
      <glyph glyph-name="uni046A" unicode="&#x046A;" d="M959 810Q1115 810 1206 763.50Q1297 717 1343.50 621Q1390 525 1391 378L1391 0L1207 0L1207 378Q1206 521 1156 585Q1106 649 986 652L879 652L861 617L861 0L677 0L677 634L668 652L559 652Q430 652 377.50 588Q325 524 323 382L323 0L140 0L140 384Q143 597 243 702.50Q343 808 551 810L587 810L257 1456L1289 1456L959 810M773 825L1003 1298L543 1298L773 825Z"  horiz-adv-x="1530" vert-adv-y="2048"  />

      
      <glyph glyph-name="uni046B" unicode="&#x046B;" d="M836 603Q1010 592 1093 486.50Q1176 381 1179 180L1179 0L1002 0L1002 180Q1000 324 955.50 387.50Q911 451 805 452L760 452L752 435L752 0L576 0L576 447L573 452L523 452Q413 452 368 389.50Q323 327 320 186L320 0L143 0L143 171Q144 384 232 490.50Q320 597 498 603L259 1082L1075 1082L836 603M667 624L808 930L526 930L667 624Z"  horiz-adv-x="1323" vert-adv-y="2048"  />

      
      <glyph glyph-name="uni046C" unicode="&#x046C;" d="M618 0L618 371Q618 555 687 660L349 660L349 0L164 0L164 1456L349 1456L349 812L1064 812L735 1456L1768 1456L1438 810Q1594 810 1685 763.50Q1776 717 1822.50 621Q1869 525 1870 378L1870 0L1686 0L1686 378Q1685 521 1635 585Q1585 649 1464 652L1358 652L1339 615L1339 0L1156 0L1156 632L1146 652L1038 652Q909 652 856.50 588Q804 524 802 382L802 0L618 0M1252 825L1482 1298L1022 1298L1252 825Z"  horiz-adv-x="2009" vert-adv-y="2048"  />

      
      <glyph glyph-name="uni046D" unicode="&#x046D;" d="M574 0L574 172Q575 350 636 452L323 452L323 0L146 0L146 1082L323 1082L323 604L928 604L690 1082L1506 1082L1267 603Q1442 592 1525 486.50Q1608 381 1611 180L1611 0L1433 0L1433 180Q1431 324 1386.50 387.50Q1342 451 1236 452L1192 452L1183 433L1183 0L1007 0L1007 447L1004 452L944 452Q842 450 798 388Q754 326 752 180L752 0L574 0M1098 624L1239 930L957 930L1098 624Z"  horiz-adv-x="1754" vert-adv-y="2048"  />

      
      <glyph glyph-name="uni046E" unicode="&#x046E;" d="M601 1066Q601 1175 541.50 1238.50Q482 1302 382 1304L124 1304L124 1456L370 1456Q556 1456 666.50 1348Q777 1240 777 1062Q777 959 722.50 877Q668 795 571 750Q796 665 796 406Q796 211 688 96Q580-19 395-19L357-19Q243-21 243-131Q243-244 375-317L304-442Q196-389 136-305Q76-221 76-122Q76-1 150 65.50Q224 132 386.50 132Q549 132 600 280Q619 335 619 402Q619 667 367 671L238 671L238 823L353 823Q601 823 601 1066M466 1756L586 1926L738 1926L738 1916L519 1642L414 1642L199 1916L199 1926L347 1926L466 1756Z"  horiz-adv-x="931" vert-adv-y="2048"  />

      
      <glyph glyph-name="uni046F" unicode="&#x046F;" d="M573 777Q573 843 523 885.50Q473 928 385 929L125 929L125 1082L375 1082Q547 1082 648 996.50Q749 911 749 773Q749 700 705.50 640.50Q662 581 584 545Q767 479 767 304Q767 156 667.50 68.50Q568-19 399-19L358-19Q246-22 246-131Q246-244 378-317L305-442Q201-391 139.50-306.50Q78-222 78-122Q78-1 152.50 65.50Q227 132 373 132L405 132Q491 132 541 178.50Q591 225 591 300Q591 462 373 465L242 465L242 617L361 617Q573 617 573 777M411 1414L531 1584L682 1584L682 1574L463 1300L359 1300L144 1574L144 1584L292 1584L411 1414Z"  horiz-adv-x="868" vert-adv-y="2048"  />

      
      <glyph glyph-name="uni0472" unicode="&#x0472;" d="M1097 681Q1097 467 1035 306.50Q973 146 861 63Q749-20 601-20Q455-20 342.50 64Q230 148 166.50 306.50Q103 465 102 672L102 773Q102 981 163 1141Q224 1301 337.50 1388.50Q451 1476 599 1476Q747 1476 860 1391.50Q973 1307 1034.50 1149Q1096 991 1097 781L1097 681M599 1311Q453 1311 369.50 1171.50Q286 1032 284 794L915 794Q911 1043 828.50 1177Q746 1311 599 1311M601 143Q746 143 827 271Q908 399 914 643L284 643Q290 412 374 277.50Q458 143 601 143Z"  horiz-adv-x="1215" vert-adv-y="2048"  />

      
      <glyph glyph-name="uni0473" unicode="&#x0473;" d="M97 551Q97 796 212 949Q327 1102 512 1102Q692 1102 806 960.50Q920 819 930 590L931 529Q931 286 816 133Q701-20 514-20Q327-20 212 131.50Q97 283 97 537L97 551M751 470L275 470Q286 310 350.50 220.50Q415 131 514 131Q613 131 676.50 221Q740 311 751 470M276 622L750 622Q736 776 673 863Q610 950 512 950Q414 950 351.50 861.50Q289 773 276 622Z"  horiz-adv-x="1019" vert-adv-y="2048"  />

      
      <glyph glyph-name="uni0474" unicode="&#x0474;" d="M517 374L546 251L772 1162Q814 1330 871 1402.50Q928 1475 1025 1475L1070 1474L1069 1303L1054 1303Q1016 1302 993.50 1271Q971 1240 951 1159L625 0L466 0L36 1456L235 1456L517 374Z"  horiz-adv-x="1133" vert-adv-y="2048"  />

      
      <glyph glyph-name="uni0475" unicode="&#x0475;" d="M432 316L447 238L582 859Q652 1101 800 1101Q861 1101 893 1077L874 929Q863 937 844 937Q818 937 794 913Q770 889 760 844L512 0L379 0L59 1082L239 1082L432 316Z"  horiz-adv-x="908" vert-adv-y="2048"  />

      
      </font>
</defs>
</svg>
