<svg width="180" height="50" viewBox="0 0 180 50" fill="none" xmlns="http://www.w3.org/2000/svg">
<g clip-path="url(#clip0_1_24)">
<path d="M25.0156 49.4366L21.7302 47.5196L35.5153 39.4595V34.2526L23.7352 41.2183L2.27983 28.6662V14.0389L5.56527 12.1219V26.7492L23.5978 37.2957L23.7352 37.378L35.5153 30.5325V27.1794L25.0156 21.0362L21.1805 23.2758L17.8951 21.3588L25.0094 17.1959L38.7945 25.2561V41.3764L25.0156 49.4366ZM14.7845 44.951L18.07 43.034L3.28545 34.3855L0 36.3025L14.7845 44.951ZM30.8495 28.0841L27.564 26.1671L23.7352 28.4068L13.2355 22.2636V18.9104L25.0156 12.065L25.153 12.1472L43.1855 22.6938V37.321L46.471 35.4041V20.7705L25.0156 8.22468L13.2355 15.184V9.97716L27.0206 1.91698L23.7352 0L9.95003 8.06018V24.1805L23.7352 32.2471L30.8495 28.0841ZM45.4653 15.0512L48.7508 13.1342L33.96 4.48561L30.6746 6.40259L45.4653 15.0512Z" fill="white"/>
<path d="M62.7545 41.516V33.519H66.1024C66.4647 33.519 66.7957 33.595 67.1018 33.7468C67.4079 33.8986 67.6702 34.1011 67.8951 34.3542C68.1199 34.6072 68.2948 34.8919 68.426 35.2083C68.5509 35.5246 68.6134 35.8473 68.6134 36.1762C68.6134 36.6254 68.5072 37.0557 68.301 37.4606C68.0949 37.8655 67.8076 38.1945 67.4453 38.4538C67.0831 38.7069 66.6521 38.8398 66.1586 38.8398H64.2911V41.5223H62.7545V41.516ZM64.2911 37.4732H66.0712C66.2586 37.4732 66.421 37.4226 66.5709 37.315C66.7208 37.2075 66.8395 37.0557 66.9269 36.8595C67.0144 36.6634 67.0581 36.4356 67.0581 36.1762C67.0581 35.8979 67.0081 35.6638 66.9082 35.4677C66.8082 35.2715 66.6771 35.126 66.5209 35.0311C66.3585 34.9362 66.1899 34.8856 66.0025 34.8856H64.2911V37.4732Z" fill="white"/>
<path d="M74.1288 41.5155V33.5186H75.6653V40.1489H79.6878V41.5091H74.1288V41.5155Z" fill="white"/>
<path d="M87.2143 33.5186H88.7695L91.674 41.5155H90.0937L89.4379 39.5226H86.5397L85.8839 41.5155H84.3036L87.2143 33.5186ZM89.0756 38.4281L87.9888 35.1319L86.8957 38.4281H89.0756Z" fill="white"/>
<path d="M102.155 34.8788H99.6315V41.5091H98.1074V34.8788H95.584V33.5186H102.155V34.8788Z" fill="white"/>
<path d="M107.583 41.5155V33.5186H112.886V34.8788H109.119V36.9413H112.255V38.2003H109.119V41.5091H107.583V41.5155Z" fill="white"/>
<path d="M121.655 41.5659C121.081 41.5659 120.556 41.452 120.081 41.2306C119.613 41.0028 119.207 40.6992 118.869 40.3132C118.532 39.9273 118.27 39.4908 118.082 39.0099C117.901 38.5228 117.808 38.0293 117.808 37.5168C117.808 36.9854 117.908 36.4729 118.101 35.9921C118.301 35.5113 118.57 35.0747 118.913 34.6951C119.257 34.3155 119.663 34.0182 120.137 33.7968C120.606 33.5753 121.124 33.4678 121.686 33.4678C122.255 33.4678 122.78 33.5817 123.248 33.8157C123.716 34.0498 124.122 34.3598 124.453 34.7521C124.785 35.1443 125.047 35.5809 125.234 36.0554C125.415 36.5362 125.509 37.0297 125.509 37.5422C125.509 38.0673 125.415 38.5734 125.222 39.0542C125.028 39.5414 124.76 39.9716 124.416 40.3512C124.072 40.7308 123.66 41.0281 123.192 41.2433C122.723 41.4584 122.211 41.5659 121.655 41.5659ZM119.363 37.5168C119.363 37.8648 119.413 38.2001 119.519 38.5165C119.625 38.8391 119.775 39.1301 119.969 39.3769C120.169 39.63 120.406 39.8261 120.693 39.9716C120.981 40.1171 121.305 40.193 121.668 40.193C122.036 40.193 122.367 40.1171 122.655 39.9653C122.942 39.8134 123.186 39.6046 123.379 39.3453C123.573 39.0859 123.723 38.7948 123.816 38.4785C123.916 38.1622 123.966 37.8395 123.966 37.5168C123.966 37.1689 123.91 36.8399 123.804 36.5236C123.698 36.2072 123.542 35.9162 123.348 35.6695C123.154 35.4164 122.911 35.2203 122.623 35.0747C122.336 34.9292 122.017 34.8533 121.661 34.8533C121.28 34.8533 120.949 34.9292 120.668 35.0874C120.387 35.2456 120.144 35.448 119.95 35.7011C119.756 35.9542 119.613 36.2389 119.513 36.5552C119.413 36.8652 119.363 37.1815 119.363 37.5168Z" fill="white"/>
<path d="M131.137 41.5155V33.5186H134.628C134.991 33.5186 135.328 33.5945 135.634 33.7463C135.946 33.8982 136.209 34.1006 136.433 34.3537C136.658 34.6067 136.833 34.8914 136.958 35.2078C137.077 35.5241 137.139 35.8468 137.139 36.1758C137.139 36.5111 137.083 36.8401 136.964 37.1501C136.852 37.4601 136.69 37.7321 136.471 37.9662C136.259 38.2003 136.002 38.3774 135.715 38.504L137.514 41.5091H135.828L134.204 38.8266H132.667V41.5091H131.137V41.5155ZM132.673 37.4727H134.597C134.791 37.4727 134.959 37.4158 135.109 37.2956C135.259 37.1817 135.378 37.0235 135.465 36.8274C135.553 36.6313 135.596 36.4162 135.596 36.1758C135.596 35.9227 135.546 35.6949 135.44 35.5051C135.334 35.3153 135.203 35.1635 135.047 35.0496C134.884 34.9357 134.716 34.8788 134.535 34.8788H132.68V37.4727H132.673Z" fill="white"/>
<path d="M149.413 41.5155V36.2707L147.389 40.1805H146.533L144.51 36.2707V41.5155H142.973V33.5186H144.616L146.952 38.0674L149.313 33.5186H150.949V41.5155H149.413Z" fill="white"/>
<path d="M106.733 10.4702H103.573V22.6427V25.844V25.863L118.382 25.844V22.6427H106.733V10.4702Z" fill="white"/>
<path d="M128.982 10.4263L129.019 10.5212L119.975 25.8444L124.01 25.8634L130.225 15.1649L136.446 25.8634L140.475 25.8444L131.38 10.4263H128.982Z" fill="white"/>
<path d="M90.4809 10.4263L90.5246 10.5212L81.4802 25.8444L85.509 25.8634L91.7301 15.1649L97.9449 25.8634L101.98 25.8444L92.8794 10.4263H90.4809Z" fill="white"/>
<path d="M159.438 10.4516L155.041 10.4263L151.081 15.1713L147.114 10.4263L142.717 10.4516L148.869 17.8158L142.167 25.8444L146.565 25.8634L151.081 20.454L155.596 25.8634L159.994 25.8444L153.285 17.8158L159.438 10.4516Z" fill="white"/>
<path d="M61.9301 14.3493V21.9413C61.9301 24.1051 63.6665 25.8639 65.8026 25.8639H79.7876V25.8322V22.7132V19.9548V17.3229H76.3211H71.7801V19.9548H76.3211V22.7132H67.97C66.8707 22.7132 65.9838 21.8148 65.9838 20.7013V13.8622H79.7876V10.4331H65.8026C63.6665 10.4268 61.9301 12.1856 61.9301 14.3493Z" fill="white"/>
<path d="M175.44 10.4263L170.812 15.8039L166.184 10.4263H161.624L168.663 18.4295V25.8634H172.954V18.4295L180 10.4263H175.44Z" fill="white"/>
</g>
<defs>
<clipPath id="clip0_1_24">
<rect width="180" height="49.4366" fill="white"/>
</clipPath>
</defs>
</svg>
