<svg width="181" height="40" viewBox="0 0 181 40" fill="none" xmlns="http://www.w3.org/2000/svg">
<g style="mix-blend-mode:screen">
<path d="M25.4073 38.1452L23.7999 36.684L23.5564 36.1969L23.6538 34.8818L23.8233 34.4435L25.0391 32.616L25.2845 32.5439L27.3303 32.6647L27.5738 32.5926L29.863 32.5186L30.0579 32.6413L31.2171 34.687L31.3496 35.0767L31.6633 36.4639L31.5678 36.6353L30.0579 38.0225L29.6195 38.2427L25.8944 38.2173L25.4073 38.1452Z" fill="white" stroke="white" stroke-width="0.472141" stroke-miterlimit="10"/>
<path d="M18.8357 26.3833L17.3511 23.2913L17.39 23.0712L18.6974 21.5827L18.8883 21.4463L22.4615 21.8925L21.7776 24.0921L21.7309 24.2577L18.8357 26.3833Z" fill="white" stroke="white" stroke-width="0.472141" stroke-miterlimit="10"/>
<path d="M33.2239 23.9951L33.0291 23.8743L32.6881 21.7546L33.0057 21.7059L36.4931 21.4351L37.4186 23.2411L35.9457 26.1675L35.6593 25.92L33.2726 24.2153L33.2239 23.9951Z" fill="white" stroke="white" stroke-width="0.472141" stroke-miterlimit="10"/>
<path d="M8.64592 12.5836L3.82605 18.9658L3.98153 19.0832L8.80139 12.701L8.64592 12.5836Z" fill="white" stroke="white" stroke-width="0.472141" stroke-miterlimit="10"/>
<path d="M5.93398 8.15914L5.77051 8.26514L8.64411 12.6969L8.80758 12.5909L5.93398 8.15914Z" fill="white" stroke="white" stroke-width="0.472141" stroke-miterlimit="10"/>
<path d="M5.60832 3.7746L5.41406 3.78955L5.75516 8.22247L5.94941 8.20752L5.60832 3.7746Z" fill="white" stroke="white" stroke-width="0.472141" stroke-miterlimit="10"/>
<path d="M8.40248 1.26841L5.28528 3.7373L5.40624 3.89003L8.52345 1.42114L8.40248 1.26841Z" fill="white" stroke="white" stroke-width="0.472141" stroke-miterlimit="10"/>
<path d="M8.49192 1.25462L8.43652 1.44141L16.9765 3.97429L17.0319 3.7875L8.49192 1.25462Z" fill="white" stroke="white" stroke-width="0.472141" stroke-miterlimit="10"/>
<path d="M17.0198 3.78658L16.9926 3.97949L21.1325 4.56427L21.1598 4.37136L17.0198 3.78658Z" fill="white" stroke="white" stroke-width="0.472141" stroke-miterlimit="10"/>
<path d="M37.9476 3.52275L46.5378 1.28564L38.003 3.70954L37.9476 3.52275Z" fill="white" stroke="white" stroke-width="0.472141" stroke-miterlimit="10"/>
<path d="M37.9596 3.52169L37.9868 3.71461L34.1154 4.5391L33.8196 4.24333L37.9596 3.52169Z" fill="white" stroke="white" stroke-width="0.472141" stroke-miterlimit="10"/>
<path d="M27.4578 3.09884L21.1267 4.36621L21.165 4.55725L27.496 3.28988L27.4578 3.09884Z" fill="white" stroke="white" stroke-width="0.472141" stroke-miterlimit="10"/>
<path d="M27.4958 3.1033L27.4606 3.29492L34.0848 4.51308L34.12 4.32146L27.4958 3.1033Z" fill="white" stroke="white" stroke-width="0.472141" stroke-miterlimit="10"/>
<path d="M46.6787 1.3159L46.5554 1.4668L49.8359 4.14612L49.9592 3.99522L46.6787 1.3159Z" fill="white" stroke="white" stroke-width="0.472141" stroke-miterlimit="10"/>
<path d="M49.803 4.06044L49.1549 8.78564L49.3479 8.81212L49.996 4.08692L49.803 4.06044Z" fill="white" stroke="white" stroke-width="0.472141" stroke-miterlimit="10"/>
<path d="M49.1718 8.74072L47.1252 11.3696L47.279 11.4893L49.3255 8.86041L49.1718 8.74072Z" fill="white" stroke="white" stroke-width="0.472141" stroke-miterlimit="10"/>
<path d="M47.29 11.3857L47.1161 11.4736L50.7853 18.731L50.9591 18.6431L47.29 11.3857Z" fill="white" stroke="white" stroke-width="0.472141" stroke-miterlimit="10"/>
<path d="M50.9171 18.5971L50.8202 18.7661L54.7815 21.0385L54.8785 20.8695L50.9171 18.5971Z" fill="white" stroke="white" stroke-width="0.472141" stroke-miterlimit="10"/>
<path d="M54.7642 20.8866L51.7113 23.873L51.8475 24.0123L54.9004 21.0259L54.7642 20.8866Z" fill="white" stroke="white" stroke-width="0.472141" stroke-miterlimit="10"/>
<path d="M51.8571 23.879L51.7052 24.001L55.1481 28.2877L55.3 28.1657L51.8571 23.879Z" fill="white" stroke="white" stroke-width="0.472141" stroke-miterlimit="10"/>
<path d="M55.0693 28.1431L50.4584 29.1182L50.4987 29.3088L55.1097 28.3337L55.0693 28.1431Z" fill="white" stroke="white" stroke-width="0.472141" stroke-miterlimit="10"/>
<path d="M50.5501 29.1416L50.4163 29.2832L52.7863 31.5237L52.9202 31.3821L50.5501 29.1416Z" fill="white" stroke="white" stroke-width="0.472141" stroke-miterlimit="10"/>
<path d="M49.3163 31.1181L49.3038 31.3125L52.8425 31.5395L52.8549 31.345L49.3163 31.1181Z" fill="white" stroke="white" stroke-width="0.472141" stroke-miterlimit="10"/>
<path d="M49.4089 31.1889L49.2212 31.2412L50.2768 35.0245L50.4644 34.9721L49.4089 31.1889Z" fill="white" stroke="white" stroke-width="0.472141" stroke-miterlimit="10"/>
<path d="M50.3533 34.7593H46.2288V34.9541H50.3533V34.7593Z" fill="white" stroke="white" stroke-width="0.472141" stroke-miterlimit="10"/>
<path d="M46.3162 34.8231L46.1378 34.9014L47.5343 38.0842L47.7128 38.006L46.3162 34.8231Z" fill="white" stroke="white" stroke-width="0.472141" stroke-miterlimit="10"/>
<path d="M38.8894 36.1221L38.8527 36.3135L47.4742 37.969L47.5109 37.7777L38.8894 36.1221Z" fill="white" stroke="white" stroke-width="0.472141" stroke-miterlimit="10"/>
<path d="M38.835 36.1305L31.6754 39.1489L31.7511 39.3285L38.9107 36.31L38.835 36.1305Z" fill="white" stroke="white" stroke-width="0.472141" stroke-miterlimit="10"/>
<path d="M31.7087 39.1451L23.3969 39.3076L23.4007 39.5024L31.7125 39.3399L31.7087 39.1451Z" fill="white" stroke="white" stroke-width="0.472141" stroke-miterlimit="10"/>
<path d="M16.1205 35.9344L16.0367 36.1104L23.1963 39.5191L23.28 39.3432L16.1205 35.9344Z" fill="white" stroke="white" stroke-width="0.472141" stroke-miterlimit="10"/>
<path d="M16.0659 35.9276L7.78638 37.3398L7.81914 37.5319L16.0987 36.1196L16.0659 35.9276Z" fill="white" stroke="white" stroke-width="0.472141" stroke-miterlimit="10"/>
<path d="M8.53237 34.4891L7.70483 37.4116L7.89229 37.4647L8.71983 34.5422L8.53237 34.4891Z" fill="white" stroke="white" stroke-width="0.472141" stroke-miterlimit="10"/>
<path d="M4.4397 34.3184L4.43518 34.5132L8.62485 34.6105L8.62937 34.4157L4.4397 34.3184Z" fill="white" stroke="white" stroke-width="0.472141" stroke-miterlimit="10"/>
<path d="M6.05778 31.1539L4.35254 34.3691L4.52466 34.4604L6.2299 31.2452L6.05778 31.1539Z" fill="white" stroke="white" stroke-width="0.472141" stroke-miterlimit="10"/>
<path d="M1.14254 30.2285L1.10901 30.4204L6.12588 31.2969L6.15941 31.105L1.14254 30.2285Z" fill="white" stroke="white" stroke-width="0.472141" stroke-miterlimit="10"/>
<path d="M3.17918 25.3393L1.03577 30.29L1.21456 30.3674L3.35797 25.4167L3.17918 25.3393Z" fill="white" stroke="white" stroke-width="0.472141" stroke-miterlimit="10"/>
<path d="M1.15472 22.5228L1.00146 22.6431L3.19328 25.4354L3.34654 25.3151L1.15472 22.5228Z" fill="white" stroke="white" stroke-width="0.472141" stroke-miterlimit="10"/>
<path d="M3.77621 19.147L1 22.5244L1.15051 22.6481L3.92672 19.2707L3.77621 19.147Z" fill="white" stroke="white" stroke-width="0.472141" stroke-miterlimit="10"/>
<path d="M39.5702 11.5248L39.5378 11.6167L43.9711 13.1753L44.0035 13.0834L39.5702 11.5248Z" fill="white" stroke="white" stroke-width="0.472141" stroke-miterlimit="10"/>
<path d="M15.5207 11.3652L11.4802 13.4302L11.5246 13.5169L15.5651 11.452L15.5207 11.3652Z" fill="white" stroke="white" stroke-width="0.472141" stroke-miterlimit="10"/>
<path d="M34.1154 4.54943L39.735 11.6378" stroke="white" stroke-width="0.472141" stroke-miterlimit="10"/>
<path d="M21.1013 4.54914L15.3758 11.3885L15.4167 11.4769L21.1013 4.54914Z" fill="white" stroke="white" stroke-width="0.472141" stroke-miterlimit="10"/>
<path d="M8.67512 12.4047L8.64136 12.4961L11.6294 13.6002L11.6631 13.5088L8.67512 12.4047Z" fill="white" stroke="white" stroke-width="0.472141" stroke-miterlimit="10"/>
<path d="M47.1788 11.385L44.1584 13.0571L44.2056 13.1424L47.226 11.4702L47.1788 11.385Z" fill="white" stroke="white" stroke-width="0.472141" stroke-miterlimit="10"/>
<path d="M17.057 32.5591L16.0352 36.0176L16.1286 36.0452L17.1504 32.5867L17.057 32.5591Z" fill="white" stroke="white" stroke-width="0.472141" stroke-miterlimit="10"/>
<path d="M19.0996 32.4332L16.9027 32.7661L16.9173 32.8626L19.1142 32.5297L19.0996 32.4332Z" fill="white" stroke="white" stroke-width="0.472755" stroke-miterlimit="10"/>
<path d="M22.4716 28.0102L19.2545 32.1968L19.3318 32.2561L22.5489 28.0696L22.4716 28.0102Z" fill="white" stroke="white" stroke-width="0.472141" stroke-miterlimit="10"/>
<path d="M25.3966 26.888L22.49 27.9927L22.5246 28.0837L25.4312 26.979L25.3966 26.888Z" fill="white" stroke="white" stroke-width="0.472141" stroke-miterlimit="10"/>
<path d="M29.9605 26.7227H25.4794V26.8201H29.9605V26.7227Z" fill="white" stroke="white" stroke-width="0.472141" stroke-miterlimit="10"/>
<path d="M29.9788 26.7223L29.9385 26.811L32.6168 28.0282L32.6571 27.9395L29.9788 26.7223Z" fill="white" stroke="white" stroke-width="0.472141" stroke-miterlimit="10"/>
<path d="M32.679 27.9557L32.6014 28.0146L35.8976 32.3493L35.9751 32.2903L32.679 27.9557Z" fill="white" stroke="white" stroke-width="0.472141" stroke-miterlimit="10"/>
<path d="M37.8962 32.2325L35.931 32.2822L35.9335 32.3796L37.8987 32.3299L37.8962 32.2325Z" fill="white" stroke="white" stroke-width="0.472141" stroke-miterlimit="10"/>
<path d="M37.9469 32.2638L37.8523 32.2871L38.8266 36.2328L38.9211 36.2094L37.9469 32.2638Z" fill="white" stroke="white" stroke-width="0.472141" stroke-miterlimit="10"/>
<path d="M29.8601 32.5193L27.3278 32.5688L27.3297 32.6662L29.862 32.6167L29.8601 32.5193Z" fill="white" stroke="white" stroke-width="0.472141" stroke-miterlimit="10"/>
<path d="M25.0433 32.5217L25.0413 32.6191L27.33 32.6679L27.3321 32.5705L25.0433 32.5217Z" fill="white" stroke="white" stroke-width="0.472141" stroke-miterlimit="10"/>
<path d="M23.7179 34.7845L23.6361 34.7338L24.9999 32.542L25.0817 32.5926L23.7179 34.7845Z" fill="white" stroke="white" stroke-width="0.472141" stroke-miterlimit="10"/>
<path d="M23.6267 34.755L23.5305 36.5078L23.6278 36.5131L23.7239 34.7604L23.6267 34.755Z" fill="white" stroke="white" stroke-width="0.472141" stroke-miterlimit="10"/>
<path d="M23.6143 36.4729L23.5487 36.5449L25.5786 38.3959L25.6442 38.3239L23.6143 36.4729Z" fill="white" stroke="white" stroke-width="0.472141" stroke-miterlimit="10"/>
<path d="M29.863 38.1689H25.6742V38.2664H29.863V38.1689Z" fill="white" stroke="white" stroke-width="0.472141" stroke-miterlimit="10"/>
<path d="M31.6305 36.4737L29.8293 38.1787L29.8963 38.2495L31.6975 36.5444L31.6305 36.4737Z" fill="white" stroke="white" stroke-width="0.472141" stroke-miterlimit="10"/>
<path d="M31.3233 34.8459L31.2285 34.8682L31.6181 36.5238L31.7129 36.5015L31.3233 34.8459Z" fill="white" stroke="white" stroke-width="0.472141" stroke-miterlimit="10"/>
<path d="M30.0672 32.5572L29.9834 32.6069L31.2178 34.6859L31.3016 34.6362L30.0672 32.5572Z" fill="white" stroke="white" stroke-width="0.472141" stroke-miterlimit="10"/>
<path d="M35.9002 32.1285L30.1528 32.3423L30.1565 32.4396L35.9039 32.2259L35.9002 32.1285Z" fill="white" stroke="white" stroke-width="0.472141" stroke-miterlimit="10"/>
<path d="M19.2942 32.1733L19.2885 32.2705L25.0356 32.6109L25.0414 32.5137L19.2942 32.1733Z" fill="white" stroke="white" stroke-width="0.472141" stroke-miterlimit="10"/>
<path d="M12.8189 23.1218L12.8167 23.2192L17.3959 23.3232L17.3981 23.2258L12.8189 23.1218Z" fill="white" stroke="white" stroke-width="0.472141" stroke-miterlimit="10"/>
<path d="M18.6217 21.5889L17.3875 23.0762L17.4624 23.1384L18.6967 21.6511L18.6217 21.5889Z" fill="white" stroke="white" stroke-width="0.472141" stroke-miterlimit="10"/>
<path d="M18.6656 21.4333L18.6562 21.5303L22.6821 21.92L22.6915 21.8231L18.6656 21.4333Z" fill="white" stroke="white" stroke-width="0.472141" stroke-miterlimit="10"/>
<path d="M22.5504 21.8774L22.4673 21.9282L25.4391 26.793L25.5222 26.7423L22.5504 21.8774Z" fill="white" stroke="white" stroke-width="0.472141" stroke-miterlimit="10"/>
<path d="M27.7547 3.4265L27.4586 3.4265L25.5379 26.7323L25.8336 26.7323L27.7547 3.4265Z" fill="white" stroke="white" stroke-width="0.472141" stroke-miterlimit="10"/>
<path d="M27.8031 3.41088L28.0992 3.41088L30.02 26.7167L29.7242 26.7167L27.8031 3.41088Z" fill="white" stroke="white" stroke-width="0.472141" stroke-miterlimit="10"/>
<path d="M32.6463 21.7281L29.9163 26.7437L30.0018 26.7902L32.7319 21.7746L32.6463 21.7281Z" fill="white" stroke="white" stroke-width="0.472141" stroke-miterlimit="10"/>
<path d="M36.532 21.3655L32.6835 21.7056L32.692 21.8026L36.5405 21.4625L36.532 21.3655Z" fill="white" stroke="white" stroke-width="0.472141" stroke-miterlimit="10"/>
<path d="M36.5815 21.3866L36.4944 21.4302L37.4199 23.2808L37.507 23.2372L36.5815 21.3866Z" fill="white" stroke="white" stroke-width="0.472141" stroke-miterlimit="10"/>
<path d="M37.4641 23.2185L37.462 23.3159L42.1701 23.4137L42.1721 23.3163L37.4641 23.2185Z" fill="white" stroke="white" stroke-width="0.472141" stroke-miterlimit="10"/>
<path d="M50.9312 18.5029L42.1439 23.187L42.1897 23.273L50.977 18.5889L50.9312 18.5029Z" fill="white" stroke="white" stroke-width="0.472141" stroke-miterlimit="10"/>
<path d="M3.92311 18.9776L3.88208 19.0659L12.7951 23.2051L12.8361 23.1167L3.92311 18.9776Z" fill="white" stroke="white" stroke-width="0.472141" stroke-miterlimit="10"/>
<path d="M17.4359 23.2521L17.3479 23.2939L18.8086 26.3618L18.8965 26.3199L17.4359 23.2521Z" fill="white" stroke="white" stroke-width="0.472141" stroke-miterlimit="10"/>
<path d="M21.7479 24.2315L18.825 26.3003L18.8812 26.3798L21.8042 24.311L21.7479 24.2315Z" fill="white" stroke="white" stroke-width="0.472141" stroke-miterlimit="10"/>
<path d="M22.4597 21.8871L21.7301 24.2515L21.8232 24.2802L22.5528 21.9159L22.4597 21.8871Z" fill="white" stroke="white" stroke-width="0.472141" stroke-miterlimit="10"/>
<path d="M18.8768 26.2959L18.8357 26.3843L22.4891 28.0832L22.5301 27.9949L18.8768 26.2959Z" fill="white" stroke="white" stroke-width="0.472141" stroke-miterlimit="10"/>
<path d="M35.8808 26.0988L32.6169 27.9424L32.6649 28.0272L35.9287 26.1836L35.8808 26.0988Z" fill="white" stroke="white" stroke-width="0.472141" stroke-miterlimit="10"/>
<path d="M33.107 24.0405L33.0494 24.1191L35.8743 26.1874L35.9319 26.1088L33.107 24.0405Z" fill="white" stroke="white" stroke-width="0.472141" stroke-miterlimit="10"/>
<path d="M32.6757 21.5301L32.5798 21.5474L33.0347 24.0806L33.1306 24.0633L32.6757 21.5301Z" fill="white" stroke="white" stroke-width="0.472141" stroke-miterlimit="10"/>
<path d="M37.4201 23.2377L35.8589 26.1167L35.9445 26.1631L37.5058 23.2841L37.4201 23.2377Z" fill="white" stroke="white" stroke-width="0.472141" stroke-miterlimit="10"/>
<path d="M35.9436 32.2053L35.8618 32.1508L41.999 23.2373L42.0808 23.2919L35.9436 32.2053Z" fill="white" stroke="white" stroke-width="0.472141" stroke-miterlimit="10"/>
<path d="M12.8576 23.1357L12.7783 23.1924L19.2564 32.2509L19.3356 32.1942L12.8576 23.1357Z" fill="white" stroke="white" stroke-width="0.472141" stroke-miterlimit="10"/>
</g>
<path d="M67.7064 35.9277V26.8841H71.5404C71.9565 26.8841 72.3386 26.969 72.6867 27.1388C73.0349 27.3087 73.3364 27.538 73.5911 27.8267C73.8543 28.1154 74.0581 28.4381 74.2025 28.7947C74.3469 29.1514 74.419 29.5165 74.419 29.8901C74.419 30.3997 74.3002 30.8837 74.0624 31.3422C73.8246 31.8008 73.4977 32.1744 73.0816 32.4631C72.6655 32.7518 72.173 32.8962 71.6041 32.8962H69.4641V35.9277H67.7064ZM69.4641 31.355H71.5022C71.7144 31.355 71.9055 31.2955 72.0753 31.1766C72.2452 31.0578 72.381 30.8879 72.4829 30.6671C72.5848 30.4379 72.6358 30.1789 72.6358 29.8901C72.6358 29.576 72.5763 29.3085 72.4575 29.0877C72.3471 28.8669 72.1985 28.7013 72.0117 28.5909C71.8333 28.4805 71.638 28.4253 71.4257 28.4253H69.4641V31.355ZM80.6738 35.9277V26.8841H82.4315V34.3865H87.0425V35.9277H80.6738ZM95.6019 26.8841H97.3852L100.71 35.9277H98.901L98.0603 33.6732H94.9014L94.0734 35.9277H92.2647L95.6019 26.8841ZM97.7418 32.4377L96.4936 28.7056L95.1943 32.4377H97.7418ZM112.651 28.4253H109.759V35.9277H108.014V28.4253H105.123V26.8841H112.651V28.4253ZM118.805 35.9277V26.8841H124.881V28.4253H120.563V30.7563H124.154V32.1829H120.563V35.9277H118.805ZM134.873 35.9914C134.21 35.9914 133.608 35.864 133.064 35.6093C132.529 35.3545 132.066 35.0106 131.676 34.5776C131.294 34.136 130.996 33.6435 130.784 33.1C130.572 32.548 130.466 31.9833 130.466 31.4059C130.466 30.803 130.576 30.2298 130.797 29.6863C131.026 29.1344 131.336 28.6461 131.727 28.2215C132.126 27.7885 132.593 27.4488 133.128 27.2025C133.671 26.9478 134.266 26.8204 134.911 26.8204C135.565 26.8204 136.159 26.952 136.694 27.2153C137.238 27.4785 137.701 27.8309 138.083 28.2725C138.465 28.7141 138.762 29.2066 138.974 29.75C139.187 30.2935 139.293 30.854 139.293 31.4314C139.293 32.0258 139.182 32.599 138.962 33.151C138.741 33.6944 138.431 34.1827 138.032 34.6158C137.641 35.0404 137.174 35.3758 136.631 35.622C136.096 35.8683 135.51 35.9914 134.873 35.9914ZM132.249 31.4059C132.249 31.7965 132.308 32.1744 132.427 32.5396C132.546 32.9047 132.716 33.2316 132.937 33.5203C133.166 33.8006 133.442 34.0256 133.765 34.1954C134.096 34.3568 134.469 34.4374 134.886 34.4374C135.31 34.4374 135.688 34.3525 136.019 34.1827C136.35 34.0044 136.626 33.7708 136.847 33.4821C137.068 33.1849 137.233 32.858 137.344 32.5013C137.463 32.1362 137.522 31.7711 137.522 31.4059C137.522 31.0153 137.459 30.6417 137.331 30.285C137.212 29.9199 137.038 29.5972 136.809 29.317C136.588 29.0282 136.312 28.8032 135.981 28.6419C135.658 28.472 135.293 28.3871 134.886 28.3871C134.452 28.3871 134.07 28.4763 133.739 28.6546C133.416 28.8244 133.145 29.0537 132.924 29.3424C132.703 29.6312 132.533 29.9538 132.414 30.3105C132.304 30.6671 132.249 31.0323 132.249 31.4059ZM145.672 35.9277V26.8841H149.672C150.088 26.8841 150.47 26.969 150.818 27.1388C151.175 27.3087 151.481 27.538 151.735 27.8267C151.999 28.1154 152.198 28.4381 152.334 28.7947C152.479 29.1514 152.551 29.5165 152.551 29.8901C152.551 30.2723 152.483 30.6417 152.347 30.9983C152.22 31.3465 152.033 31.6522 151.786 31.9154C151.54 32.1787 151.251 32.3825 150.92 32.5268L152.984 35.9277H151.048L149.188 32.8962H147.43V35.9277H145.672ZM147.43 31.355H149.634C149.855 31.355 150.05 31.2913 150.22 31.1639C150.39 31.028 150.525 30.8497 150.627 30.6289C150.729 30.4081 150.78 30.1619 150.78 29.8901C150.78 29.6014 150.721 29.3509 150.602 29.1386C150.483 28.9179 150.33 28.7438 150.143 28.6164C149.965 28.489 149.77 28.4253 149.557 28.4253H147.43V31.355ZM166.55 35.9277V29.992L164.231 34.412H163.251L160.932 29.992V35.9277H159.175V26.8841H161.06L163.735 32.0301L166.435 26.8841H168.308V35.9277H166.55Z" fill="white"/>
<path d="M83.2394 16.0641V18.9493H66.7638V1.95557H82.9171V4.84074H71.356V8.93769H81.3461V11.6209H71.356V16.0352H83.2394V16.0641Z" fill="white"/>
<path d="M181 16.0641V18.9493H164.524V1.95557H180.678V4.84074H169.117V8.93769H179.107V11.6209H169.117V16.0352H181V16.0641Z" fill="white"/>
<path d="M125.314 19.1512C123.582 19.1512 122.011 18.9204 120.56 18.4299C119.15 17.9394 117.942 17.3047 116.935 16.4969C115.928 15.6602 115.162 14.7369 114.598 13.7271C114.035 12.6884 113.753 11.6209 113.753 10.5534C113.753 9.42818 114.035 8.33181 114.639 7.322C115.243 6.28333 116.049 5.36009 117.096 4.58109C118.143 3.77324 119.352 3.13849 120.762 2.67686C122.172 2.18638 123.743 1.95557 125.435 1.95557C127.167 1.95557 128.697 2.21524 130.107 2.70572C131.517 3.1962 132.766 3.85977 133.733 4.69648C134.74 5.53318 135.505 6.45645 136.069 7.46626C136.633 8.47608 136.915 9.54358 136.915 10.6111C136.915 11.7363 136.633 12.8038 136.029 13.8425C135.465 14.8523 134.619 15.7756 133.572 16.5834C132.565 17.3913 131.316 17.9972 129.906 18.4876C128.536 18.9204 127.006 19.1512 125.314 19.1512ZM118.425 10.5245C118.425 11.2458 118.586 11.9671 118.909 12.6596C119.231 13.352 119.674 13.9579 120.238 14.5061C120.842 15.0254 121.567 15.4582 122.413 15.7756C123.3 16.0929 124.266 16.2372 125.354 16.2372C126.482 16.2372 127.449 16.0641 128.335 15.7467C129.221 15.4005 129.946 14.9677 130.51 14.4195C131.074 13.8713 131.517 13.2366 131.799 12.573C132.121 11.8806 132.283 11.1881 132.283 10.5245C132.283 9.80325 132.121 9.08195 131.799 8.41836C131.477 7.72591 131.034 7.12003 130.43 6.6007C129.866 6.05252 129.141 5.64859 128.254 5.33122C127.408 5.01385 126.442 4.84074 125.394 4.84074C124.266 4.84074 123.259 5.01385 122.373 5.33122C121.527 5.64859 120.802 6.08138 120.238 6.62956C119.674 7.17774 119.231 7.78362 118.909 8.44721C118.586 9.13966 118.425 9.8321 118.425 10.5245Z" fill="white"/>
<path d="M159.748 4.84074H152.175V18.9493H147.582V4.84074H140.009V1.95557H159.748V4.84074Z" fill="white"/>
<path d="M92.8364 8.04329V18.9493H88.2441V1.95557H91.9099L104.156 13.1501V1.98442H108.748V18.9493H104.921L92.8364 8.04329Z" fill="white"/>
</svg>
