<svg width="158" height="45" viewBox="0 0 158 45" fill="none" xmlns="http://www.w3.org/2000/svg">
<g opacity="0.5">
<g clip-path="url(#clip0_1_411)">
<path d="M34.0451 36.6005V22.5981L21.9292 15.6243L15.7342 19.2485L18.585 20.8958L21.9292 18.919L31.1943 24.3003V27.2106L20.8328 33.141L20.7231 33.0312L4.87926 23.916V11.2314L2.02846 12.8788V25.5633L20.8328 36.4357L31.1943 30.3955V34.9531L19.0784 41.9269L21.9292 43.5742L34.0451 36.6005Z" fill="#F0F0F0"/>
<path d="M12.9931 39.7302L15.8439 38.028L2.90562 30.5601L0 32.2074L12.9931 39.7302Z" fill="#F0F0F0"/>
<path d="M27.0826 25.0691L24.177 23.4218L20.8327 25.3436L11.6225 20.0173V17.107L21.9292 11.1765L22.0937 11.2314L37.8827 20.4016V33.0861L40.7883 31.4388V18.6994L21.9292 7.82694L11.6225 13.8672V9.36446L23.7384 2.33582L20.8327 0.688477L8.71686 7.66221V21.6646L20.8327 28.6932L27.0826 25.0691Z" fill="#F0F0F0"/>
<path d="M39.9112 13.7576L42.762 12.1102L29.8237 4.5874L26.9181 6.23474L39.9112 13.7576Z" fill="#F0F0F0"/>
<path d="M55.0975 36.7103V29.7915H58.0579C58.3868 29.7915 58.661 29.8464 58.9351 30.0111C59.2092 30.121 59.4285 30.3406 59.6478 30.5603C59.8671 30.7799 59.9767 31.0545 60.0864 31.329C60.196 31.6036 60.2508 31.8781 60.2508 32.1527C60.2508 32.5371 60.1412 32.9214 59.9767 33.2509C59.8122 33.5804 59.5381 33.9099 59.2092 34.1295C58.8802 34.3491 58.4965 34.459 58.0579 34.459H56.4132V36.7652H55.0975V36.7103ZM56.4132 33.196H57.9483C58.1127 33.196 58.2772 33.1411 58.3868 33.0862C58.4965 32.9764 58.6061 32.8665 58.7158 32.7018C58.7706 32.5371 58.8254 32.3174 58.8254 32.0978C58.8254 31.8781 58.7706 31.6585 58.7158 31.4938C58.6061 31.329 58.4965 31.2192 58.3868 31.1094C58.2224 30.9996 58.1127 30.9996 57.9483 30.9996H56.468V33.196H56.4132Z" fill="#F0F0F0"/>
<path d="M65.075 36.7103V29.7915H66.4456V35.5572H69.9542V36.7652H65.075V36.7103Z" fill="#F0F0F0"/>
<path d="M76.5333 29.7915H77.9039L80.4257 36.7103H79.0551L78.4521 34.9532H75.9302L75.3272 36.7103H74.0114L76.5333 29.7915ZM78.178 34.0197L77.246 31.1643L76.314 34.0197H78.178Z" fill="#F0F0F0"/>
<path d="M89.636 30.9446H87.443V36.7103H86.1273V30.9446H83.9344V29.7915H89.6908V30.9446H89.636Z" fill="#F0F0F0"/>
<path d="M94.4061 36.7103V29.7915H99.066V30.9996H95.7766V32.8116H98.5178V33.9099H95.7766V36.7652H94.4061V36.7103Z" fill="#F0F0F0"/>
<path d="M106.795 36.7655C106.302 36.7655 105.808 36.6556 105.425 36.4909C104.986 36.2713 104.657 36.0516 104.383 35.6672C104.109 35.3378 103.835 34.9534 103.67 34.5141C103.506 34.0748 103.451 33.6355 103.451 33.1962C103.451 32.7569 103.561 32.3176 103.725 31.8784C103.89 31.4391 104.109 31.1096 104.438 30.7801C104.767 30.4507 105.096 30.1761 105.534 30.0114C105.973 29.7917 106.411 29.7368 106.905 29.7368C107.398 29.7368 107.837 29.8466 108.275 30.0663C108.714 30.2859 109.043 30.5605 109.317 30.89C109.591 31.2194 109.81 31.6038 109.975 32.0431C110.139 32.4824 110.194 32.8668 110.194 33.361C110.194 33.8003 110.085 34.2395 109.92 34.6788C109.756 35.1181 109.536 35.4476 109.207 35.7771C108.878 36.1065 108.55 36.3811 108.111 36.5458C107.727 36.6556 107.289 36.7655 106.795 36.7655ZM104.767 33.2511C104.767 33.5257 104.822 33.8552 104.876 34.1297C104.986 34.4043 105.096 34.6788 105.26 34.8985C105.425 35.1181 105.644 35.2829 105.918 35.3927C106.192 35.5025 106.466 35.5574 106.795 35.5574C107.124 35.5574 107.398 35.5025 107.672 35.3378C107.946 35.2279 108.111 35.0083 108.33 34.7887C108.495 34.569 108.604 34.2945 108.714 34.0199C108.824 33.7453 108.824 33.4708 108.824 33.1962C108.824 32.9217 108.769 32.5922 108.659 32.3176C108.55 32.0431 108.44 31.7685 108.275 31.5489C108.111 31.3292 107.892 31.1645 107.618 31.0547C107.343 30.9449 107.069 30.89 106.795 30.89C106.466 30.89 106.192 30.9449 105.918 31.1096C105.644 31.2194 105.479 31.4391 105.315 31.6587C105.15 31.8784 105.041 32.1529 104.931 32.4275C104.822 32.702 104.767 32.9766 104.767 33.2511Z" fill="#F0F0F0"/>
<path d="M115.129 36.7103V29.7915H118.199C118.528 29.7915 118.802 29.8464 119.076 30.0111C119.35 30.121 119.569 30.3406 119.789 30.5603C120.008 30.7799 120.118 31.0545 120.227 31.329C120.337 31.6036 120.392 31.8781 120.392 32.1527C120.392 32.4272 120.337 32.7018 120.227 32.9764C120.118 33.2509 120.008 33.4706 119.789 33.6902C119.624 33.9098 119.405 34.0746 119.131 34.1844L120.721 36.8202H119.24L117.815 34.5139H116.444V36.8202H115.129V36.7103ZM116.444 33.196H118.144C118.308 33.196 118.473 33.1411 118.583 33.0313C118.692 32.9214 118.802 32.8116 118.911 32.6469C118.966 32.4822 119.021 32.2625 119.021 32.0978C119.021 31.8781 118.966 31.6585 118.911 31.4938C118.802 31.329 118.692 31.2192 118.583 31.1094C118.418 30.9996 118.308 30.9446 118.144 30.9446H116.499V33.196H116.444Z" fill="#F0F0F0"/>
<path d="M131.137 36.7103V32.1527L129.383 35.5572H128.615L126.861 32.1527V36.7103H125.49V29.7915H126.916L128.944 33.7451L131.027 29.7915H132.453V36.7103H131.137Z" fill="#F0F0F0"/>
<path d="M93.6925 9.80371H90.8965V20.3467V23.0922V23.1472L103.89 23.0922V20.3467H93.6925V9.80371Z" fill="#F0F0F0"/>
<path d="M113.21 9.74902L113.265 9.80393L105.315 23.0925L108.824 23.1474L114.306 13.8674L119.734 23.1474L123.297 23.0925L115.293 9.74902H113.21Z" fill="#F0F0F0"/>
<path d="M79.4386 9.74902V9.80393L71.4893 23.0925L75.0528 23.1474L80.5351 13.8674L85.9625 23.1474L89.526 23.0925L81.5219 9.74902H79.4386Z" fill="#F0F0F0"/>
<path d="M139.964 9.74902H136.071L132.617 13.8674L129.109 9.74902H125.271L130.644 16.1736L124.778 23.0925L128.615 23.1474L132.617 18.425L136.565 23.1474L140.402 23.0925L134.536 16.1736L139.964 9.74902Z" fill="#F0F0F0"/>
<path d="M54.3848 13.1535V19.7429C54.3848 21.6099 55.9198 23.1474 57.7838 23.1474H70.0642V23.0925V20.4018V17.9857V15.6794H66.9941H62.992V17.9857H66.9941V20.4018H59.6478C58.661 20.4018 57.8934 19.6331 57.8934 18.6447V12.7142H70.0093V9.74902H57.729C55.865 9.74902 54.3848 11.2865 54.3848 13.1535Z" fill="#F0F0F0"/>
<path d="M153.999 9.74902L149.942 14.4165L145.885 9.74902H141.883L148.023 16.6678V23.1474H151.806V16.6678L158.001 9.74902H153.999Z" fill="#F0F0F0"/>
</g>
</g>
<defs>
<clipPath id="clip0_1_411">
<rect width="158" height="42.8857" fill="white" transform="translate(0 0.688477)"/>
</clipPath>
</defs>
</svg>
